<?xml version="1.0" encoding="UTF-8" standalone="no"?>
<svg
   xmlns:dc="http://purl.org/dc/elements/1.1/"
   xmlns:cc="http://creativecommons.org/ns#"
   xmlns:rdf="http://www.w3.org/1999/02/22-rdf-syntax-ns#"
   xmlns:svg="http://www.w3.org/2000/svg"
   xmlns="http://www.w3.org/2000/svg"
   xmlns:sodipodi="http://sodipodi.sourceforge.net/DTD/sodipodi-0.dtd"
   xmlns:inkscape="http://www.inkscape.org/namespaces/inkscape"
   inkscape:version="1.0 (4035a4fb49, 2020-05-01)"
   sodipodi:docname="flair.svg"
   viewBox="0 0 722.95386 352.24615"
   height="352.24615"
   width="722.95386"
   id="svg10"
   version="1.1">
  <metadata
     id="metadata16">
    <rdf:RDF>
      <cc:Work
         rdf:about="">
        <dc:format>image/svg+xml</dc:format>
        <dc:type
           rdf:resource="http://purl.org/dc/dcmitype/StillImage" />
        <dc:title></dc:title>
      </cc:Work>
    </rdf:RDF>
  </metadata>
  <defs
     id="defs14" />
  <sodipodi:namedview
     inkscape:current-layer="g18"
     inkscape:window-maximized="1"
     inkscape:window-y="-8"
     inkscape:window-x="-8"
     inkscape:cy="132.25011"
     inkscape:cx="145.43744"
     inkscape:zoom="1.0664581"
     showgrid="false"
     id="namedview12"
     inkscape:window-height="1017"
     inkscape:window-width="1920"
     inkscape:pageshadow="2"
     inkscape:pageopacity="0"
     guidetolerance="10"
     gridtolerance="10"
     objecttolerance="10"
     borderopacity="1"
     bordercolor="#666666"
     pagecolor="#ffffff" />
  <g
     id="g18"
     inkscape:label="Image"
     inkscape:groupmode="layer">
    <g
       transform="translate(-3.3937254e-7,2.81305)"
       id="g38">
      <path
         id="path42"
         d="m 400.37488,344.62933 c -3.22553,-3.43343 -1.60459,-12.68019 4.16645,-23.7678 6.0607,-11.64409 30.15301,-45.8293 43.97694,-62.39999 25.35252,-30.39 73.5312,-75.39162 104.43173,-97.54518 3.73473,-2.67755 6.62728,-5.03139 6.42791,-5.23078 -0.19939,-0.19937 0.0529,-0.37928 0.56056,-0.39978 0.50769,-0.0205 4.41231,-2.34526 8.67693,-5.16612 11.53371,-7.62907 17.89923,-11.36012 28.48506,-16.69608 10.90617,-5.49744 15.88366,-7.14668 21.56897,-7.14668 3.59418,0 4.26639,0.26504 6.60585,2.6045 l 2.6045,2.6045 -0.33772,5.7032 c -0.21408,3.61525 -0.92339,7.01972 -1.93747,9.29929 -1.85712,4.17466 -2.5493,4.56506 8.35849,-4.7142 21.50605,-18.29518 43.8593,-33.46457 62.57189,-42.462632 22.8542,-10.98957 29.04708,-6.518105 17.66894,12.757552 l -3.37377,5.71548 -0.54025,-3.62775 c -1.36032,-9.13446 -8.42496,-9.31746 -24.99757,-0.64755 -9.37312,4.90353 -21.29239,12.98133 -31.75385,21.51991 -10.20446,8.32881 -26.24942,24.03895 -28.55583,27.95993 -1.98016,3.36635 -2.0571,6.3384 -0.17338,6.69707 2.37138,0.45151 9.79388,-3.05794 17.72215,-8.37927 8.13751,-5.46176 12.35188,-7.25473 16.04797,-6.8275 1.72144,0.19899 1.96012,0.53952 1.86244,2.65721 -0.3397,7.36488 -22.67494,34.1281 -41.76969,50.05057 -24.58811,20.50319 -52.29953,35.34582 -59.54144,31.89125 -2.77252,-1.32257 -3.00469,-5.67823 -0.61765,-11.58794 4.11119,-10.17827 25.84249,-38.39601 43.61023,-56.62717 l 10.70717,-10.98645 0.81872,-4.6861 c 0.92854,-5.31474 0.10223,-9.21864 -2.21358,-10.45803 -4.67156,-2.50014 -17.64705,2.26134 -36.22729,13.29393 -17.92145,10.64143 -36.57482,25.56761 -56.70295,45.37294 -20.36266,20.0361 -28.13748,29.96664 -28.15965,35.96748 -0.01,2.67681 1.66435,3.11113 6.53483,1.69525 6.40421,-1.86176 10.10781,-4.03799 21.64056,-12.71593 7.95606,-5.98663 11.93926,-8.48144 15.41606,-9.65557 14.49539,-4.89517 14.48857,1.76304 -0.024,23.44063 -15.26217,22.79723 -34.62869,43.89399 -58.71311,63.95867 -34.8359,29.02172 -67.81074,46.00561 -74.82513,38.53914 z m 38.37811,-24.856 c 14.7426,-4.57822 36.4529,-19.89157 58.13001,-41.00196 11.26843,-10.97383 17.31827,-18.00573 23.13485,-26.89029 3.46848,-5.29792 4.88925,-8.57399 4.07255,-9.39069 -0.71475,-0.71475 -3.73172,1.30229 -12.50118,8.35784 -19.96523,16.06323 -28.38976,20.7554 -37.93423,21.12803 -8.22285,0.32104 -10.85936,-4.49083 -8.11305,-14.80703 0.56764,-2.13231 0.73726,-3.87693 0.37693,-3.87693 -1.58403,0 -18.13757,21.2906 -27.53369,35.41288 -11.5323,17.33296 -15.59737,28.42913 -11.47323,31.31779 2.29153,1.60504 6.1292,1.52414 11.84104,-0.24964 z m 147.6578,-98.13272 c 12.60792,-4.33776 31.05472,-17.1149 45.39403,-31.44209 6.55782,-6.55228 12.79848,-14.42299 14.07635,-17.75306 0.84949,-2.21371 -1.65089,-1.05298 -8.21962,3.81574 -8.06538,5.97804 -15.47598,10.75497 -18.46154,11.90044 -11.09745,4.25778 -16.35891,1.48056 -14.05099,-7.41671 0.55375,-2.13477 0.89805,-3.99019 0.76509,-4.12314 -0.61513,-0.61513 -13.81282,14.91843 -20.28095,23.87052 -8.36031,11.5709 -11.16127,17.88482 -9.2369,20.8218 1.39594,2.13047 4.47906,2.23099 10.01453,0.3265 z"
         style="fill:#eb1e25;stroke-width:0.738462" />
      <path
         id="path40"
         d="m 5.6107684,304.04728 c -3.4621438,-2.59609 1.4113609,-14.12822 10.3704866,-24.53959 3.145508,-3.65539 13.559385,-15.28615 23.141948,-25.84615 21.07432,-23.22394 37.911371,-42.14413 50.254475,-56.47213 5.063816,-5.87813 14.148432,-16.01352 20.188032,-22.52308 17.49014,-18.85109 19.96866,-22.86284 12.79032,-20.70248 -4.77614,1.43741 -22.733498,4.98175 -23.146667,4.56859 -0.756472,-0.75648 1.293457,-6.21708 2.874647,-7.65749 2.31982,-2.11327 3.90019,-2.85204 12.51732,-5.85147 19.72512,-6.86586 30.19737,-15.47602 57.38026,-47.177327 C 190.9503,75.724408 210.10133,54.426362 217.21398,47.542769 240.63462,24.8764 268.53257,5.1692307 277.199,5.1692307 c 6.4216,0 8.12473,5.6434793 4.5607,15.1122333 -2.36556,6.284718 -4.79682,10.354921 -10.5494,17.660859 -12.33274,15.66295 -30.80998,34.250909 -47.29718,47.580613 -17.46743,14.122212 -44.11315,32.693554 -54.80542,38.197894 -14.10232,7.2598 -24.12204,23.48759 -18.02722,29.1966 1.77447,1.66213 2.44834,1.78591 9.41539,1.72946 5.07654,-0.0411 10.72511,-0.71878 17.46074,-2.0947 14.57495,-2.97729 22.99815,-6.72564 27.01854,-12.02329 1.17114,-1.5432 6.7893,-7.62698 12.48479,-13.51951 5.6955,-5.89253 14.71037,-15.86177 20.03305,-22.15385 11.65951,-13.783044 24.85154,-26.640043 34.30558,-33.43437 8.14167,-5.851158 22.71893,-13.292693 29.28801,-14.951204 5.48452,-1.384691 7.07755,-0.815186 8.32932,2.977722 2.53779,7.68958 -5.10179,21.135066 -20.98598,36.934804 -13.12221,13.052448 -27.32668,22.532398 -44.23149,29.519728 -11.71143,4.84073 -13.80522,6.11162 -19.33689,11.73714 -10.62913,10.8095 -12.23907,20.66932 -3.6923,22.61296 4.69198,1.06702 22.0276,-1.14937 32.86153,-4.2014 2.23385,-0.6293 6.94072,-2.62018 10.45972,-4.4242 5.69395,-2.919 6.53219,-3.61496 7.61576,-6.32308 1.87134,-4.67693 8.27812,-13.49815 12.81538,-17.64495 2.24592,-2.05265 6.51707,-5.37425 9.49145,-7.38133 12.85303,-8.67314 21.43215,-11.47135 33.00642,-10.76555 8.59541,0.52416 11.69159,1.47463 15.23665,4.67738 2.84857,2.5735 4.06974,5.87429 4.60864,12.45696 0.16492,2.01445 0.44841,2.23712 3.12563,2.45502 3.36881,0.27417 4.04399,1.00583 4.05982,4.39947 0.017,3.64534 -1.59232,6.8045 -6.28316,12.33401 -4.55754,5.3724 -6.04245,9.25131 -4.79628,12.52898 0.60908,1.60202 1.17422,1.88252 3.79285,1.88252 7.05127,0 19.325,-5.16952 34.54287,-14.549 9.55533,-5.88938 11.20206,-7.07142 30.85725,-22.14975 18.93296,-14.52428 19.66617,-14.98728 23.73919,-14.99079 2.54911,-0.002 3.6318,0.43375 5.35385,2.15582 3.92758,3.92757 2.34442,8.55214 -4.63192,13.53036 -5.61807,4.00896 -12.37051,11.08887 -14.14749,14.83358 -1.9055,4.01553 -3.67872,11.96013 -3.14453,14.0885 0.8074,3.21696 4.57131,6.80221 8.21101,7.82126 4.27793,1.19775 10.03996,0.61226 21.04074,-2.13798 9.82182,-2.45549 16.47846,-5.34965 27.32537,-11.88047 12.02738,-7.24155 16.5807,-10.73375 27.08752,-20.7749 14.49599,-13.85353 19.14067,-16.43453 31.3051,-17.3959 6.35807,-0.50249 10.406,0.47617 12.12588,2.93163 1.87127,2.67162 1.44891,9.88599 -0.84871,14.49671 -3.02681,6.074 -9.96655,13.01045 -16.09266,16.08502 -11.17107,5.60651 -16.50264,10.39114 -15.45764,13.8719 0.6654,2.21636 3.97173,5.48698 7.25154,7.17322 7.09454,3.64749 21.9138,0.69892 36.59591,-7.28146 5.97853,-3.2496 5.52244,-2.83378 -5.93768,5.41342 -11.26426,8.10624 -10.94063,7.9357 -17.32386,9.12889 -13.59341,2.54096 -27.01217,0.4663 -32.22144,-4.98171 -3.75243,-3.92441 -4.57204,-5.80864 -4.02226,-9.24682 1.16667,-7.29593 6.70687,-13.47655 16.71233,-18.64416 10.03777,-5.18431 14.63258,-10.53154 11.62984,-13.53429 -1.3062,-1.3062 -5.07563,-1.07288 -7.60616,0.4708 -1.21846,0.74329 -6.41176,5.26617 -11.54065,10.05085 -18.9617,17.68912 -35.8251,27.36508 -57.46777,32.97414 -22.81153,5.91198 -37.74786,4.17813 -42.13842,-4.89157 -1.33707,-2.76202 -1.57824,-4.3302 -1.35272,-8.79603 0.22936,-4.5422 0.7324,-6.31149 3.06299,-10.77318 1.5337,-2.93613 2.60479,-5.52217 2.38021,-5.74676 -0.73945,-0.73945 -5.41428,1.95103 -11.62858,6.69252 -12.95432,9.88413 -38.44709,23.94051 -47.13057,25.98717 -5.53827,1.30536 -17.5139,1.49473 -21.66343,0.34257 -3.95944,-1.09938 -6.15119,-3.52883 -6.74282,-7.47408 -0.88465,-5.89931 -0.74131,-5.89492 -11.59217,-0.35499 -10.93061,5.58065 -16.38809,7.06701 -26.6515,7.25862 -5.60508,0.10465 -6.65712,-0.0977 -9.66187,-1.85863 -2.10433,-1.23322 -4.10671,-3.22991 -5.32656,-5.31144 -1.07506,-1.83445 -2.1639,-3.22199 -2.41963,-3.08342 -14.94606,8.0983 -47.98444,13.1692 -59.68035,9.16005 -4.35167,-1.49167 -8.37726,-5.41968 -9.91635,-9.67596 -0.68228,-1.88683 -1.32433,-2.59764 -2.10918,-2.33511 -12.50792,4.18393 -27.11785,6.57837 -40.63602,6.65988 -6.54166,0.0394 -12.14425,-0.30528 -14.4,-0.88604 L 139.2,161.66801 112.87634,188.09555 c -27.401409,27.50952 -29.903546,30.21066 -54.168647,58.47698 -8.123077,9.46253 -16.846442,19.58091 -19.385256,22.48527 -5.570053,6.37205 -8.196445,11.05605 -6.413012,11.43718 1.661444,0.35506 5.587247,-2.55782 15.584511,-11.56346 4.814508,-4.33695 14.669682,-12.8081 21.900388,-18.82477 18.657176,-15.52463 43.924726,-39.83034 69.064846,-66.43577 2.57946,-2.72981 5.16197,-4.96329 5.73891,-4.96329 3.11877,0 2.75155,8.38941 -0.61176,13.97608 -5.75153,9.55362 -23.6521,28.74037 -40.46324,43.37058 C 84.82956,252.8449 51.164151,280.37657 39.138462,289.19896 22.26412,301.57847 9.7244132,307.1319 5.6107684,304.04728 Z M 303.75957,155.04218 c 15.15865,-5.86251 31.07821,-16.7292 32.98872,-22.5181 1.05268,-3.18963 0.35287,-7.80228 -1.55091,-10.22254 -5.50941,-7.00409 -28.31285,2.23601 -43.84181,17.76497 -6.55485,6.55486 -8.54615,11.80423 -5.90709,15.57202 1.37541,1.96367 4.94021,3.04502 8.45922,2.56603 1.42154,-0.1935 5.85488,-1.61657 9.85187,-3.16238 z m -54.15516,-40.93885 c 15.48832,-7.72171 23.12267,-13.12326 34.41406,-24.349061 9.56803,-9.512448 13.29187,-16.344451 10.27389,-18.849159 -0.80435,-0.667551 -1.67161,-0.704542 -3.2901,-0.140331 -5.36685,1.870892 -26.70284,17.973359 -35.61908,26.882048 -6.31692,6.311563 -16.8601,19.211753 -16.8601,20.629303 0,1.05622 2.42308,0.14378 11.08133,-4.1728 z m -74.39732,-2.69343 c 7.88429,-4.02228 27.475,-17.985736 39.63225,-28.248262 13.69936,-11.564309 44.94529,-43.954665 50.03969,-51.872476 5.48851,-8.530346 3.50157,-10.993037 -4.8198,-5.973819 -7.03016,4.240409 -17.19312,12.97106 -31.01508,26.644009 -33.51746,33.156123 -59.68421,61.025258 -57.29752,61.025258 0.20557,0 1.76277,-0.70862 3.46046,-1.57471 z m -12.1079,106.46856 c -1.88315,-0.24796 -3.95127,-0.88852 -4.59585,-1.42347 -2.95779,-2.45475 -1.97957,-10.74387 1.54009,-13.05003 1.55167,-1.0167 3.62971,-1.32393 9.28511,-1.37278 7.13669,-0.0617 7.32339,-0.0196 9.10866,2.05273 1.74143,2.0214 1.76539,2.17894 0.53767,3.53555 -1.22288,1.35127 -1.31834,1.35608 -1.97558,0.0997 -0.37982,-0.72609 -1.21126,-1.73556 -1.84762,-2.24325 -1.5354,-1.22494 -13.53977,-1.25498 -14.75782,-0.0369 -0.96693,0.96693 -1.19294,6.37436 -0.321,7.68022 1.19631,1.79163 4.06249,2.51055 10.00906,2.51055 5.89752,0 6.30934,-0.105 7.49217,-1.91023 1.44742,-2.20905 2.39147,-1.91702 1.17156,0.36241 -1.6818,3.14246 -8.33989,4.75757 -15.64645,3.79551 z m 26.05526,-0.0556 c -2.17429,-0.31484 -4.33429,-0.95347 -4.8,-1.41918 -0.46572,-0.46571 -0.84675,-3.0189 -0.84675,-5.67376 0,-4.3098 0.21035,-5.00797 1.96321,-6.51571 3.59733,-3.09429 15.63554,-3.33993 19.27209,-0.39324 1.3522,1.09568 1.64666,2.05359 1.60077,5.20758 -0.0505,3.47297 -0.33028,4.11608 -2.75839,6.34128 -2.10781,1.93166 -3.34095,2.47633 -5.60644,2.47633 -1.59736,0 -3.34686,0.12355 -3.88777,0.27457 -0.54091,0.15101 -2.76244,0.017 -4.93672,-0.29787 z m 13.49285,-2.64032 c 1.5133,-0.58071 1.59818,-6.80413 0.12037,-8.82601 -1.528,-2.09055 -13.8368,-2.59555 -15.98039,-0.65563 -2.45677,2.22335 -1.40363,7.91986 1.69429,9.16443 1.89871,0.7628 12.39221,0.99777 14.16573,0.31721 z m 13.43543,2.64069 c -4.50558,-0.54523 -6.3608,-2.55594 -6.35689,-6.88964 0.004,-3.83846 2.25101,-7.6372 4.95895,-8.38149 4.078,-1.12087 13.78869,-0.67809 15.93231,0.72647 2.21201,1.44936 2.58991,3.55728 0.8906,4.96759 -0.72203,0.59923 -1.1077,0.64073 -1.1077,0.11919 0,-0.44006 -0.72727,-1.47768 -1.61616,-2.3058 -1.37227,-1.27847 -2.59558,-1.5057 -8.10606,-1.5057 -6.09541,0 -6.56289,0.11143 -7.69102,1.83318 -1.64982,2.51794 -0.60279,7.01851 1.93111,8.30072 1.00776,0.50994 4.52727,0.92612 7.88302,0.93214 5.66594,0.0102 6.18512,-0.12143 7.93846,-2.01234 1.95151,-2.10462 2.42339,-1.85626 1.11569,0.58721 -1.64037,3.06506 -8.11653,4.55492 -15.77231,3.62847 z m 55.7496,0.005 c -4.32446,-0.63843 -5.24771,-2.0893 -5.24771,-8.24646 0,-4.53578 -0.14461,-5.02809 -1.47692,-5.02809 -0.81231,0 -1.47693,-0.32949 -1.47693,-0.7322 0,-0.40272 0.66462,-1.14726 1.47693,-1.65456 0.81231,-0.50729 1.47692,-1.30019 1.47692,-1.76199 0,-0.4618 0.49846,-1.25332 1.10769,-1.75894 0.93673,-0.77741 1.1077,-0.62039 1.1077,1.01728 0,1.86148 0.16191,1.93657 4.17599,1.93657 4.12921,0 4.16101,0.0165 2.83939,1.47692 -0.9089,1.00432 -2.27444,1.47692 -4.26744,1.47692 h -2.93083 l 0.33992,4.09903 c 0.40513,4.88538 1.63229,6.34902 5.80584,6.92468 2.88725,0.39824 2.98398,0.48855 1.68838,1.57629 -1.01884,0.85539 -2.21359,1.02991 -4.61893,0.67471 z m 16.27226,0.007 c -4.90754,-0.51376 -6.01228,-1.83718 -6.01228,-7.20222 0,-3.36469 0.3162,-4.29341 2.05324,-6.03043 2.39464,-2.39465 7.90422,-3.39768 14.12804,-2.57207 5.65959,0.75077 6.6901,1.90503 7.19775,8.06199 0.3819,4.632 0.26364,5.31543 -1.13795,6.57599 -1.39753,1.2569 -1.56415,1.27476 -1.56415,0.16758 0,-1.10218 -0.18367,-1.12372 -1.66154,-0.19482 -1.9904,1.25103 -7.56833,1.76329 -13.00311,1.19415 z m 13.49656,-2.65268 c 0.8356,-0.32065 1.16487,-1.42419 1.15678,-3.87692 -0.0127,-3.84961 -0.39624,-4.68521 -2.70938,-5.90276 -2.5225,-1.32774 -13.16864,-1.10034 -14.58041,0.31143 -2.321,2.321 -1.08426,7.9196 2.02629,9.17287 1.85161,0.74603 12.359,0.96604 14.10672,0.29538 z m 19.52335,2.81395 c -4.34908,-0.37196 -5.23536,-2.01753 -5.64271,-10.47689 -0.34512,-7.16683 0.20103,-9.61173 2.14709,-9.61173 0.35643,0 0.64805,3.25956 0.64805,7.24347 0,8.44834 0.53369,9.53524 5.06014,10.30553 3.00184,0.51084 3.1237,0.62031 1.84615,1.65844 -0.81745,0.66426 -2.45058,1.01889 -4.05872,0.88135 z M 335.87422,218 c -3.90508,-0.26087 -5.70413,-1.6405 -3.99206,-3.06139 0.78013,-0.64745 1.46893,-0.67397 2.54517,-0.098 1.56227,0.8361 13.93156,1.10154 15.91228,0.34146 1.38765,-0.53249 1.53584,-2.19116 0.2659,-2.97603 -0.49621,-0.30668 -5.00057,-0.75152 -10.0097,-0.98854 -9.61982,-0.4552 -10.92158,-0.9832 -10.05773,-4.0795 1.14979,-4.12122 7.66078,-6.2709 16.00149,-5.28306 4.37746,0.51844 5.61719,1.39581 4.26852,3.02087 -0.68111,0.82068 -1.29645,0.92863 -2.28323,0.40052 -0.74296,-0.39719 -4.37388,-0.72252 -8.06871,-0.72252 -5.41829,0 -6.80379,0.22389 -7.16199,1.15734 -0.82931,2.16113 1.15276,2.78746 10.17704,3.21589 7.29045,0.34612 9.136,0.66017 9.76528,1.66173 1.08566,1.72793 -0.39197,4.70079 -2.98908,6.0138 -2.2265,1.12564 -8.83172,1.76801 -14.37318,1.39783 z m 29.66425,-0.0731 c -2.36355,-0.65359 -2.7214,-2.99438 -0.81171,-5.30958 1.3411,-1.62587 1.43925,-1.64908 1.09133,-0.25803 -0.53478,2.13815 1.16133,3.26974 5.16191,3.44385 2.39754,0.10435 3.79419,-0.23007 4.68618,-1.12205 1.20196,-1.20195 1.17212,-1.33746 -0.55159,-2.50482 -3.58738,-2.42953 -9.57612,-8.90188 -9.57612,-10.34944 0,-2.33871 2.60328,-4.10225 6.62625,-4.4888 4.4866,-0.43111 5.73124,1.14612 2.97472,3.76963 -0.92463,0.88002 -1.45996,1.20133 -1.18961,0.71401 0.64655,-1.16542 -2.07638,-2.5917 -4.38706,-2.29796 l -1.81036,0.23014 1.3546,2.21539 c 0.74503,1.21846 3.23092,3.6629 5.5242,5.43209 l 4.16961,3.21671 2.28702,-1.9244 c 1.25787,-1.05842 2.7796,-1.9244 3.38164,-1.9244 1.74919,0 0.40317,1.39957 -2.55074,2.65223 l -2.71873,1.15293 2.55672,2.15896 c 1.40619,1.18742 2.8185,2.15896 3.13846,2.15896 0.31996,0 0.58174,0.50888 0.58174,1.13086 0,2.05076 -2.1799,2.02534 -4.91034,-0.0573 -2.17092,-1.65584 -2.90579,-1.87975 -3.86938,-1.17894 -5.32989,3.87631 -6.89902,4.31784 -11.15874,3.13992 z m 96.03582,-0.15859 c -5.22641,-0.69526 -6.15075,-1.91492 -5.76186,-7.60278 0.38744,-5.66651 2.26317,-7.45155 8.60339,-8.18742 8.18305,-0.94974 13.58579,0.77125 14.31995,4.56149 0.77426,3.99731 -0.79581,4.66041 -11.03483,4.66041 -7.4519,0 -9.11632,0.19459 -9.11632,1.06582 0,2.30213 3.07461,3.36495 9.73443,3.36495 6.08386,0 6.55899,-0.11543 8.328,-2.02323 1.03182,-1.11277 1.87604,-1.65655 1.87604,-1.20839 0,1.25391 -3.7357,4.70096 -5.46951,5.04691 -3.5525,0.70883 -7.69828,0.82521 -11.47929,0.32224 z m 14.73341,-9.38101 c 0,-0.32852 -0.47132,-1.24237 -1.04739,-2.03077 -1.48786,-2.03626 -14.29822,-2.59773 -16.18651,-0.70944 -0.6752,0.67521 -1.22764,1.70237 -1.22764,2.28259 0,0.85802 1.72308,1.05494 9.23077,1.05494 5.07693,0 9.23077,-0.26879 9.23077,-0.59732 z m -240,0.40893 c 0,-7.18137 0.23877,-9.42893 1.07548,-10.12334 0.923,-0.76602 1.10623,-0.0965 1.29231,4.72253 l 0.21682,5.6151 5.53846,-3.17771 c 3.04616,-1.74775 7.11911,-4.11258 9.05099,-5.25519 2.66927,-1.57872 3.39926,-1.78229 3.04072,-0.84791 -0.25951,0.67625 -2.25552,2.23621 -4.4356,3.46656 -2.18006,1.23035 -4.12181,2.49275 -4.315,2.80533 -0.19318,0.31258 1.86393,0.74613 4.57135,0.96346 3.55515,0.28537 5.19123,0.76253 5.88968,1.71772 1.33178,1.82133 1.24072,7.27853 -0.1406,8.42492 -0.94885,0.78747 -1.10769,0.54744 -1.10769,-1.67392 0,-1.42627 -0.61407,-3.35158 -1.36461,-4.27845 -1.17895,-1.45595 -2.21841,-1.73003 -7.64048,-2.01462 -7.88244,-0.41372 -9.45645,0.28707 -9.45645,4.21024 0,1.62129 -0.47477,3.23147 -1.10769,3.75675 -0.97457,0.80882 -1.10769,-0.19007 -1.10769,-8.31147 z m 72.36923,2.21539 c 0,-5.33501 0.26532,-7.23559 1.10769,-7.93469 0.9714,-0.80618 1.10769,-0.056 1.10769,6.09608 0,5.33501 -0.26532,7.23559 -1.10769,7.93469 -0.97139,0.80619 -1.10769,0.056 -1.10769,-6.09608 z m 88.4555,5.54223 c -2.10837,-2.41707 -2.79396,-4.51215 -2.79396,-8.53795 0,-2.51435 0.38115,-4.33599 1.01779,-4.86436 0.84039,-0.69746 1.07214,-0.0934 1.32957,3.46557 0.34676,4.79388 2.8318,9.25987 4.93077,8.86132 0.70914,-0.13465 1.67493,-1.67323 2.32187,-3.69893 1.50093,-4.69969 2.61456,-5.72746 3.28702,-3.03356 0.75821,3.03748 3.30907,6.88484 4.56474,6.88484 1.50455,0 3.22516,-4.46973 3.22516,-8.37817 0,-1.99367 0.42953,-3.61285 1.10769,-4.17568 0.95802,-0.79508 1.1077,-0.44819 1.1077,2.56721 0,4.08726 -1.45438,7.5043 -4.39183,10.31855 -2.54634,2.43955 -4.28935,2.24022 -6.28989,-0.7193 l -1.5029,-2.22331 -2.1035,2.41304 c -2.35224,2.69839 -4.13425,3.04211 -5.81023,1.12073 z m 23.79065,-5.54223 c 0,-5.33501 0.26533,-7.23559 1.1077,-7.93469 0.97139,-0.80618 1.10769,-0.056 1.10769,6.09608 0,5.33501 -0.26532,7.23559 -1.10769,7.93469 -0.9714,0.80619 -1.1077,0.056 -1.1077,-6.09608 z m 6.64616,0.4173 c 0,-5.70832 0.20841,-6.83477 1.47692,-7.98276 0.99322,-0.89885 1.47693,-1.02764 1.47693,-0.39326 0,0.66033 0.27692,0.71947 0.92307,0.19714 2.79922,-2.26283 15.92196,-1.78961 18.37417,0.66259 1.81386,1.81386 2.01858,11.74552 0.27199,13.19507 -0.96579,0.80153 -1.1077,0.28847 -1.1077,-4.00468 0,-4.24332 -0.25056,-5.17455 -1.81259,-6.73658 -1.62651,-1.62652 -2.42745,-1.81259 -7.80239,-1.81259 -8.25145,0 -8.84655,0.4163 -8.84655,6.18846 0,3.72172 -0.29727,4.92858 -1.47693,5.99616 -1.46652,1.32719 -1.47692,1.28982 -1.47692,-5.30955 z M 447.17431,90.646153 c 0.27753,-0.913846 1.87839,-3.461457 3.55745,-5.661356 1.67907,-2.199899 3.05286,-4.271786 3.05286,-4.604197 0,-2.48897 17.37006,-12.721315 18.93636,-11.155018 2.42891,2.428912 -9.69416,16.077905 -18.4035,20.719933 -5.42263,2.890228 -7.88138,3.131395 -7.14317,0.700638 z"
         style="fill:#252122;stroke-width:0.738462" />
    </g>
  </g>
</svg>
