<?xml version="1.0" encoding="UTF-8" standalone="no"?>
<svg
   xmlns:dc="http://purl.org/dc/elements/1.1/"
   xmlns:cc="http://creativecommons.org/ns#"
   xmlns:rdf="http://www.w3.org/1999/02/22-rdf-syntax-ns#"
   xmlns:svg="http://www.w3.org/2000/svg"
   xmlns="http://www.w3.org/2000/svg"
   xmlns:sodipodi="http://sodipodi.sourceforge.net/DTD/sodipodi-0.dtd"
   xmlns:inkscape="http://www.inkscape.org/namespaces/inkscape"
   version="1.1"
   id="svg10"
   width="210mm"
   height="297mm"
   viewBox="0 0 793.70079 1122.5197"
   sodipodi:docname="01_inkscape_path_tracing.svg"
   inkscape:version="1.0 (4035a4fb49, 2020-05-01)">
  <metadata
     id="metadata16">
    <rdf:RDF>
      <cc:Work
         rdf:about="">
        <dc:format>image/svg+xml</dc:format>
        <dc:type
           rdf:resource="http://purl.org/dc/dcmitype/StillImage" />
        <dc:title></dc:title>
      </cc:Work>
    </rdf:RDF>
  </metadata>
  <defs
     id="defs14" />
  <sodipodi:namedview
     units="mm"
     inkscape:document-rotation="0"
     pagecolor="#ffffff"
     bordercolor="#666666"
     borderopacity="1"
     objecttolerance="10"
     gridtolerance="10"
     guidetolerance="10"
     inkscape:pageopacity="0"
     inkscape:pageshadow="2"
     inkscape:window-width="958"
     inkscape:window-height="991"
     id="namedview12"
     showgrid="false"
     inkscape:zoom="0.61922422"
     inkscape:cx="385.24377"
     inkscape:cy="586.26503"
     inkscape:window-x="952"
     inkscape:window-y="0"
     inkscape:window-maximized="0"
     inkscape:current-layer="g18" />
  <g
     inkscape:groupmode="layer"
     inkscape:label="Image"
     id="g18">
    <path
       style="fill:#010101;stroke:none;stroke-width:3.69163"
       d="m 324.38489,474.64688 c -32.41474,3.22243 -85.0131,5.76708 -109.90578,29.26247 -16.79433,15.8515 -13.83512,47.32634 -16.22509,68.68538 -4.42958,39.59239 -17.85235,77.7203 -13.51025,118.13221 2.66313,24.78561 21.65288,45.98297 22.2694,70.141 0.5482,21.47791 -11.79441,45.25203 -15.89728,66.44937 -6.3592,32.85553 -9.5473,104.4584 -1.25921,136.59036 20.39884,79.08573 170.08673,84.71183 234.20225,78.37693 35.49134,-3.5033 113.53243,-6.7889 137.87135,-35.3325 17.71985,-20.7765 10.21844,-51.90065 17.33591,-76.26912 26.79385,-91.74072 18.484,-188.91554 37.99058,-284.25561 6.27208,-30.65716 15.90354,-89.94476 -2.07469,-117.49134 -17.27315,-26.4583 -55.26004,-33.87257 -84.06585,-39.12392 C 463.29358,477.44847 393.2578,467.80002 324.38489,474.64688 m -88.59915,53.64828 c 10.02019,-25.53797 53.26248,-27.14162 77.57852,-29.16279 67.96994,-5.64968 132.16889,0.7841 199.29382,10.22324 18.46186,2.59633 58.81876,7.49218 69.82353,24.82438 15.00278,23.63013 -73.2752,26.71523 -84.59005,27.43399 -84.02264,5.33774 -184.44572,2.97398 -262.10582,-33.31882 m 361.77986,44.29957 c 0,67.73481 -19.18171,131.75434 -25.9374,198.72052 -6.60801,65.48955 7.67859,134.00993 -55.33386,179.12165 -33.44248,23.94393 -90.74805,14.50443 -129.15172,10.39195 C 355.58877,957.451 305.61404,960.98767 281.68601,936.0986 261.44774,915.04524 263.44306,862.39518 256.55117,834.70058 243.29452,781.42664 210.87941,726.81633 206.93341,672.26879 204.08015,632.82444 222.9994,593.39007 224.71083,554.13658 l 177.19831,32.89428 195.65646,-14.43613 m -33.22467,55.37448 c -30.61102,64.68107 -62.15601,137.72 -62.75773,210.423 16.08074,-15.73374 15.22059,-45.02683 20.0271,-66.44938 7.44601,-33.1693 22.87702,-64.40789 35.12216,-95.98241 6.0026,-15.47348 17.8269,-33.05266 7.60847,-47.99121 M 228.40247,786.70936 c 26.49742,35.4212 32.8666,104.42888 33.22469,147.66525 C 208.02909,914.71299 200.153,831.66975 228.40247,786.70936 m 62.75773,110.74895 c 65.03584,-30.17909 158.48174,-11.6877 225.18951,7.38327 -21.81384,-41.95541 -142.08387,-32.65248 -184.58157,-32.56389 -19.43053,0.0407 -35.03172,5.9546 -40.60794,25.18062 m -70.14098,22.14978 c 69.05122,45.44029 190.90494,74.13169 273.18071,50.57166 23.42341,-6.70769 37.74693,-25.87833 59.06609,-35.80514 -1.68337,16.45361 0.7531,44.30328 -10.12245,57.51931 -14.1094,17.14398 -50.78946,17.69758 -71.09343,20.63258 -65.09454,9.4099 -139.03755,13.6553 -203.03973,-7.2172 -37.99795,-12.3928 -69.04974,-46.94647 -47.99119,-85.70121 z"
       id="path22" />
  </g>
</svg>
