<?xml version="1.0" encoding="UTF-8" standalone="no"?>
<svg
   xmlns:dc="http://purl.org/dc/elements/1.1/"
   xmlns:cc="http://creativecommons.org/ns#"
   xmlns:rdf="http://www.w3.org/1999/02/22-rdf-syntax-ns#"
   xmlns:svg="http://www.w3.org/2000/svg"
   xmlns="http://www.w3.org/2000/svg"
   xmlns:sodipodi="http://sodipodi.sourceforge.net/DTD/sodipodi-0.dtd"
   xmlns:inkscape="http://www.inkscape.org/namespaces/inkscape"
   width="210mm"
   height="297mm"
   viewBox="0 0 210 297.00001"
   version="1.1"
   id="svg8"
   inkscape:version="1.0 (4035a4fb49, 2020-05-01)"
   sodipodi:docname="10.svg">
  <defs
     id="defs2" />
  <sodipodi:namedview
     id="base"
     pagecolor="#ffffff"
     bordercolor="#666666"
     borderopacity="1.0"
     inkscape:pageopacity="0.0"
     inkscape:pageshadow="2"
     inkscape:zoom="0.61580177"
     inkscape:cx="355.37345"
     inkscape:cy="594.37422"
     inkscape:document-units="mm"
     inkscape:current-layer="layer1"
     inkscape:document-rotation="0"
     showgrid="false"
     inkscape:window-width="958"
     inkscape:window-height="991"
     inkscape:window-x="-8"
     inkscape:window-y="0"
     inkscape:window-maximized="0" />
  <metadata
     id="metadata5">
    <rdf:RDF>
      <cc:Work
         rdf:about="">
        <dc:format>image/svg+xml</dc:format>
        <dc:type
           rdf:resource="http://purl.org/dc/dcmitype/StillImage" />
        <dc:title></dc:title>
      </cc:Work>
    </rdf:RDF>
  </metadata>
  <g
     inkscape:label="Ebene 1"
     inkscape:groupmode="layer"
     id="layer1"
     transform="translate(-83.427019,-118.62164)">
    <path
       id="path24"
       style="fill:#000000;stroke-width:0.716167"
       d="m 192.31295,128.07596 c -1.34499,-0.006 -2.71965,2.4e-4 -4.12355,0.0135 -6.73868,0.0677 -14.13754,0.3459 -22.02495,0.83926 -12.4699,0.77999 -34.04821,5.64098 -41.25657,9.29339 -6.9654,3.52929 -10.51272,8.30009 -9.52279,12.80709 0.99011,4.50808 6.02048,18.50195 9.54094,26.54297 0.68983,1.57556 2.50204,6.08743 4.02707,10.02635 1.52499,3.93893 3.06943,7.36761 3.43257,7.61906 0.36314,0.25147 0.41676,0.85107 0.11882,1.33304 -0.29784,0.48197 -0.24712,1.08157 0.11183,1.33303 0.97127,0.68006 9.88745,22.36258 12.36788,30.07623 1.18524,3.68601 2.49852,7.11639 2.9192,7.62328 0.42072,0.50688 0.70128,1.19759 0.62386,1.53446 -0.0774,0.33688 0.23359,1.51942 0.69099,2.62828 0.4575,1.10882 0.83228,2.47851 0.83228,3.04371 0,0.56517 0.25525,1.02808 0.56788,1.02808 0.31252,0 0.92827,1.20852 1.36801,2.68565 0.43973,1.47708 2.12781,6.3918 3.75007,10.92153 1.62228,4.52977 3.71995,10.65302 4.6621,13.60722 0.94209,2.95416 2.40418,7.3049 3.24932,9.66825 0.84511,2.36336 2.19476,7.03633 2.99895,10.38443 0.80415,3.3481 1.72643,6.732 2.0506,7.51978 0.89326,2.17088 1.93025,5.97497 2.92621,10.74252 0.49368,2.36337 0.93654,4.45803 0.98473,4.65508 0.0482,0.19705 0.34511,2.13059 0.66023,4.29701 0.31505,2.16639 1.15834,6.70303 1.87292,10.0809 1.56867,7.41521 3.03319,26.51787 2.71361,35.39294 l -0.23224,6.44271 -4.29701,0.54412 c -2.36337,0.29904 -8.32542,1.23781 -13.24911,2.08558 -4.92362,0.84776 -9.50985,1.50997 -10.19138,1.47289 -0.68157,-0.037 -1.42542,0.23548 -1.65336,0.60425 -0.2279,0.36883 -1.17149,0.67001 -2.09675,0.67001 -1.91748,0 -10.63973,4.45725 -13.16096,6.72529 -7.96033,7.16089 -0.34376,17.68098 15.11923,20.88215 13.5484,2.80479 21.95761,3.92613 33.82634,4.50963 7.09007,0.34852 15.46922,0.51031 18.62037,0.3609 11.75344,-0.55747 16.58621,-0.94573 20.76887,-1.67014 2.36335,-0.40933 4.94155,-0.82558 5.72933,-0.92599 0.78779,-0.10045 3.92361,-0.79923 6.96865,-1.55263 6.16791,-1.52609 9.87992,-4.28438 11.73144,-8.71571 1.73588,-4.15458 1.08831,-7.23478 -2.20164,-10.47117 -5.86171,-5.766 -16.15661,-9.40469 -35.11879,-12.41121 -11.44247,-1.81425 -11.10399,-1.43692 -11.07962,-12.39027 0.0333,-14.19039 1.87051,-30.02971 5.28452,-45.57318 1.96371,-8.94054 6.77598,-27.66479 8.26389,-32.152 0.79753,-2.40522 2.77853,-8.56213 4.40193,-13.68273 1.62336,-5.12059 4.71409,-14.14434 6.86795,-20.05272 2.15384,-5.90838 4.66913,-12.83732 5.58947,-15.3976 0.92032,-2.56032 2.38615,-6.58875 3.25771,-8.9521 0.87142,-2.36337 2.52924,-6.99587 3.68295,-10.29492 1.15371,-3.29907 2.70669,-7.32749 3.45075,-8.95209 0.7441,-1.62459 3.17801,-7.62719 5.40904,-13.33862 2.231,-5.71145 5.83159,-14.89631 8.00094,-20.41079 7.85571,-19.96914 8.20769,-23.77196 2.7108,-29.21179 -5.53644,-5.47892 -16.20636,-8.9014 -38.67867,-12.40706 -5.91757,-0.92314 -13.85206,-1.4023 -23.26706,-1.43234 z m -3.18777,5.04253 c 12.20227,0.0488 24.50886,0.89224 33.97462,2.51779 18.9584,3.25573 30.07905,8.46288 30.07905,14.08417 0,2.49394 -2.39866,9.77885 -7.16589,21.76478 -1.64496,4.13587 -3.72426,9.45342 -4.62152,11.81678 -0.89725,2.36334 -2.18973,5.58611 -2.87165,7.16167 -0.682,1.57556 -1.9917,4.95946 -2.91084,7.51978 -0.91914,2.56028 -2.54485,6.74985 -3.613,9.31017 -1.06817,2.56028 -3.04638,7.71669 -4.39494,11.45867 -1.34858,3.74199 -3.90474,10.83207 -5.68177,15.75572 -1.77702,4.92365 -4.18426,11.69143 -5.34889,15.03952 -1.16461,3.34807 -2.72694,7.6988 -3.47173,9.66825 -2.45503,6.49168 -8.50723,26.99451 -11.83915,40.10541 -6.35207,24.99485 -8.23974,38.99826 -8.38699,62.24642 -0.0891,14.0518 -0.64644,13.33835 11.73704,15.00177 17.67974,2.37485 35.76116,8.78573 36.83367,13.05889 0.58344,2.32453 -1.64786,5.82829 -4.73621,7.43582 -4.18262,2.17714 -14.67365,5.06844 -19.83728,5.46776 -9.72131,0.75206 -37.3032,0.65578 -45.69208,-0.15942 -18.09694,-1.7587 -30.6517,-5.55807 -35.53145,-10.75232 -2.22711,-2.37052 -1.0688,-4.53515 3.77669,-7.05816 2.1037,-1.09543 4.01222,-2.28374 4.24105,-2.64089 0.22873,-0.35719 1.67907,-0.82489 3.22274,-1.03927 1.54371,-0.21437 3.45049,-0.6564 4.23827,-0.98194 2.1677,-0.89583 12.53245,-2.89777 15.57665,-3.00875 1.47709,-0.0538 2.68565,-0.32461 2.68565,-0.60287 0,-0.42916 4.5123,-0.79236 9.61508,-0.7707 2.87436,0.0113 3.2303,-1.74366 3.24654,-16.03824 0.0162,-12.89781 -1.19818,-27.82003 -2.74997,-33.79979 -0.38889,-1.49847 -0.89245,-4.01388 -1.11902,-5.58947 -0.75266,-5.23174 -1.90329,-10.70337 -2.93739,-13.96525 -0.5619,-1.7725 -2.01876,-7.09007 -3.23676,-11.81678 -1.21799,-4.72672 -3.47827,-12.3749 -5.02297,-16.99639 -1.54467,-4.62147 -2.8087,-8.912 -2.8087,-9.53397 0,-0.62199 -0.7975,-2.81702 -1.77224,-4.87751 -0.97477,-2.06047 -1.89301,-4.3766 -2.0408,-5.14744 -0.28078,-1.46504 -0.75771,-2.82828 -2.24362,-6.41477 -0.48958,-1.18167 -1.29825,-3.27647 -1.79741,-4.65508 -0.49916,-1.37862 -1.35347,-3.52157 -1.89813,-4.76279 -0.54466,-1.2412 -0.99032,-2.71877 -0.99032,-3.28291 0,-0.56412 -0.21411,-1.23938 -0.47558,-1.50085 -0.54534,-0.54534 -2.45635,-5.69733 -4.87889,-13.15261 -0.92092,-2.8341 -1.94003,-5.57349 -2.26601,-6.08743 -0.32597,-0.51396 -0.63108,-1.0954 -0.67699,-1.29246 -0.0461,-0.19705 -0.48112,-1.39507 -0.96793,-2.66325 -0.48685,-1.26818 -0.86152,-2.47543 -0.83229,-2.68141 0.0293,-0.20599 -0.58672,-1.51458 -1.36938,-2.90805 -0.78267,-1.39349 -1.42395,-3.09691 -1.42395,-3.78505 0,-0.68804 -0.43997,-1.88644 -0.97775,-2.66326 -0.53777,-0.77694 -1.22598,-2.21844 -1.53025,-3.20316 -0.30427,-0.98473 -1.28301,-3.40183 -2.17367,-5.37128 -3.29382,-7.28347 -13.22252,-32.67601 -13.22252,-33.81654 0,-0.50421 -0.28587,-0.9176 -0.63504,-0.9176 -0.6237,0 -1.22527,-2.18844 -1.97085,-7.16867 -0.2833,-1.8922 0.0113,-3.00542 1.18613,-4.49983 3.53513,-4.49419 14.30228,-8.11626 34.36346,-11.55799 9.04505,-1.55179 21.14293,-2.29784 33.34518,-2.24922 z m -17.28454,55.91986 c -0.77715,-0.0276 -1.61892,0.11693 -2.65627,0.39164 -4.05386,1.07318 -6.77195,3.81383 -8.04987,8.11703 -2.82384,9.5089 0.18216,20.36819 6.37556,23.02927 2.50442,1.07606 5.36387,1.12209 6.71127,0.10777 0.49236,-0.37063 0.89521,-0.41397 0.89521,-0.095 0,0.31888 0.94453,-0.3243 2.09816,-1.42954 1.29302,-1.23881 2.41528,-3.33783 2.92759,-5.47336 0.21519,-0.89666 0.45775,-1.5674 0.72038,-2.06738 -0.0216,-7.1e-4 -0.0366,-0.0135 -0.042,-0.0574 -0.002,-0.0135 -0.006,-0.027 -0.006,-0.0406 -6.5e-4,-0.0322 0.0135,-0.10799 0.0349,-0.1524 -0.002,-0.0243 -0.0113,-0.0474 -0.0113,-0.0715 -2.3e-4,-0.10236 0.0243,-0.22168 0.0547,-0.31612 0.0113,-0.037 0.0382,-0.0688 0.0517,-0.10507 0.0417,-0.10507 0.0669,-0.216 0.11478,-0.31892 h 0.002 c 0.0311,-0.0669 0.0742,-0.0953 0.11612,-0.10777 2.2e-4,-0.0135 -3.2e-4,-0.0289 0,-0.0434 -5e-5,-0.002 -6.5e-4,-0.006 0,-0.008 l 0.001,10e-4 c 7.1e-4,-0.0311 0.002,-0.0625 0.006,-0.0937 -0.006,0.006 -0.0113,0.0135 -0.0189,0.0189 -0.0113,0.008 0.002,-0.027 0.002,-0.0407 0,-0.042 -0.006,-0.0839 -0.008,-0.12586 -0.008,-0.0885 -0.008,-0.1773 -0.0162,-0.26581 -0.008,-0.0368 -0.002,-0.0544 -0.0162,-0.11748 -0.0216,-0.0901 -0.0538,-0.17783 -0.0729,-0.26851 -0.0243,-0.11747 -0.0428,-0.23684 -0.0615,-0.35526 -0.0571,-0.35986 -0.0484,-0.32746 -0.0729,-0.66023 h -0.002 c -0.006,-0.0733 0.0189,-0.11424 0.0503,-0.13995 -0.0793,-0.12451 -0.12587,-0.28193 -0.12587,-0.47558 0,-1.66905 -3.26205,-5.60701 -5.54889,-6.6987 -1.47911,-0.70612 -3.18931,-0.94778 -4.69985,-0.6644 -3.09172,0.58001 -4.66557,-1.0193 -3.50671,-3.56266 1.28498,-2.82025 3.36167,-2.93263 7.31273,-0.39725 1.94019,1.24501 3.86103,2.05669 4.26905,1.80442 1.472,-0.90975 0.78099,-4.36706 -1.22812,-6.14758 -2.49506,-2.21116 -3.89372,-3.1103 -5.60347,-3.17101 z m 36.40145,0.35667 c -0.37202,-0.002 -0.60012,0.23414 -0.90498,0.71059 -0.37797,0.59085 -0.69259,7.40018 -0.69799,15.13182 -0.0113,13.77021 0.0216,14.08003 1.60018,15.19061 3.62457,2.55017 3.75987,2.03961 3.75987,-14.19049 v -15.00314 l -1.98763,-1.10085 c -0.88168,-0.48868 -1.3974,-0.73473 -1.76945,-0.73854 z m -14.50098,7.32535 c -0.8911,-0.0509 -1.75158,0.12803 -3.02834,0.51055 -3.71703,1.11362 -7.00222,4.49828 -7.00222,7.21482 0,1.04632 -0.17648,2.34589 -0.39725,3.01433 0.0544,0.13019 0.0804,0.29607 0.0476,0.50497 -0.10721,0.6823 -0.16566,0.93847 -0.20707,1.59598 0.002,0.0113 0.008,0.0135 0.0113,0.0243 0.006,0.0661 0.0113,0.14698 0.0135,0.21681 0.008,0.0189 0.0162,0.0414 0.0243,0.0615 0.006,0.008 0.008,0.0162 0.0135,0.0243 0.006,10e-4 0.0113,0.002 0.0162,0.006 -7e-4,0.008 -0.002,0.0162 -0.006,0.0243 0.002,0.008 0.008,0.0162 0.0135,0.0243 0.006,0.0162 0.006,0.0368 0.0135,0.053 0.0135,0.0295 0.0311,0.0577 0.042,0.0883 0.008,0.0274 -0.0113,0.0596 0.001,0.0866 -2.7e-4,0.0818 -0.0135,0.14806 0.002,0.23496 0.002,0.027 0.008,0.0555 0.0113,0.0825 0.001,0.0113 6.6e-4,0.0189 0.002,0.0295 0.008,0.0447 0.0135,0.0338 0.027,0.0812 7.4e-4,0.006 6.3e-4,0.006 0.002,0.0135 0.0135,0.0189 0.027,0.0401 0.0282,0.042 0.0113,0.0216 0.0216,0.0455 0.0336,0.0685 0.006,0.006 -0.006,-0.0135 0.0293,0.0293 0.0135,0.0243 0.0368,0.0706 0.0447,0.0924 0.0162,0.0522 0.008,0.0675 0.0113,0.12019 0.002,0.0547 0.0113,0.15319 0.0162,0.20138 h 0.006 c 0.006,0.0522 -0.006,0.0923 -0.0216,0.1218 0.54233,0.82876 0.60691,2.66496 1.14139,3.95571 1.60602,3.87835 4.91519,5.90477 9.60251,5.88042 3.25357,-0.0162 4.20622,-0.34292 5.97694,-2.0394 2.77842,-2.66203 3.267,-4.40202 1.71767,-6.11401 -1.772,-1.95805 -2.7133,-1.73748 -5.33068,1.2435 -2.24629,2.55841 -2.35161,2.59476 -4.19349,1.48688 -1.03881,-0.6248 -2.49202,-1.93531 -3.22976,-2.91221 -1.20659,-1.59777 -1.25285,-2.14637 -0.45738,-5.46218 1.07949,-4.49987 3.27143,-6.36081 5.8692,-4.98519 0.91268,0.48328 2.65711,1.63362 3.87598,2.55694 2.67128,2.02359 3.59675,2.09654 4.5264,0.35946 1.12317,-2.09866 -2.06973,-6.15921 -6.03145,-7.67222 -1.40082,-0.53496 -2.32315,-0.81509 -3.21438,-0.86584 z m -23.36359,8.42475 c 2.16019,0 4.73902,2.84469 4.73902,5.2272 0,1.08113 -0.86931,2.88442 -2.00023,4.15013 l -2.00023,2.23943 -2.29678,-1.9331 c -1.70079,-1.43115 -2.29678,-2.52638 -2.29678,-4.21729 0,-2.93808 1.78334,-5.46637 3.855,-5.46637 z m 12.26018,4.40891 c -0.001,10e-4 -0.002,0.002 -0.006,0.006 0.0113,0.008 0.0216,0.0189 0.0308,0.0279 5e-4,-0.008 7.3e-4,-0.0135 0.001,-0.0216 -0.0113,-0.002 -0.0189,-0.008 -0.0279,-0.0113 z m -0.81967,0.97774 c 0.001,0.0113 0.002,0.0189 0.006,0.0295 0.002,-7.3e-4 0.002,-0.002 0.006,-0.002 -0.002,-0.008 -0.006,-0.0189 -0.0113,-0.027 z m -7.44983,170.17517 c -0.63539,0.0113 -0.69564,0.5046 -0.55392,1.48971 0.25525,1.7731 4.07465,3.53152 10.25436,4.71941 5.66308,1.08862 14.7051,0.27069 16.65091,-1.50648 1.98118,-1.80939 1.99138,-2.07276 0.12317,-3.23952 -1.18422,-0.73967 -1.70597,-0.74869 -2.55415,-0.0447 -0.63796,0.52945 -4.16264,1.01153 -8.77585,1.20154 -6.7297,0.27728 -8.14415,0.12478 -11.14259,-1.20154 -2.15593,-0.95362 -3.36646,-1.42828 -4.00185,-1.41835 z" />
  </g>
</svg>
