<?xml version="1.0" encoding="UTF-8" standalone="no"?>
<svg
   xmlns:dc="http://purl.org/dc/elements/1.1/"
   xmlns:cc="http://creativecommons.org/ns#"
   xmlns:rdf="http://www.w3.org/1999/02/22-rdf-syntax-ns#"
   xmlns:svg="http://www.w3.org/2000/svg"
   xmlns="http://www.w3.org/2000/svg"
   xmlns:sodipodi="http://sodipodi.sourceforge.net/DTD/sodipodi-0.dtd"
   xmlns:inkscape="http://www.inkscape.org/namespaces/inkscape"
   width="210mm"
   height="297mm"
   viewBox="0 0 210 297.00001"
   version="1.1"
   id="svg8"
   inkscape:version="1.0 (4035a4fb49, 2020-05-01)"
   sodipodi:docname="11.svg">
  <defs
     id="defs2" />
  <sodipodi:namedview
     id="base"
     pagecolor="#ffffff"
     bordercolor="#666666"
     borderopacity="1.0"
     inkscape:pageopacity="0.0"
     inkscape:pageshadow="2"
     inkscape:zoom="0.62"
     inkscape:cx="431.62023"
     inkscape:cy="565.15279"
     inkscape:document-units="mm"
     inkscape:current-layer="layer1"
     inkscape:document-rotation="0"
     showgrid="false"
     inkscape:window-width="960"
     inkscape:window-height="1030"
     inkscape:window-x="0"
     inkscape:window-y="0"
     inkscape:window-maximized="0" />
  <metadata
     id="metadata5">
    <rdf:RDF>
      <cc:Work
         rdf:about="">
        <dc:format>image/svg+xml</dc:format>
        <dc:type
           rdf:resource="http://purl.org/dc/dcmitype/StillImage" />
        <dc:title></dc:title>
      </cc:Work>
    </rdf:RDF>
  </metadata>
  <g
     inkscape:label="Ebene 1"
     inkscape:groupmode="layer"
     id="layer1"
     transform="translate(-47.079665,-84.165893)">
    <path
       id="path26"
       style="fill:#000000;stroke-width:0.545688"
       d="m 127.71431,91.42065 c -2.79,0.0078 -4.86857,0.730536 -6.69322,2.265898 -1.95295,1.64326 -2.62679,3.72701 -3.33595,10.319072 -0.29057,2.70113 -0.77176,5.79639 -1.07007,6.87864 l -0.54249,1.96748 -4.44651,0.3709 c -3.10204,0.25868 -4.90606,0.69843 -5.96528,1.45269 -1.91881,1.36631 -2.92269,4.1957 -2.18062,6.14752 0.36426,0.95785 0.35282,1.964 -0.0363,3.08016 -0.56071,1.60841 -0.6792,1.65731 -3.998864,1.65731 -3.86786,0 -8.420192,1.56358 -10.745387,3.69085 -1.654567,1.51371 -2.788766,5.26937 -2.311724,7.65459 0.414282,2.07142 -0.57511,3.92213 -2.124125,3.97328 -1.912696,0.0631 -4.277521,1.7281 -5.385481,3.79212 -0.839108,1.56329 -0.973333,2.71872 -0.76418,6.55253 0.139625,2.55983 0.63304,6.11002 1.096702,7.8901 0.463636,1.78007 0.843051,3.79051 0.843051,4.46676 0,0.67626 0.469987,3.26397 1.044486,5.75105 1.33411,5.77574 3.666736,18.54973 4.394279,24.06467 0.309368,2.34505 0.814028,4.73487 1.12229,5.31088 1.381862,2.58204 2.11707,14.49925 2.160385,35.03599 0.01445,7.12807 0.181495,12.96013 0.37089,12.96013 1.037913,0 5.090964,-4.07612 5.563474,-5.59544 0.30285,-0.97401 0.46127,-4.7181 0.35277,-8.31964 -0.10841,-3.60154 -0.205,-8.26719 -0.21529,-10.36808 -0.0104,-2.10091 -0.25378,-5.04739 -0.54036,-6.54719 -0.31222,-1.63384 -0.3218,-2.96605 -0.0255,-3.32318 0.63901,-0.76997 -0.30388,-10.96005 -1.10309,-11.92308 -0.32625,-0.39311 -0.970888,-3.7536 -1.433509,-7.46804 -0.462633,-3.71455 -1.317763,-8.21426 -1.900317,-9.99827 -0.582568,-1.78402 -1.064868,-4.23964 -1.068993,-5.45688 -0.0039,-1.21726 -0.51679,-4.0543 -1.137205,-6.30527 -1.954734,-7.09192 -1.236849,-8.84328 3.181404,-7.75688 8.90368,2.18932 19.720704,3.32674 34.069324,3.5832 8.00208,0.14294 16.22832,0.0299 18.28058,-0.25153 2.05223,-0.28152 6.80087,-0.8612 10.55246,-1.28749 12.07089,-1.37164 18.91882,-2.8159 26.73877,-5.63806 4.54266,-1.63942 6.28218,-1.905 6.97777,-1.06686 1.14367,1.37802 1.89893,8.34642 1.86303,17.19238 -0.0206,4.87709 0.086,8.86746 0.23553,8.86746 0.65755,0 2.77837,-1.3385 4.15662,-2.624 1.47028,-1.37132 1.50158,-1.5279 1.49746,-7.71 -0.001,-3.47034 -0.24725,-7.78288 -0.54463,-9.58365 -0.29741,-1.80079 -0.7925,-5.9753 -1.10097,-9.27673 -0.72294,-7.73701 -1.24907,-9.3024 -4.1225,-12.27799 -1.79227,-1.85597 -2.5182,-3.14246 -2.97253,-5.26717 -0.33063,-1.54615 -1.28499,-3.88935 -2.12093,-5.20749 -1.34102,-2.11457 -1.91337,-2.50581 -4.86858,-3.32743 -1.84215,-0.51217 -4.41522,-0.9315 -5.718,-0.9315 -3.41888,0 -4.56866,-1.43435 -5.26611,-6.56853 -0.74653,-5.49538 -1.61725,-8.60982 -3.04499,-10.89352 -1.64131,-2.62526 -6.31006,-6.88487 -8.81736,-8.04466 -1.14111,-0.5278 -2.19672,-1.11013 -2.34688,-1.29493 -0.76935,-0.9473 -5.38872,-2.816052 -6.81897,-2.758302 -2.28062,0.092 -4.4962,-0.86092 -7.36894,-3.16861 -4.07796,-3.27584 -5.41923,-3.916419 -9.32148,-4.457182 -1.10495,-0.153031 -2.11393,-0.230562 -3.04392,-0.228076 z m 0.73646,5.869338 c 1.67349,0.0315 3.94496,0.55996 4.88454,1.247 0.8961,0.65525 0.92821,0.97927 0.32297,3.242182 -1.12649,4.21186 -0.8857,6.18908 0.98053,8.05529 1.45157,1.45159 1.89748,1.6072 3.6642,1.27576 3.04598,-0.57141 5.00894,-1.78847 6.23387,-3.86459 0.60879,-1.03181 1.32819,-1.90648 1.59868,-1.94401 0.27048,-0.0375 0.79937,-0.10933 1.17453,-0.15985 1.33073,-0.17882 8.36219,3.70436 11.05019,6.10276 3.24617,2.89635 3.92294,4.57946 4.38363,10.90524 0.19119,2.62594 0.57723,5.5299 0.85798,6.45342 0.7224,2.37646 3.11809,3.9221 7.12591,4.59678 9.74752,1.64097 9.99425,1.81407 9.44512,6.62183 -0.37976,3.32487 0.28332,5.3138 2.41403,7.24209 1.395,1.26254 1.49192,3.67207 0.19285,4.81422 -1.50632,1.3244 -8.43769,4.16354 -11.09284,4.5435 -1.32716,0.18996 -3.23917,0.71541 -4.24933,1.16812 -1.01017,0.45269 -2.48354,0.69452 -3.27414,0.53715 -0.8161,-0.16252 -1.89583,0.0484 -2.49717,0.4892 -0.73537,0.53898 -2.60194,0.77696 -6.10383,0.77696 -2.77432,0 -5.63522,0.22488 -6.35855,0.49989 -0.7233,0.27499 -4.11645,0.63719 -7.53945,0.80468 -15.50497,0.7591 -21.5274,0.94389 -21.80092,0.67037 -0.16233,-0.16232 -2.98495,-0.43952 -6.27328,-0.6171 -3.28831,-0.17758 -6.47028,-0.4794 -7.07053,-0.67038 -0.60027,-0.19098 -2.07363,-0.39904 -3.27414,-0.46257 -1.20052,-0.0635 -3.656084,-0.46617 -5.456884,-0.89419 -8.90854,-2.11739 -11.870159,-3.71298 -12.601996,-6.78807 -0.202528,-0.85092 -0.717027,-1.94853 -1.142529,-2.43963 -0.686089,-0.79183 -0.569461,-1.0126 1.028503,-1.95465 0.99102,-0.58426 2.907281,-1.39202 4.257856,-1.79483 4.943296,-1.47434 6.530076,-4.04616 4.572276,-7.4105 -2.660284,-4.57157 -1.08421,-6.51566 6.158184,-7.5938 6.75046,-1.00491 8.596,-1.73875 10.58446,-4.2131 1.59144,-1.98034 1.6766,-2.29625 1.16704,-4.3037 -0.49333,-1.9436 -0.42896,-2.24467 0.62563,-2.92881 0.64641,-0.41937 2.86292,-1.05378 4.92611,-1.41007 5.191,-0.89639 5.56316,-1.39141 5.95141,-7.9306 0.37558,-6.3252 2.06457,-11.990592 3.73244,-12.519942 0.35372,-0.11219 0.84476,-0.15654 1.40258,-0.14602 z M 95.784046,174.67232 c -0.7472,0 -0.50863,2.12473 0.44764,3.9829 0.4943,0.96053 1.72192,2.7115 2.72845,3.89122 2.182084,2.55759 4.558404,7.14873 4.558404,8.80776 0,0.65365 0.38459,2.26354 0.85477,3.57681 1.28412,3.58679 2.1988,13.1578 1.79269,18.75808 -0.19595,2.70116 -0.66213,8.87663 -1.03598,13.72321 -0.37378,4.84658 -0.51196,9.24895 -0.30693,9.78296 0.33511,0.87331 0.45636,0.88655 1.21074,0.13221 1.11954,-1.11952 1.82094,-4.34321 1.83743,-8.44327 0.006,-1.84712 0.35008,-6.63559 0.76311,-10.64091 1.18863,-11.52679 0.77611,-16.81617 -1.90244,-24.38442 -0.56713,-1.60238 -1.03062,-3.57852 -1.03062,-4.39216 0,-0.87505 -0.95728,-2.8062 -2.34371,-4.72681 -1.28907,-1.7858 -2.92513,-4.22864 -3.635434,-5.42918 -1.49357,-2.52431 -3.28826,-4.63835 -3.93812,-4.63835 z m 115.139284,5.10945 c -0.61306,0.0144 -1.33846,0.16685 -2.45026,0.41565 -3.39188,0.75906 -5.50928,2.25568 -7.30925,5.16806 -1.03742,1.67848 -1.38083,1.87374 -2.76894,1.56885 -1.18601,-0.26042 -2.23439,0.0371 -4.16621,1.18412 -1.4198,0.84296 -3.31065,1.93229 -4.20138,2.42042 -0.89072,0.48817 -2.07975,1.50486 -2.64316,2.25949 -1.22865,1.64561 -0.9171,2.426 3.25599,8.13844 1.45403,1.99035 3.74929,5.17023 5.09985,7.06625 1.3506,1.89602 3.92895,5.39353 5.72973,7.7718 1.80077,2.37827 3.88802,5.21883 4.63837,6.31272 2.01131,2.93239 4.43165,6.16796 5.65831,7.56292 0.59383,0.67529 1.46685,1.22559 1.93975,1.22352 0.47291,-0.003 2.57905,-1.09126 4.67994,-2.42147 7.23108,-4.5785 7.26978,-4.64404 4.75667,-8.02975 -0.81542,-1.0985 -2.26569,-3.06295 -3.22299,-4.36549 -0.95731,-1.30255 -2.51693,-3.35047 -3.46599,-4.55098 -5.27455,-6.67205 -11.43581,-15.33519 -11.42962,-16.0701 0.013,-1.5195 0.65363,-3.30186 1.18624,-3.30186 0.68121,0 1.63465,0.97927 2.92243,3.00129 0.57344,0.90038 2.51864,3.59116 4.32288,5.97914 3.88528,5.14232 4.86853,6.47454 7.33802,9.95241 5.07662,7.14957 7.823,10.53436 8.54771,10.53436 0.43932,0 1.77113,-0.6139 2.95971,-1.3642 1.18859,-0.75032 2.31774,-1.36422 2.50996,-1.36422 0.9065,0 5.13536,-3.11681 5.43877,-4.00848 0.38368,-1.12753 -2.98329,-6.20851 -10.24872,-15.46473 -0.98599,-1.25616 -2.89771,-3.78369 -4.24828,-5.61677 -1.35059,-1.83308 -3.60422,-4.65623 -5.00817,-6.2733 -1.40398,-1.61704 -2.79869,-3.39976 -3.09935,-3.96157 -0.30066,-0.56178 -1.79457,-1.69999 -3.31996,-2.53021 -1.66955,-0.90867 -2.38026,-1.26165 -3.40205,-1.23631 z m -40.82754,5.30447 c -0.18665,0.0104 -0.38628,0.11883 -0.59686,0.32933 -0.69661,0.69661 -0.97496,9.95029 -0.32932,10.94788 1.43973,2.22451 2.71541,-1.0211 2.45987,-6.25838 -0.15963,-3.27273 -0.72499,-5.0642 -1.53369,-5.01883 z m 6.07506,15.94649 c -1.19509,0.0353 -2.51634,0.48776 -5.55389,1.61468 -4.72982,1.75477 -5.37335,2.17312 -7.66949,4.98154 -2.51061,3.07075 -3.76866,5.99208 -3.76866,8.75128 0,1.72899 3.15792,8.44716 5.31621,11.30919 8.56038,11.35157 11.30409,14.45947 14.38403,16.29393 3.15651,1.88005 3.30536,1.91093 7.44885,1.55714 5.69136,-0.48598 9.1917,-1.98826 12.8077,-5.49528 3.0175,-2.92657 4.78472,-6.25766 4.79503,-9.04115 0.0104,-2.89583 -2.33382,-8.27214 -4.76305,-10.92124 -1.0377,-1.13168 -2.15813,-2.54608 -2.82543,-3.53739 -0.0772,0.0708 -0.16809,0.13901 -0.28989,0.19821 -0.80807,0.3931 -1.60521,0.81324 -2.42363,1.18516 -0.0145,0.0681 -0.11597,0.0996 -0.21955,0.13221 -0.0522,0.0363 -0.0992,0.0579 -0.13756,0.0532 -0.001,10e-4 -0.004,10e-4 -0.007,0.003 -0.12234,0.0854 0.0243,0.0275 0.0165,0.048 -0.0371,0.0949 -0.24468,0.28265 -0.28882,0.32719 -0.12871,0.0945 -0.22907,0.22202 -0.35385,0.3208 -0.0786,0.0621 -0.16706,0.11037 -0.24727,0.17057 -0.004,0.004 0.0104,0.006 0.0144,0.004 0.0144,-0.008 0.0445,-0.0463 0.0384,-0.032 -0.0207,0.0431 -0.0519,0.0798 -0.0777,0.11948 0.0707,-0.0359 0.0748,-0.0445 -0.0437,0.16624 -0.28157,0.50119 -0.26772,0.34929 -0.94216,0.53823 0.0539,0.0186 0.18478,0.004 0.16086,0.0565 -0.0324,0.0703 -0.14911,0.0429 -0.22062,0.0724 -0.0895,0.0374 -0.28352,0.15777 -0.37942,0.18768 -0.0842,0.026 -0.1714,0.0394 -0.25791,0.0565 l -0.001,10e-4 c 0.0165,-0.004 0.0305,-0.007 0.0458,-0.008 -0.0518,0.0276 -0.0623,0.0297 -0.0703,0.0276 -0.0165,0.0144 -0.0367,0.0258 -0.0544,0.0394 -0.0186,0.0216 -0.032,0.0357 -0.0448,0.0501 1.1e-4,5.6e-4 0.001,0.001 0.001,0.003 0.006,-0.004 0.003,-10e-4 0.0374,-0.0374 -0.013,0.0145 -0.025,0.0271 -0.0374,0.0405 0.029,0.1984 -0.0452,0.44912 -0.29205,0.70554 -0.24161,0.25087 -0.3275,0.37231 -0.41778,0.38903 -0.001,0.003 -0.001,0.004 -0.004,0.006 -0.003,-0.003 -0.004,-0.004 -0.007,-0.006 -0.0483,0.004 -0.1157,-0.0289 -0.20675,-0.0896 -0.0405,0.0208 -0.0755,0.0458 -0.11714,0.066 -0.001,0.003 -0.004,0.004 -0.007,0.007 0.0338,0.0491 0.0497,0.0811 0.0916,0.13756 0.0186,0.025 -0.0638,0.013 -0.0938,0.0225 -0.0953,0.0349 -0.18933,0.073 -0.28349,0.11076 -0.025,0.0186 -0.0536,0.0454 -0.0747,0.0575 -0.0505,0.0472 -0.16417,0.14148 -0.18975,0.16211 -0.0293,0.0266 -0.0645,0.0476 -0.0875,0.0798 -0.0117,0.0165 0.0617,-0.0454 0.0511,-0.0286 -0.19304,0.3067 -0.49841,0.45147 -0.82278,0.58511 -0.0385,0.0437 -0.10152,0.0836 -0.16087,0.12351 -0.14479,0.44116 -0.31028,0.87502 -0.46683,1.31201 0.0784,0.0558 0.0808,0.15468 -0.0554,0.32506 -0.0215,0.0268 -0.0306,0.0416 -0.0501,0.0673 -0.004,0.0717 -0.0144,0.13282 -0.0565,0.1066 -0.007,-0.004 -0.008,-0.007 -0.0145,-0.0104 -0.24972,0.3408 -0.35022,0.51157 -0.61072,0.2526 0.30438,1.23414 1.20418,3.27919 2.16252,4.86644 1.08724,1.80077 1.97758,3.81238 1.97811,4.46996 0.001,1.53549 -0.5688,1.86668 -1.91949,1.11374 -1.28158,-0.71434 -1.53595,-0.97467 -4.29944,-4.41133 -2.58482,-3.21449 -2.7683,-5.44804 -0.60218,-7.31138 0.67275,-0.57871 1.14932,-0.9398 1.50172,-1.07006 0.25981,-0.26398 0.0493,-0.0565 0.67571,-0.61709 0.003,-0.003 0.004,-0.004 0.008,-0.008 0.0272,-0.0925 0.0629,-0.15839 0.12885,-0.1322 0.0797,-0.0607 0.19346,-0.21824 0.25049,-0.14066 0.0165,0.0226 0.0258,0.0498 0.0374,0.0757 0.0699,-0.0705 0.14087,-0.13983 0.20996,-0.21104 0.0906,-0.11779 0.13056,-0.15819 0.12248,-0.12247 0.0569,-0.0571 0.1114,-0.11701 0.17056,-0.17161 0.22569,-0.20865 0.66753,-0.61893 1.0221,-0.73752 0.13778,-0.2501 0.31486,-0.49482 0.46362,-0.57446 0.0733,-0.0392 0.15324,-0.0617 0.23448,-0.0811 0.0625,-0.0427 0.12351,-0.0881 0.1918,-0.12052 0.33911,-0.16087 0.41676,-0.18583 0.41248,-0.17262 0.0219,-0.0458 0.0424,-0.0945 0.0618,-0.13324 0.13468,-0.27049 0.42274,-0.34749 0.66398,-0.46896 0.0782,-0.0394 0.15407,-0.0823 0.23129,-0.12351 -0.0241,-0.05 -0.0465,-0.0629 0.003,-0.11609 0.31279,-0.34395 0.12833,-0.15716 0.45403,-0.31548 0.0793,-0.0385 0.10269,-0.0816 0.1555,-0.14705 0.27151,-0.3343 -0.0303,0.0236 0.38049,-0.39754 0.0243,-0.0247 0.0763,-0.11466 0.0618,-0.0832 -10e-4,0.004 -0.0211,0.0406 -0.0265,0.0501 0.004,-0.007 0.003,-0.003 0.008,-0.008 0.0186,-0.0207 0.0374,-0.042 0.0596,-0.0586 0.061,-0.0454 0.13468,-0.0854 0.20562,-0.1161 0.0445,-0.0307 0.0899,-0.0609 0.13633,-0.0885 0.0211,-0.0145 0.0454,-0.0165 0.066,-0.032 0.0207,-0.0144 0.0381,-0.0314 0.0565,-0.048 -0.0186,-0.0145 -0.0325,-0.032 -0.0384,-0.0555 -0.0215,-0.0868 0.0896,-0.15529 0.13118,-0.23448 0.0165,-0.0317 0.0465,-0.13384 0.0448,-0.098 -0.007,0.15674 -0.0211,0.22502 -0.032,0.2718 0.0104,-0.0355 0.0165,-0.072 0.0299,-0.1066 l 0.003,0.003 c 0.007,-0.0165 0.0145,-0.0226 0.0225,-0.0363 -0.0144,-0.13219 -0.0186,-0.26347 0.0236,-0.38688 0.0638,-0.18397 0.29017,-0.26049 0.43165,-0.39435 0.0967,-0.0916 0.18439,-0.19222 0.28243,-0.28242 0.0747,-0.0688 0.16315,-0.12143 0.23448,-0.19388 0.007,-0.006 -0.0338,-0.006 -0.0276,-0.0144 0.0596,-0.0931 0.13653,-0.17408 0.20458,-0.26111 0.0272,-0.0441 0.0484,-0.0928 0.0821,-0.13221 0.10373,-0.1213 0.18954,-0.20087 0.3336,-0.259 0.0384,-0.0144 0.22743,-0.0334 0.27817,-0.11401 0.86964,-0.35071 -0.36394,0.13489 0.41993,-0.1386 0.0441,-0.0145 0.0832,-0.0454 0.12586,-0.0639 0.12039,-0.0536 0.17242,-0.0701 0.28136,-0.10868 0.11297,-0.0402 0.2142,-0.0575 0.31015,-0.066 -2.78879,-4.18937 -8.60136,-10.01872 -11.60868,-11.47119 -1.21235,-0.58557 -3.4419,-1.34891 -4.95384,-1.69676 -0.97027,-0.22324 -1.64156,-0.35259 -2.35861,-0.33146 z m -1.97811,10.74644 c 1.05307,0 3.059,3.2152 2.86698,4.59572 -0.21432,1.54055 -1.14117,1.59793 -2.49717,0.15448 -1.41581,-1.50707 -1.66834,-4.75027 -0.36981,-4.75027 z m -22.91681,3.81983 c -0.80245,0 -8.90437,4.15234 -10.10487,5.17872 -0.45016,0.3849 -2.08401,1.33355 -3.63008,2.10815 -3.67826,1.8428 -5.22859,3.76567 -4.52645,5.6125 0.86773,2.28228 3.31309,5.10836 4.41985,5.10836 0.57463,0 2.25601,-0.6139 3.73668,-1.36422 1.48072,-0.75034 3.02904,-1.36423 3.44149,-1.36423 1.11556,0 3.3256,6.26361 5.58264,15.82499 2.45493,10.3996 2.82286,11.29968 6.0239,14.72187 1.40962,1.50699 2.8752,2.74016 3.25707,2.74016 0.38191,0 3.35648,-1.61705 6.61011,-3.59281 3.25359,-1.97574 6.65292,-3.90354 7.5533,-4.28449 0.90037,-0.38102 2.45091,-1.4564 3.44573,-2.38953 l 1.80865,-1.69676 -1.49318,-2.61227 c -0.82139,-1.43714 -1.72703,-2.92029 -2.01223,-3.29544 -0.62158,-0.81774 -3.454,-0.91055 -3.93705,-0.12885 -0.44903,0.72654 -4.37437,2.72098 -5.35564,2.72098 -0.42137,0 -1.18829,-1.10574 -1.70422,-2.45666 -0.82262,-2.15403 -1.48805,-4.46126 -4.09053,-14.18685 -0.32124,-1.20053 -0.83955,-3.56432 -1.15107,-5.25227 -0.4619,-2.50267 -1.17659,-3.83676 -3.8763,-7.23035 -1.82084,-2.28877 -3.62017,-4.16088 -3.9978,-4.16088 z m 40.0346,2.48118 c -0.004,0.003 -0.008,0.004 -0.013,0.007 0.003,-5.5e-4 0.004,-0.003 0.008,-0.003 z m -1.78097,1.12441 c -0.0165,0.004 -0.0265,0.0325 -0.0353,0.0629 0.013,-0.007 -0.0738,0.0441 0.0832,-0.0458 -0.0186,-0.0165 -0.035,-0.0208 -0.0479,-0.0165 z m -0.71834,0.39114 c -0.0212,0.003 -0.0717,0.0454 -0.0532,0.035 0.0186,-0.013 0.0381,-0.0226 0.0565,-0.035 -10e-4,1.5e-4 -0.003,-1.4e-4 -0.004,0 z m -2.38632,3.34341 c -0.008,0.008 -0.041,0.041 -0.0532,0.0532 0.007,0.0207 0.0104,0.0359 0.0165,0.0544 0.004,-0.001 0.004,2.1e-4 0.008,-0.001 0.007,-0.0275 0.0225,-0.0854 0.0276,-0.10659 z m 0.0575,0.44766 c -0.003,0.001 -0.0165,0.0144 -0.0165,0.0144 0.008,2.1e-4 0.0145,5.3e-4 0.0225,0 -0.001,-0.004 -0.004,-0.008 -0.007,-0.0144 z m -61.9485,9.50798 c -6.56331,-0.0907 -14.44248,3.70723 -16.16815,8.24607 -0.28311,0.74467 -0.77147,3.19857 -1.08499,5.45264 -0.54876,3.94591 -0.51497,4.20159 0.90913,6.87867 0.81349,1.52924 2.26154,3.64013 3.21764,4.69058 0.95617,1.05046 2.1884,2.64658 2.73804,3.54697 2.54276,4.16544 11.38312,13.72544 13.65608,14.7677 1.02996,0.47238 3.1548,0.70288 5.72974,0.62244 3.31693,-0.10373 4.76495,-0.45467 7.63963,-1.85237 8.69134,-4.2258 12.8854,-12.34727 9.60286,-18.595 -0.43093,-0.82018 -1.72465,-2.50289 -2.87446,-3.73881 -2.4907,-2.6773 -5.29387,-6.12049 -7.5661,-9.29376 -4.3947,-6.13734 -8.6106,-9.49977 -13.08907,-10.4395 -0.86214,-0.18088 -1.77271,-0.27268 -2.71035,-0.28563 z m -3.15368,10.20822 c 0.0325,-0.004 0.0657,0.004 0.10022,0.0256 0.27535,0.17016 1.85733,2.08753 3.51498,4.26106 1.65762,2.17353 5.23828,6.87547 7.95727,10.44909 2.71901,3.57362 4.94422,6.95008 4.94422,7.50322 0,0.55315 -0.33869,1.0061 -0.75244,1.0061 -0.80006,0 -4.95751,-4.61018 -6.67616,-7.40302 -0.56631,-0.92027 -1.95027,-2.76197 -3.07589,-4.09266 -4.50563,-5.32647 -6.41186,-8.36301 -6.41186,-10.21356 0,-0.87607 0.172,-1.50598 0.39968,-1.53581 z m -22.980734,3.05457 c -0.39047,0 -1.37362,1.21744 -2.18383,2.70607 -1.38079,2.53694 -1.55677,2.66938 -2.80732,2.09962 -1.166207,-0.53136 -1.8331,-0.30457 -5.298077,1.80121 -2.180272,1.32502 -4.622563,2.74592 -5.428131,3.15796 -0.805555,0.41203 -1.733321,1.39112 -2.061249,2.17635 -0.362887,0.86896 -1.45627,1.79029 -2.793464,2.35434 -3.378844,1.42525 -5.078118,0.1485 -2.68475,-2.01755 0.600281,-0.54322 1.091392,-1.17558 1.091392,-1.40472 0,-1.01229 -4.094893,-4.8707 -5.169131,-4.8707 -1.343052,0 -7.313105,3.42049 -8.348389,4.78331 -0.381315,0.50194 -0.952716,1.87784 -1.270453,3.05779 -0.483679,1.79627 -0.387901,2.66667 0.589388,5.34709 0.641994,1.76071 1.124801,3.62693 1.072207,4.14703 -0.19697,1.94989 0.07549,2.64553 1.803317,4.60319 1.140797,1.29253 2.346071,2.06977 3.378596,2.17743 1.20379,0.12546 2.295442,1.00459 4.365502,3.51712 6.892575,8.36573 9.008331,11.03874 10.955347,13.8394 1.147578,1.65069 3.405459,4.65881 5.017779,6.6847 1.612321,2.02585 3.305139,3.68339 3.76228,3.68339 1.721646,0 10.03663,-5.26152 10.03663,-6.35109 0,-0.40839 0.25169,-0.74288 0.55954,-0.74288 0.78096,0 -0.6847,-2.44937 -3.591754,-6.00256 -1.35054,-1.65069 -3.05205,-3.90103 -3.78143,-5.00073 -0.72941,-1.09971 -1.76655,-2.32751 -2.30428,-2.72845 -0.53773,-0.40093 -1.307622,-1.37053 -1.711662,-2.15505 -0.404014,-0.78451 -1.263477,-2.01297 -1.90991,-2.7295 -0.646445,-0.71652 -2.464768,-2.99216 -4.040451,-5.0572 -2.811139,-3.68422 -3.443021,-5.37171 -2.280801,-6.09 0.321147,-0.1984 0.771755,-0.87016 1.001836,-1.49211 0.397766,-1.07524 0.496368,-1.04164 2.007978,0.67786 0.874353,0.99464 1.937046,2.16402 2.360739,2.59946 0.423693,0.43545 1.405927,1.72269 2.182745,2.85954 0.776844,1.13685 2.148896,2.99984 3.049266,4.14063 0.90038,1.14083 2.62247,3.32003 3.82729,4.84194 1.20479,1.52189 3.572434,4.60853 5.260784,6.85949 1.68834,2.25097 3.69587,4.67465 4.46142,5.38548 l 1.39195,1.29174 1.95253,-1.20648 c 1.07375,-0.66361 2.97197,-1.74639 4.21842,-2.40553 1.24644,-0.65913 2.74046,-1.83287 3.31997,-2.60906 1.17674,-1.57613 0.90626,-2.50508 -1.64132,-5.6402 -4.14815,-5.10479 -7.4159,-9.47556 -8.15868,-10.91379 -0.46503,-0.9004 -1.29201,-2.1282 -1.83851,-2.72845 -0.5465,-0.60025 -1.31141,-2.28088 -1.69995,-3.73455 -0.64852,-2.42645 -0.62182,-2.7046 0.32613,-3.39775 3.97574,-2.90715 5.06636,-4.774 3.09081,-5.29064 -0.57285,-0.14973 -1.79784,-1.31619 -2.72204,-2.59202 -2.46649,-3.40489 -6.541484,-7.63113 -7.358264,-7.63113 z m 102.414704,0.0374 c -0.39068,0.008 -0.82615,0.26519 -1.25444,0.78123 -0.37364,0.4502 -1.14705,0.81854 -1.71806,0.81854 -0.7307,0 -1.14864,0.52527 -1.41217,1.77348 -0.20564,0.97542 -0.30651,2.00743 -0.22277,2.29361 0.0837,0.28619 0.23908,9.24912 0.34427,19.91764 0.15508,15.73979 0.35321,19.91202 1.05087,22.12599 2.11036,6.69704 2.85874,23.45225 1.3429,30.07043 -1.32321,5.77718 -5.6019,13.93715 -9.06781,17.29366 -4.84614,4.69316 -8.36596,5.68851 -22.48197,6.36069 -5.83532,0.2778 -10.82871,0.36938 -11.09709,0.20355 -0.26838,-0.16581 -3.59823,-0.27074 -7.39878,-0.2334 -7.88824,0.0773 -15.68809,-1.25991 -17.70398,-3.03538 -0.66608,-0.58665 -1.8794,-1.35062 -2.69646,-1.69783 -0.84796,-0.36031 -1.6352,-1.2251 -1.83319,-2.01435 -0.19098,-0.76051 -0.52603,-1.38235 -0.74498,-1.38235 -0.21897,0 -0.43111,-0.89297 -0.47215,-1.98452 -0.041,-1.09152 -0.4492,-2.55627 -0.907,-3.25495 -0.45778,-0.69865 -0.83238,-1.6639 -0.83238,-2.14439 0,-0.48048 -0.29014,-1.40995 -0.64481,-2.06552 -0.3547,-0.65554 -0.7126,-1.8023 -0.79509,-2.54831 -0.0825,-0.74601 -0.40634,-1.44105 -0.71942,-1.54541 -0.31304,-0.10438 -0.57071,-0.72248 -0.57234,-1.37275 -0.001,-0.65029 -0.34731,-1.84124 -0.76737,-2.64638 -0.42006,-0.80514 -0.92825,-2.21414 -1.12975,-3.13131 -0.20149,-0.91717 -0.59372,-1.80695 -0.87074,-1.97814 -0.27705,-0.17118 -0.50307,-0.79144 -0.50307,-1.37806 0,-0.58663 -0.21494,-1.49323 -0.47748,-2.01437 -1.90867,-3.78861 -2.79666,-5.76258 -2.79666,-6.21679 0,-0.60847 -2.54108,-6.09445 -3.0663,-6.61969 -0.53105,-0.53104 -2.39058,0.6347 -2.39058,1.49853 0,0.41658 0.98137,2.576 2.18062,4.79927 1.19924,2.22332 2.69851,5.49551 3.33276,7.27197 0.63422,1.77644 1.87317,5.19492 2.75295,7.59594 3.58513,9.78445 5.92157,17.19823 5.92157,18.79214 0,0.73709 -0.35404,1.12551 -1.02528,1.12551 -1.46956,0 -4.89506,-1.51803 -6.22746,-2.75938 -0.62626,-0.58344 -1.33811,-1.06047 -1.58165,-1.06047 -0.24357,0 -0.44231,-0.39139 -0.44231,-0.86969 0,-0.47828 -0.49113,-0.99836 -1.09138,-1.15531 -1.198,-0.31329 -1.49713,-1.23874 -0.40928,-1.26616 0.37519,-0.0104 -0.054,-0.66438 -0.95387,-1.45484 -0.94626,-0.83126 -1.56472,-1.85947 -1.46655,-2.43853 0.10438,-0.61638 -0.15819,-1.00079 -0.68316,-1.00079 -0.55115,0 -0.85266,-0.49378 -0.85266,-1.39621 0,-0.76803 -0.22124,-1.26035 -0.49132,-1.0935 -0.27011,0.16686 -0.51668,-0.61687 -0.54783,-1.7415 -0.15818,-5.72036 -0.3799,-7.0862 -1.29919,-8.00628 -0.53537,-0.53587 -0.84595,-1.37794 -0.69066,-1.87155 0.52094,-1.65665 1.91665,-10.15805 1.92698,-11.73446 0.008,-1.42195 -0.11922,-1.52728 -1.45696,-1.19155 -2.09205,0.52508 -4.52777,2.38817 -5.1041,3.90402 -0.68392,1.79897 -0.76605,10.18991 -0.11205,11.45309 0.29533,0.5703 0.70432,2.57417 0.90912,4.45289 0.2048,1.87873 0.74362,4.57989 1.19689,6.0026 0.9649,3.0283 2.94685,18.26908 2.56538,19.7279 -0.33255,1.27166 1.17275,5.74314 2.61655,7.77074 1.11708,1.56885 9.06541,7.79255 14.74851,11.54901 3.61836,2.39169 6.3645,2.84159 22.02687,3.60454 5.40233,0.26325 11.29576,0.40782 13.09653,0.32079 8.52351,-0.41152 23.39468,-3.12725 30.55857,-5.57946 3.00129,-1.02734 6.26465,-2.11043 7.25277,-2.40763 4.53203,-1.36316 10.126,-5.6564 11.06084,-8.48909 0.64655,-1.95905 0.62274,-2.97846 -0.37621,-16.56569 -0.24524,-3.3358 -0.0992,-5.73969 0.51264,-8.4582 1.39795,-6.21213 2.11331,-14.42684 1.44737,-16.62113 -0.57316,-1.88846 -1.46699,-6.21048 -2.70713,-13.09654 -0.35136,-1.95085 -1.01978,-5.02034 -1.48572,-6.82111 -0.59643,-2.30499 -0.90599,-6.74688 -1.04769,-15.00644 -0.34762,-20.27195 -0.66621,-29.69837 -1.04663,-30.96784 -0.23876,-0.79683 -0.66687,-1.20024 -1.16917,-1.19051 z m -13.29475,5.04764 c -0.22724,0.008 -0.42786,0.0748 -0.56808,0.21742 -0.6466,0.6573 -4.69935,21.4448 -5.61569,28.8032 -0.55063,4.42101 -0.75458,9.91642 -0.62671,16.91637 0.10439,5.70246 0.21352,10.55225 0.24301,10.77735 0.0907,0.69334 2.67734,0.45166 2.92029,-0.27286 0.12586,-0.37513 0.14005,-5.47054 0.031,-11.32304 -0.2015,-10.83607 0.44616,-18.30794 2.27123,-26.19307 0.45154,-1.95084 1.06236,-4.89757 1.35676,-6.54827 0.29445,-1.65071 0.90014,-4.66745 1.3461,-6.70387 0.44602,-2.03641 0.67994,-4.04395 0.52011,-4.46035 -0.27237,-0.70977 -1.19624,-1.23478 -1.87795,-1.21288 z m 10.96813,86.38403 c 0.399,-0.0229 0.56007,0.61305 0.88247,1.72661 0.35677,1.23223 0.82167,4.45879 1.03383,7.17069 0.47097,6.02068 0.0985,6.75993 -4.77158,9.4611 -6.99061,3.87715 -18.57253,7.1306 -32.36086,9.09018 -6.22607,0.88493 -10.36084,1.23187 -10.69529,0.89742 -0.17241,-0.17242 -4.46711,-0.42649 -9.54316,-0.56488 -9.63123,-0.26263 -15.64505,-0.98434 -15.95501,-1.91418 -0.0999,-0.30035 -1.2146,-1.00301 -2.47691,-1.56139 -1.26232,-0.55839 -3.02276,-1.69085 -3.91254,-2.51743 -0.88979,-0.82652 -2.53874,-1.97392 -3.66422,-2.54937 -1.12551,-0.5755 -2.04635,-1.30188 -2.04635,-1.61363 0,-0.31179 -0.21032,-0.43677 -0.46681,-0.27817 -0.70479,0.43564 -2.76972,-2.00842 -3.32102,-3.93067 -0.33826,-1.17945 -0.24136,-2.49839 0.31548,-4.31648 0.44097,-1.43994 0.70635,-3.30417 0.59044,-4.14277 -0.3012,-2.17904 0.39939,-2.30481 2.74019,-0.49345 2.6859,2.07839 8.4266,4.12196 18.0397,6.42249 l 7.8027,1.86727 18.11753,0.11506 c 18.09589,0.11531 18.12306,0.11401 23.47316,-1.33972 7.11742,-1.93389 8.50364,-2.7868 12.65206,-7.79101 2.14704,-2.58985 3.05316,-3.70817 3.56619,-3.73774 z" />
  </g>
</svg>
