<?xml version="1.0" encoding="UTF-8" standalone="no"?>
<svg
   xmlns:dc="http://purl.org/dc/elements/1.1/"
   xmlns:cc="http://creativecommons.org/ns#"
   xmlns:rdf="http://www.w3.org/1999/02/22-rdf-syntax-ns#"
   xmlns:svg="http://www.w3.org/2000/svg"
   xmlns="http://www.w3.org/2000/svg"
   xmlns:sodipodi="http://sodipodi.sourceforge.net/DTD/sodipodi-0.dtd"
   xmlns:inkscape="http://www.inkscape.org/namespaces/inkscape"
   sodipodi:docname="15.svg"
   inkscape:version="1.0 (4035a4fb49, 2020-05-01)"
   id="svg8"
   version="1.1"
   viewBox="0 0 210 297"
   height="297mm"
   width="210mm">
  <defs
     id="defs2" />
  <sodipodi:namedview
     inkscape:window-maximized="1"
     inkscape:window-y="-9"
     inkscape:window-x="-9"
     inkscape:window-height="1001"
     inkscape:window-width="1920"
     showgrid="false"
     inkscape:document-rotation="0"
     inkscape:current-layer="layer1"
     inkscape:document-units="mm"
     inkscape:cy="725.3621"
     inkscape:cx="135.26978"
     inkscape:zoom="0.7"
     inkscape:pageshadow="2"
     inkscape:pageopacity="0.0"
     borderopacity="1.0"
     bordercolor="#666666"
     pagecolor="#ffffff"
     id="base" />
  <metadata
     id="metadata5">
    <rdf:RDF>
      <cc:Work
         rdf:about="">
        <dc:format>image/svg+xml</dc:format>
        <dc:type
           rdf:resource="http://purl.org/dc/dcmitype/StillImage" />
        <dc:title></dc:title>
      </cc:Work>
    </rdf:RDF>
  </metadata>
  <g
     id="layer1"
     inkscape:groupmode="layer"
     inkscape:label="Ebene 1">
    <path
       id="path24"
       d="m 101.99395,280.91928 c -7.571683,0.15745 -14.333184,-0.001 -15.025612,-0.35281 -0.692365,-0.35123 -5.28215,-0.80915 -10.199432,-1.01702 -18.794168,-0.79452 -45.338517,-9.0836 -53.472044,-16.69785 -3.093329,-2.89586 -4.912241,-13.26245 -3.081134,-17.5604 2.660376,-6.24436 17.87757,-10.9958 41.603245,-12.99019 l 16.094021,-1.35288 2.006243,-4.0123 c 1.103439,-2.20676 1.891988,-5.3949 1.752392,-7.08481 -0.224,-2.70606 -1.155534,-3.31303 -7.815061,-5.08973 -23.049293,-6.1493 -47.750283,-22.43502 -57.259994,-37.75232 -1.691839,-2.72504 -3.86815,-5.62386 -4.836248,-6.44184 -0.968101,-0.81796 -2.1128792,-2.61776 -2.5439579,-3.99961 -0.431058,-1.38178 -1.926658,-6.14166 -3.32352,-10.5775 -4.4346241,-14.08245 -4.5339658,-32.66157 -0.239464,-44.78379 0.740059,-2.08905 2.807444,-7.9126 4.5941849,-12.941243 3.752151,-10.560176 17.050661,-37.059173 22.487759,-44.809802 2.041095,-2.909605 6.862419,-9.812638 10.714083,-15.340127 3.851662,-5.527491 7.783076,-10.590692 8.736552,-11.251615 9.074406,-6.290182 55.039537,-8.301187 89.809927,-3.929281 18.16595,2.284166 28.59206,5.673581 33.09828,10.759897 7.19491,8.121146 19.90005,37.652326 26.94971,62.640302 3.73666,13.244819 6.99836,40.564999 5.68563,47.623289 -5.78495,31.10539 -27.28373,53.82548 -64.60433,68.27442 -4.4097,1.70726 -12.11294,3.81587 -17.11829,4.68585 -7.91444,1.3756 -9.31528,1.97835 -10.74794,4.62481 -1.96608,3.6318 -1.6788,9.79314 0.50845,10.90336 0.85894,0.43594 7.29121,1.51011 14.29406,2.38703 14.81997,1.85578 34.02658,8.46753 37.50221,12.90988 1.21312,1.55059 2.6568,5.30316 3.20814,8.3391 1.40107,7.71435 -1.92156,12.27594 -12.02001,16.50205 -12.76277,5.34109 -29.25657,7.76331 -56.75776,8.33512 z m 39.09627,-22.54987 c 7.09901,-1.37863 12.66174,-2.99682 12.48921,-3.63318 -0.46192,-1.70372 -9.23634,-3.9231 -22.9489,-5.80471 -11.04041,-1.51496 -13.07061,-1.46797 -21.8367,0.50537 -10.138433,2.28225 -13.692033,2.03301 -25.152892,-1.76433 -3.841501,-1.27279 -7.608807,-1.18599 -21.836894,0.50318 -9.456991,1.12261 -18.495494,2.39219 -20.08559,2.82106 -1.590158,0.42867 -3.579204,0.88185 -4.420174,1.00677 -0.840982,0.12475 -1.187351,0.68845 -0.769705,1.25239 0.995237,1.3439 21.735347,6.35111 29.179479,7.04468 3.197235,0.2979 9.037134,0.90815 12.977595,1.35619 17.102968,1.94456 42.297341,0.61732 62.404571,-3.28742 z M 102.6392,237.14823 c -0.54187,-1.58059 -1.54694,-6.10904 -2.23383,-10.06317 -1.039553,-5.98464 -0.873463,-8.13088 0.99115,-12.80861 1.23203,-3.09062 3.00627,-6.43001 3.94278,-7.42091 0.95778,-1.01338 6.79089,-2.82613 13.33244,-4.14335 23.42854,-4.71761 42.65875,-14.81065 56.51452,-29.66189 10.07769,-10.80172 14.34589,-17.84389 17.33992,-28.60952 1.9538,-7.0253 2.0263,-9.63712 0.67473,-24.30124 -0.91897,-9.97022 -2.63571,-20.444593 -4.36651,-26.641059 -2.91086,-10.421376 -14.13215,-38.035811 -17.87782,-43.99551 -1.97599,-3.143948 -2.3092,-3.234115 -7.03041,-1.902774 -19.31577,5.44701 -78.233172,3.659693 -98.886761,-2.999862 -2.429347,-0.783323 -5.275353,-1.329713 -6.324517,-1.214217 -3.013807,0.332017 -27.927356,41.184265 -32.276893,52.926573 -9.600001,25.916839 -11.825938,38.116079 -9.576566,52.484269 1.053039,6.72646 2.367242,9.94396 7.264773,17.78603 10.606237,16.98298 29.425868,29.10085 56.349424,36.28315 8.573851,2.2872 11.564129,4.77164 13.768714,11.43953 2.345443,7.09403 2.092343,15.25716 -0.649427,20.94494 -1.111405,2.30562 -1.724503,4.59201 -1.362468,5.0809 0.362041,0.48893 3.073298,0.61927 6.024968,0.28975 5.114613,-0.57119 5.320433,-0.7342 4.381783,-3.47303 z M 158.69136,38.647288 c -1.01323,-0.446426 -5.06822,-1.202164 -9.01114,-1.679315 -3.94287,-0.477219 -9.32282,-1.166715 -11.95537,-1.532274 -14.81452,-2.057037 -72.030183,-1.243036 -67.777658,0.964273 3.181097,1.651163 22.962046,3.945249 41.057798,4.761682 16.91618,0.763211 51.0412,-1.036089 47.68637,-2.514366 z"
       style="fill:#000000;stroke-width:1.1785" />
  </g>
</svg>
