<?xml version="1.0" encoding="UTF-8" standalone="no"?>
<svg
   xmlns:dc="http://purl.org/dc/elements/1.1/"
   xmlns:cc="http://creativecommons.org/ns#"
   xmlns:rdf="http://www.w3.org/1999/02/22-rdf-syntax-ns#"
   xmlns:svg="http://www.w3.org/2000/svg"
   xmlns="http://www.w3.org/2000/svg"
   xmlns:sodipodi="http://sodipodi.sourceforge.net/DTD/sodipodi-0.dtd"
   xmlns:inkscape="http://www.inkscape.org/namespaces/inkscape"
   width="210mm"
   height="297mm"
   viewBox="0 0 210 297"
   version="1.1"
   id="svg8"
   inkscape:version="1.0 (4035a4fb49, 2020-05-01)"
   sodipodi:docname="12.svg">
  <defs
     id="defs2" />
  <sodipodi:namedview
     units="mm"
     id="base"
     pagecolor="#ffffff"
     bordercolor="#666666"
     borderopacity="1.0"
     inkscape:pageopacity="0.0"
     inkscape:pageshadow="2"
     inkscape:zoom="0.45"
     inkscape:cx="276.59862"
     inkscape:cy="597.36808"
     inkscape:document-units="mm"
     inkscape:current-layer="layer1"
     inkscape:document-rotation="0"
     showgrid="false"
     inkscape:window-width="958"
     inkscape:window-height="991"
     inkscape:window-x="-8"
     inkscape:window-y="0"
     inkscape:window-maximized="0" />
  <metadata
     id="metadata5">
    <rdf:RDF>
      <cc:Work
         rdf:about="">
        <dc:format>image/svg+xml</dc:format>
        <dc:type
           rdf:resource="http://purl.org/dc/dcmitype/StillImage" />
        <dc:title></dc:title>
      </cc:Work>
    </rdf:RDF>
  </metadata>
  <g
     inkscape:label="Ebene 1"
     inkscape:groupmode="layer"
     id="layer1"
     transform="translate(-10.444323,-81.260506)">
    <path
       id="path26"
       style="fill:#000000;stroke-width:0.467603"
       d="m 109.50127,87.915453 c -0.32314,-0.0053 -0.6553,-0.0053 -0.99914,9.37e-4 -0.39293,0.0074 -0.80139,0.02169 -1.22928,0.04297 -1.55405,0.07688 -2.38191,0.528373 -4.61209,2.51609 -2.670925,2.380459 -4.316315,5.131585 -4.797495,8.019576 -0.12123,0.727908 -0.50476,2.128934 -0.852091,3.113404 -0.347351,0.98446 -0.778194,3.46851 -0.957131,5.51989 -0.255308,2.92679 -0.55884,4.0012 -1.411027,4.99294 -1.009629,1.17497 -1.457891,1.29421 -6.373839,1.68685 -7.224057,0.577 -8.429504,0.96259 -9.405939,3.01019 -0.463143,0.97123 -0.791822,2.79045 -0.791822,4.38104 0,1.49598 -0.223736,3.36018 -0.496822,4.14358 -0.57153,1.6395 -1.59922,1.99237 -9.135613,3.13715 -2.546472,0.38678 -5.314888,0.90402 -6.152809,1.14892 -1.62846,0.47591 -5.220398,3.59663 -5.446844,4.73265 -0.07509,0.37677 -0.270127,1.0015 -0.432897,1.38727 -0.162824,0.38579 -0.384484,2.46458 -0.493175,4.62031 -0.108725,2.15574 -0.416379,4.05449 -0.683139,4.21939 -0.266741,0.16489 -1.707386,0.70399 -3.20107,1.19824 -2.614747,0.86519 -7.836443,4.09016 -7.372965,4.55366 0.123908,0.12389 -0.303145,1.00463 -0.948906,1.95626 -0.645778,0.95159 -1.173573,1.90855 -1.173573,2.12703 0,0.21847 -1.040296,0.89277 -2.311528,1.4987 -2.747596,1.3097 -4.158683,3.47069 -4.622146,7.07615 -0.172791,1.34359 -0.314171,7.07233 -0.314171,12.73031 v 10.28726 l 1.693236,3.50702 c 2.013204,4.16998 7.312139,10.0248 9.53106,10.5311 1.702687,0.38853 7.199953,2.52955 6.544614,2.54899 -0.25718,0.007 1.215762,0.80183 3.273219,1.76447 2.057441,0.96265 4.02946,2.02442 4.381952,2.35994 0.352474,0.3355 1.246753,0.73141 1.987312,0.87951 0.740542,0.1481 1.346185,0.42717 1.346185,0.62102 0,0.19383 0.643431,0.61945 1.430204,0.94525 1.395262,0.57794 2.86193,2.92299 4.673291,7.47069 0.358536,0.90015 1.168104,2.42569 1.799177,3.39012 0.631095,0.96444 1.323745,1.75352 1.538887,1.75352 0.215122,0 1.01321,-0.68388 1.773597,-1.51971 1.687577,-1.85507 1.796502,-3.67547 0.476738,-7.94835 -0.946221,-3.0635 -4.298438,-7.65572 -5.187464,-7.10627 -0.234373,0.14474 -0.425588,0.0818 -0.425588,-0.13979 0,-0.22156 -1.051839,-0.78079 -2.337112,-1.24299 -1.285258,-0.46216 -2.219963,-1.02966 -2.076807,-1.26126 0.143117,-0.23159 0.02119,-0.421 -0.271248,-0.421 -0.90902,0 -7.197812,-3.18197 -8.278032,-4.18834 -0.564039,-0.5255 -1.318965,-0.95531 -1.676794,-0.95531 -0.357829,0 -1.576177,-0.62772 -2.707897,-1.39459 -1.131718,-0.76685 -2.353714,-1.3975 -2.715201,-1.4028 -0.73266,-0.008 -3.559639,-2.04535 -4.866906,-3.5043 -0.466696,-0.52076 -1.507252,-2.31389 -2.312442,-3.98556 -1.404805,-2.91655 -1.471751,-3.32912 -1.656703,-10.18772 l -0.192703,-7.14739 1.271295,-1.17813 c 0.958152,-0.8887 1.583885,-1.10977 2.540764,-0.8996 0.698232,0.1534 2.936745,0.37069 4.974675,0.48221 2.037911,0.11152 6.93123,0.8372 10.874505,1.61288 5.069237,0.99704 7.419414,1.27656 8.021401,0.95438 1.026405,-0.5493 2.362871,-0.56723 13.800675,-0.19178 4.88645,0.16046 9.936565,0.32048 11.222471,0.35618 1.285895,0.0357 6.336011,-0.0905 11.222481,-0.28039 4.88645,-0.18988 12.35641,-0.3852 16.59989,-0.4338 4.2435,-0.0487 8.97796,-0.34772 10.52106,-0.66488 1.54308,-0.31717 5.22546,-0.69129 8.18306,-0.83108 10.1035,-0.47782 20.54484,-1.70402 26.57298,-3.12071 2.14206,-0.50341 5.01025,-0.91511 6.37293,-0.91511 1.6319,0 2.67611,-0.23943 3.05952,-0.70141 0.32016,-0.38577 1.19442,-0.7014 1.94256,-0.7014 0.77772,0 1.47536,-0.30037 1.62928,-0.70141 0.56436,-1.47068 1.10255,-0.61739 0.81101,1.28592 -0.16736,1.093 -0.35115,2.0454 -0.40823,2.11698 -0.0571,0.0716 -0.62455,-0.0678 -1.26035,-0.3096 -1.3328,-0.50674 -1.7269,-0.30398 -2.85311,1.46583 -0.45006,0.70724 -1.2018,1.2859 -1.67039,1.2859 -0.46857,0 -1.23232,0.42083 -1.69781,0.93521 -0.46549,0.51437 -1.05687,0.93522 -1.31421,0.93522 -0.25735,0 -1.17194,0.5367 -2.03207,1.19274 -1.10185,0.84042 -1.55965,1.56565 -1.55259,2.45492 0.0141,1.70372 1.79813,5.92906 4.23582,10.03702 4.37914,7.37964 5.99314,10.03544 7.59581,12.50107 5.64387,8.6827 7.05258,10.12404 8.61047,8.81139 0.45259,-0.38131 2.26032,-1.41432 4.01756,-2.296 1.75724,-0.88167 3.42117,-1.87511 3.69697,-2.20741 1.01791,-1.22652 0.60859,-4.43586 -0.83929,-6.58115 -0.75687,-1.12145 -1.39426,-2.17366 -1.41653,-2.33802 -0.11205,-0.83015 -1.02359,-2.39469 -2.62386,-4.50524 -0.97588,-1.28703 -1.77541,-2.56241 -1.77634,-2.83393 -9.4e-4,-0.27152 -0.54449,-1.21841 -1.20737,-2.1042 -2.15486,-2.8795 -3.96936,-6.98757 -3.08599,-6.98757 0.389,0 3.66877,5.31977 7.41498,12.02981 0.63489,1.13725 1.45588,2.4205 1.82473,2.85128 0.36885,0.43079 0.61703,0.88875 0.55164,1.01742 -0.17037,0.33508 1.88442,3.24373 3.55086,5.02672 1.6853,1.8032 2.82723,1.89371 5.53726,0.44021 7.00842,-3.759 7.33289,-4.44676 4.52258,-9.58861 -1.08043,-1.97682 -2.53713,-4.43545 -3.23669,-5.46419 -2.04853,-3.012 -5.58658,-8.65972 -5.58658,-8.91733 0,-0.13043 -1.26688,-2.12018 -2.81473,-4.42213 -2.89661,-4.30787 -5.10789,-6.06605 -7.63052,-6.06605 -0.62171,0 -1.39224,-0.31566 -1.71241,-0.70143 -0.32016,-0.38578 -0.84748,-0.70139 -1.17175,-0.70139 -0.6249,0 -1.14927,-1.42016 -1.15987,-3.14079 -0.003,-0.56992 -0.36632,-1.79137 -0.80645,-2.7143 -0.64337,-1.34919 -1.46607,-1.99345 -4.19563,-3.28874 -1.86721,-0.88605 -4.04295,-1.61104 -4.83494,-1.61104 -1.21796,0 -1.55583,-0.27035 -2.19464,-1.75349 -0.41538,-0.96446 -0.82879,-3.08624 -0.91875,-4.71439 -0.34495,-6.24074 -3.35228,-9.15155 -10.66994,-10.32837 -6.54482,-1.05253 -6.37677,-0.96881 -7.27615,-3.61479 -0.54449,-1.60184 -0.82712,-3.98051 -0.86123,-7.23688 -0.056,-5.36434 -0.92881,-9.08955 -2.69053,-11.48276 -0.60267,-0.81868 -1.09595,-1.71297 -1.09595,-1.98732 0,-0.27434 -0.15782,-0.50168 -0.3507,-0.50504 -0.19289,-0.003 -1.82366,-1.26888 -3.62393,-2.81201 -1.80026,-1.54314 -3.74667,-2.93112 -4.32533,-3.08417 -0.57867,-0.15305 -1.0521,-0.4788 -1.0521,-0.72424 0,-0.24543 -1.42036,-1.07832 -3.15633,-1.85032 -1.73598,-0.772003 -3.78757,-1.683091 -4.55911,-2.025662 -0.77155,-0.342591 -2.34971,-0.774793 -3.50704,-0.959869 -2.65034,-0.423819 -3.5975,-0.913384 -5.4925,-2.841242 -2.59788,-2.64294 -4.45261,-3.819142 -7.60037,-4.818492 -2.35946,-0.749097 -4.184,-1.083148 -6.44599,-1.12244 z m -0.008,6.016725 c 0.85984,-0.02001 1.8157,0.08941 2.88141,0.309597 2.16601,0.447398 2.82812,0.795635 3.15723,1.661281 0.64468,1.695602 0.49324,4.775154 -0.34157,6.961084 -1.13854,2.98119 -0.55052,6.00234 1.5535,7.98669 1.75239,1.6527 2.06681,1.66721 5.39662,0.25206 1.48593,-0.63151 5.49798,-4.99688 5.49798,-5.98203 0,-0.1504 0.37948,-0.6815 0.84387,-1.17996 0.98674,-1.05913 2.52464,-0.90822 4.32625,0.42376 0.66307,0.49023 2.30208,1.46469 3.64219,2.1654 1.3401,0.70071 3.00779,1.88031 3.70704,2.62113 0.69924,0.74084 1.52901,1.34711 1.84299,1.34711 0.31398,0 1.39368,1.10471 2.39921,2.45491 2.48216,3.33284 3.28125,7.30176 2.52159,12.51386 -1.17273,8.04602 2.03232,12.6198 8.84244,12.6198 1.28149,0 2.79001,0.24614 3.35177,0.54796 0.56174,0.30186 1.65036,0.67849 2.41929,0.83657 0.77563,0.15959 1.62629,0.74673 1.91151,1.3188 0.28273,0.56711 0.63282,0.91336 0.7772,0.76898 0.50895,-0.50899 0.89269,3.52178 0.57629,6.05417 -0.27508,2.20169 -0.14686,2.93211 0.91146,5.16921 0.67782,1.43282 1.42277,2.60561 1.65489,2.60561 0.23213,0 0.87769,0.63968 1.43475,1.42199 1.27207,1.78646 0.95638,3.72117 -0.60731,3.72165 -0.57379,2.1e-4 -2.62115,0.33178 -4.55,0.73701 -1.92887,0.40526 -4.41964,0.82427 -5.53453,0.93156 -1.11488,0.10728 -2.20441,0.30533 -2.42112,0.43929 -0.21672,0.13397 -2.4605,0.35815 -4.98654,0.49866 -2.52614,0.14049 -5.64505,0.44279 -6.93095,0.67217 -1.28588,0.22938 -6.44123,0.54842 -11.45627,0.70871 -5.01505,0.1603 -10.90682,0.57726 -13.09287,0.92698 -2.84291,0.45482 -8.56801,0.6236 -20.106915,0.5909 -8.872778,-0.0251 -16.56835,0.0954 -17.101315,0.26851 -0.532964,0.17302 -1.071384,0.21263 -1.196401,0.0876 -0.125026,-0.12494 -2.740089,-0.34051 -5.811239,-0.47855 -8.745543,-0.39319 -12.689675,-0.66816 -17.902256,-1.24938 -4.071262,-0.45397 -4.902731,-0.43582 -5.253225,0.11788 -0.293322,0.46322 -0.418463,0.2071 -0.423766,-0.86762 -0.0039,-0.83933 -0.249837,-1.91469 -0.546144,-2.38916 -0.386089,-0.61806 -0.41913,-1.97527 -0.116908,-4.78654 l 0.421938,-3.92347 2.104213,-0.37445 c 4.035477,-0.71694 6.772481,-1.89725 8.801344,-3.79561 l 2.021105,-1.89142 -0.259375,-3.74996 c -0.142622,-2.0624 -0.388705,-4.41055 -0.547057,-5.21852 -0.280049,-1.4288 -0.216154,-1.49617 2.334362,-2.45036 1.442269,-0.53961 4.608653,-1.16325 7.035955,-1.38637 8.505697,-0.78189 12.664197,-4.01575 13.796115,-10.72654 0.312651,-1.85358 0.722716,-3.46503 0.910551,-3.581 0.451474,-0.27903 2.53946,-0.65604 5.419446,-0.97905 4.701247,-0.52718 5.500057,-0.76784 6.648737,-2.00009 1.628755,-1.74728 1.883115,-2.6042 2.482315,-8.35657 1.08331,-10.400144 2.91692,-14.266243 7.5602,-14.374242 z m 48.26994,85.843492 c -4.10263,0.10447 -8.21782,1.7537 -11.03161,4.62854 -2.6264,2.6834 -3.09299,3.50304 -3.64491,6.39757 -0.3184,1.66978 -0.24155,2.87263 0.3087,4.80024 0.77962,2.73164 4.20232,9.15368 6.07609,11.40147 0.61819,0.74158 1.5165,2.10932 1.99643,3.03941 0.47994,0.93009 1.79646,2.71853 2.92527,3.97463 1.93223,2.1501 2.22883,2.30561 5.06691,2.64854 6.45489,0.78 10.63385,-0.51491 14.9021,-4.61666 2.40331,-2.30958 2.88579,-3.07855 3.72347,-5.93272 0.86514,-2.94803 0.90048,-3.5152 0.34431,-5.61124 -0.60486,-2.27952 -2.67422,-6.5716 -3.70338,-7.75106 -0.0602,0.0352 -0.14227,0.0563 -0.25023,0.0484 -0.02,-0.002 -0.0393,-0.003 -0.0594,-0.005 -0.10587,-0.003 -0.10922,0.0214 -0.0476,-0.0466 -0.0633,0.0261 -0.123,0.0646 -0.18996,0.0785 -0.0626,0.0123 -0.14687,-0.0205 -0.23198,-0.0602 -0.005,0.001 -0.008,0.003 -0.0141,0.005 -0.007,0.003 -0.0159,0.002 -0.0237,0.005 -0.1011,0.0513 -0.19139,0.12477 -0.29317,0.17532 -0.0557,0.0281 -0.11045,0.0589 -0.16718,0.085 -0.005,0.002 -0.0124,-4.1e-4 -0.0182,9.4e-4 -0.0269,0.005 -0.053,0.0183 -0.0804,0.0201 -0.007,0 -0.0106,-0.0124 -0.0159,-0.0106 -0.0607,0.0195 -0.1101,0.0677 -0.1762,0.073 -0.0482,0.0433 -0.29896,0.27969 -0.34248,0.28676 -0.0242,0.003 -0.0488,-0.005 -0.073,-0.007 -0.007,0.0141 -0.0343,0.0159 -0.0649,0.0141 -0.12512,0.0808 -0.25449,0.15924 -0.36896,0.25297 -0.36012,0.29497 -0.0566,0.076 -0.33609,0.3288 -0.0321,0.0292 -0.0709,0.0511 -0.10586,0.0767 -0.0339,0.0123 -0.0675,0.026 -0.10142,0.0383 1.6e-4,-0.003 0.002,-0.007 0,-0.007 -0.0431,0.005 -0.0829,0.0274 -0.12335,0.0466 -0.007,0.0106 -0.0124,0.0214 -0.0193,0.0311 -0.0193,0.0299 -0.0366,0.0613 -0.0584,0.0894 -0.0891,0.11399 -0.0949,0.10922 -0.20093,0.19361 -0.12477,0.0998 -0.23691,0.22567 -0.37262,0.30961 -0.0185,0.0124 -0.042,0.0124 -0.0612,0.0237 -0.0331,0.0182 -0.0635,0.0414 -0.0949,0.062 -0.0652,0.0521 -0.0923,0.0772 -0.16614,0.12141 -0.0201,0.0124 -0.0466,0.0106 -0.0667,0.0228 -0.33283,0.20569 -0.0889,0.0701 -0.24931,0.15623 -0.007,0.007 -0.0177,0.0124 -0.0247,0.0211 -0.16418,0.16525 -0.13679,0.16825 -0.37811,0.26212 -0.0216,0.008 -0.0454,3.9e-4 -0.0686,9.3e-4 0.005,-0.007 0.0235,-0.0177 0.0159,-0.0177 -0.0318,-9.4e-4 -0.0661,0.0182 -0.0977,0.0401 -0.0271,0.0389 -0.055,0.0769 -0.0949,0.10405 -0.20378,0.22288 -0.18435,0.22929 -0.46669,0.4055 -0.0659,0.041 -0.13909,0.0694 -0.20822,0.10499 -0.0534,0.0548 -0.103,0.11293 -0.15712,0.16719 0.0717,0.0613 -0.24553,0.18286 -0.37993,0.2329 -0.0993,0.043 -0.19162,0.0516 -0.28494,0.0502 -0.0106,0.0141 -0.0179,0.0255 -0.0401,0.0456 -0.0931,0.0841 -0.15164,0.13467 -0.23654,0.14421 -0.0654,0.10405 -0.10886,0.17758 -0.21555,0.27309 -0.0396,0.0354 -0.0749,0.0914 -0.12795,0.0949 -4.5e-4,5e-5 -0.002,-6e-5 -0.003,0 -0.1094,0.18798 -0.29778,0.34337 -0.49136,0.41918 -0.0242,0.0123 -0.0488,0.026 -0.073,0.0383 1.3e-4,-0.003 0.005,-0.0141 9.4e-4,-0.0124 -0.0188,0.008 -0.0357,0.0214 -0.0511,0.0357 -0.11505,0.10478 -0.21611,0.24293 -0.39819,0.22102 0.008,-0.005 0.0336,-0.008 0.0274,-0.0177 -0.007,-0.0106 -0.0266,-0.003 -0.0375,0.003 -0.0366,0.0214 -0.0678,0.0516 -0.10131,0.0776 -0.10321,0.0799 -0.20356,0.1603 -0.32513,0.21098 -0.10552,0.0443 -0.008,-0.003 -0.14528,0.10693 -0.0198,0.0159 -0.0443,0.0253 -0.064,0.0412 -0.061,0.0503 -0.10479,0.17425 -0.14156,0.21644 -0.0788,0.0573 -0.15994,0.11488 -0.24112,0.16808 -0.0373,0.0245 -0.0799,0.0409 -0.11505,0.0686 -0.0532,0.0417 -0.0964,0.0964 -0.14881,0.13891 -0.02,0.0159 -0.0451,0.0242 -0.0675,0.0365 -0.0203,0.0106 -0.0396,0.024 -0.0612,0.0329 -0.005,0.002 0.0159,-0.0177 0.0124,-0.0141 -0.0821,0.0562 -0.16649,0.11188 -0.23472,0.18449 -0.0583,0.0445 -0.11294,0.0954 -0.17531,0.13432 -0.0279,0.0177 -0.11824,0.0371 -0.15341,0.053 -0.0845,0.0385 -0.16754,0.0774 -0.25664,0.0995 -0.0159,0.0295 -0.0364,0.0626 -0.0584,0.094 0.0226,0.0596 0.0435,0.13291 0.0639,0.24202 0.007,0.0412 -0.18734,0.11929 -0.34248,0.17809 4.7e-4,0.005 0.001,0.0106 0.002,0.0159 -0.008,0.0463 -0.0141,0.0935 -0.0274,0.13873 -0.0106,0.0337 -0.0292,0.0652 -0.0511,0.0941 0.65599,0.65246 1.36546,1.67899 1.88228,2.84763 0.62991,1.42454 1.08338,2.72205 1.00827,2.88323 -0.30106,0.64637 -2.21261,-0.0618 -2.86863,-1.06305 -0.7945,-1.21255 -1.88646,-4.93673 -1.54709,-5.27606 0.0886,-0.0886 0.20221,-0.1246 0.33058,-0.1223 -3.1e-4,-0.0951 0.0463,-0.20567 0.17161,-0.30048 0.0573,-0.0433 0.11453,-0.0865 0.17178,-0.12972 0.0412,-0.029 0.0829,-0.0566 0.12337,-0.0868 0.082,-0.0613 0.14421,-0.13114 0.25388,-0.14704 0.0289,-0.003 0.0584,0.001 0.0876,0.005 -0.001,-0.003 0.0106,-0.008 0.0292,-0.0141 0.007,-0.003 0.007,-0.007 0.0106,-0.008 0.0487,-0.0276 0.10131,-0.0488 0.15164,-0.073 0.0527,-0.068 0.14509,-0.054 0.21096,-0.0922 0.02,-0.0106 -0.0709,0.0258 -0.0694,0.005 1.4e-4,-0.002 0.1223,-0.11186 0.13237,-0.12053 0.0682,-0.0587 0.16171,-0.0878 0.2201,-0.15888 0.0141,-0.0159 0.0177,-0.038 0.032,-0.0539 0.0816,-0.085 0.1313,-0.11258 0.22373,-0.17532 0.0141,-0.0106 0.0467,-0.0344 0.0785,-0.0557 3.9e-4,-4.7e-4 0.001,-6e-5 0.002,-9.3e-4 0.0466,-0.0587 0.10373,-0.10939 0.15429,-0.16524 -0.17829,0.27069 0.0711,-4.8e-4 0.14881,-0.0695 -4.9e-4,-0.003 0.008,-0.0198 0.0182,-0.0256 0.0123,-0.007 0.008,-0.003 0.0193,-0.008 0,5e-5 0.002,-9.4e-4 0.002,-9.4e-4 0.15694,-0.0899 0.13255,-0.0274 0.16808,-0.0949 0.12371,-0.0654 0.15411,-0.0876 0.29954,-0.13325 0.047,-0.0141 0.0988,-0.0141 0.14422,-0.0328 0.0348,-0.0141 0.17354,-0.14916 0.18448,-0.15799 0.043,-0.0343 0.0894,-0.0633 0.13432,-0.0949 0.0925,-0.0803 0.18883,-0.14633 0.30777,-0.17901 0.0159,-0.003 0.0467,0.0106 0.0467,-0.005 0,-0.0766 -0.16861,0.11753 0.005,-0.0557 0.008,-0.0106 0.0279,-0.0304 0.0448,-0.0484 0.0141,-0.0141 0.0235,-0.0255 0.0383,-0.0375 0.002,-0.002 0.005,-0.005 0.007,-0.007 0.0742,-0.0623 0.15693,-0.11276 0.23469,-0.17072 0.0568,-0.0422 0.11294,-0.0866 0.16896,-0.12973 0.0904,-0.0701 0.16542,-0.12123 0.23196,-0.2064 -9.4e-4,-0.005 0.005,-0.03 0.0141,-0.042 0.003,-0.003 0.005,0.008 0.005,0.0159 0.0758,-0.12053 0.14421,-0.24569 0.2201,-0.36622 0.14262,-0.2616 0.28624,-0.2599 0.54158,-0.37902 0.11258,-0.0524 0.17818,-0.11381 0.28038,-0.17356 0.0368,-0.0141 0.17497,-0.0555 0.22102,-0.0995 0.0106,-0.0106 -0.0286,0.0124 -0.043,0.0182 0.0652,-0.0443 0.12602,-0.0951 0.19545,-0.13237 0.0497,-0.0266 0.1064,-0.038 0.15889,-0.0584 0.0123,-0.005 0.0232,-0.0106 0.0346,-0.0159 0.0244,-0.0417 0.0474,-0.0841 0.0776,-0.12142 0.11205,-0.13891 0.28408,-0.21879 0.42651,-0.32148 0.0426,-0.0827 0.14068,-0.0376 0.20093,-0.0767 0.0188,-0.0124 0.0248,-0.0389 0.042,-0.053 0.0409,-0.0336 0.0889,-0.0568 0.1306,-0.0894 0.0977,-0.0766 0.0159,-0.0281 0.0141,-0.0265 0.14651,-0.14333 0.31458,-0.26258 0.48221,-0.37993 0.0519,-0.0364 0.10852,-0.0656 0.15888,-0.10405 0.0256,-0.0196 0.0448,-0.0466 0.0675,-0.0694 0.0396,-0.0396 0.0797,-0.0787 0.11965,-0.11788 0.018,-0.0182 0.0331,-0.0417 0.0531,-0.0566 0.0396,-0.0661 0.0993,-0.16082 0.14526,-0.20183 0.13415,-0.11982 0.12725,-0.0836 0.3224,-0.0995 -0.0201,-0.005 -0.0758,-4.5e-4 -0.0602,-0.0141 0.0222,-0.0196 0.25108,-0.086 0.2749,-0.0949 0.0684,-0.025 0.13414,-0.0647 0.19545,-0.10236 0.0878,-0.0633 0.19062,-0.10236 0.28128,-0.16082 0.0638,-0.0412 -0.087,-0.0654 0.0896,-0.0785 0.0749,-0.0811 -0.0721,0.0722 0.13609,-0.11788 0.003,-0.003 -4.7e-4,-0.008 0.002,-0.0141 0.003,-0.0106 0.0106,-0.0185 0.0159,-0.0274 0.0123,-0.02 0.0251,-0.0401 0.0401,-0.0586 0.0269,-0.0329 0.0566,-0.0634 0.085,-0.0951 0.0959,-0.0123 0.12425,-0.18781 0.21006,-0.22192 0.0344,-0.0141 0.0721,-0.0177 0.1087,-0.0237 0.0698,-0.0474 0.13766,-0.0977 0.20548,-0.14792 4.8e-4,-4.7e-4 0.003,-0.003 0.003,-0.003 0.0283,-0.0274 0.0339,-0.0271 0.0566,-0.0485 -0.002,-0.002 -0.003,-0.003 -0.005,-0.007 0.003,0.001 0.005,0.002 0.008,0.003 0.0401,-0.0377 0.0721,-0.0628 0.10142,-0.0868 0.002,-0.008 0.008,-0.0177 0.0245,-0.0211 0.0899,-0.0706 0.1887,-0.13008 0.36804,-0.22466 2.1e-4,-0.0404 0.002,-0.081 0.0256,-0.11152 0.0876,-0.11382 0.17425,-0.13326 0.26667,-0.13432 0.007,-0.0159 0.008,-0.0404 0.0159,-0.0511 0.0365,-0.0469 0.0799,-0.0875 0.126,-0.12513 0.0214,-0.0177 0.0498,-0.0233 0.0739,-0.0375 0.0124,-0.007 -0.0274,0.0123 -0.041,0.0193 0.0901,-0.0933 0.18084,-0.1032 0.27398,-0.0995 -0.31487,-0.5106 -0.65163,-1.08475 -0.98727,-1.72063 -0.73044,-1.38399 -2.0118,-3.26626 -2.84764,-4.18287 -0.83583,-0.9166 -1.5197,-1.81491 -1.5197,-1.99643 0,-0.53695 -2.85729,-2.05575 -5.46511,-2.90518 -1.37168,-0.44678 -2.81541,-0.68124 -4.27145,-0.71784 -0.273,-0.007 -0.54661,-0.007 -0.82011,0 z m 9.17852,16.53323 c -0.003,0.005 -0.007,0.0124 -0.0106,0.0177 0.003,-0.005 0.008,-0.007 0.0124,-0.0123 9.4e-4,-0.001 -0.002,-0.002 -0.002,-0.005 z m -0.0106,0.0177 c -0.002,0.003 -0.005,0.005 -0.008,0.008 2.1e-4,0.001 -0.005,0.0123 -0.003,0.0106 0.003,-0.005 0.007,-0.0123 0.0106,-0.0182 z m 5.7464,-2.90882 c 0.008,-0.005 0.0184,-0.0106 0.0274,-0.0177 -0.059,-0.0106 -0.11788,-0.0226 -0.17719,-0.0248 -0.003,0.003 -0.008,0.007 -0.0141,0.0106 0.032,0.0141 0.10568,0.0299 0.16347,0.0311 z m 0.0274,-0.0177 c 0.0124,0.002 0.0251,0.001 0.0375,0.003 0.003,-0.007 0.005,-0.0141 -9.4e-4,-0.0265 -0.0123,0.008 -0.0244,0.0159 -0.0365,0.0237 z m -17.20906,-5.82769 c 0.0195,0.002 0.0383,0.0106 0.0574,0.0159 0.073,-3e-5 0.14774,0.002 0.20001,-0.007 v -0.003 c 0.053,0.005 0.10656,0.005 0.15887,0.0141 0.0256,0.005 0.0484,0.0185 0.0721,0.0292 0.001,0.002 0.003,0.005 0.002,0.005 -0.0124,0.003 -0.049,0.005 -0.0365,0.007 0.0716,0.002 0.14369,-0.0141 0.21554,-0.003 0.0403,0.005 0.0806,0.008 0.12053,0.0159 0.081,0.0141 -0.005,0.0177 0.105,0.0274 0.24097,0.0226 0.13466,-0.0159 0.30593,0.0566 0.11347,-0.005 0.34045,-0.0279 0.37902,0.042 -0.0185,0 -0.0751,0.005 -0.0565,0.003 0.10131,-0.0123 0.18766,-0.008 0.28405,0.0274 0.0141,0.005 0.0325,0.007 0.0393,0.0201 0.003,0.007 -0.0182,9.3e-4 -0.0274,0.002 0.13025,0.0159 0.24027,0.0272 0.36075,0.1078 0.0365,0.0244 0.0491,0.0728 0.0703,0.11135 0.002,0.003 -1.7e-4,0.007 0.002,0.0123 0.003,0.002 0.008,0.003 0.0124,0.005 0.0201,0.0106 0.0391,0.0242 0.0584,0.0365 0.007,0.005 0.0124,0.0123 0.0201,0.0159 0.0339,0.0191 0.0678,0.0376 0.10236,0.0557 0.0106,0.003 0.0232,0.005 0.0346,0.008 -0.008,0.002 -0.007,0.002 -0.0124,0.003 0.002,9.4e-4 0.003,0.003 0.005,0.003 0.0266,2.4e-4 0.0795,0.003 0.13609,0.0228 0.0686,0.024 0.16772,0.12372 0.21554,0.19637 0.0557,0.0383 0.11681,0.0841 0.13343,0.12778 0.008,0.0245 0.0177,0.0496 0.0245,0.0749 -10e-4,-0.003 0.008,0.005 0.0141,0.008 4.7e-4,0.002 9.4e-4,0.003 0.002,0.007 0.0206,0.0209 0.0414,0.0414 0.062,0.062 0.0159,0.0212 0.0294,0.0441 0.0467,0.0639 0.0253,0.0294 0.0569,0.0514 0.0804,0.0821 0.003,0.005 -0.002,0.0123 -0.003,0.0184 0.02,0.0106 0.0393,0.0214 0.0594,0.032 0.18992,0.0891 0.34865,0.12831 0.40823,0.36625 0.0294,0.11753 0.0367,0.12141 0.0124,0.14792 0.0141,0.0255 0.0297,0.0514 0.0447,0.0767 0.003,0.0159 0.005,0.0325 0.0124,0.0484 0.007,0.0141 0.0466,0.0383 0.0302,0.0401 -0.0552,0.007 -0.11011,-0.0141 -0.16525,-0.0211 0.0958,0.029 0.20021,0.0381 0.28769,0.0868 0.0643,0.0357 0.0776,0.24857 0.0695,0.31325 -0.008,0.0717 -0.0245,0.0141 -0.007,0.0612 0.0318,0.0643 0.0633,0.12848 0.0951,0.1927 -0.007,-0.0269 -0.0221,-0.0675 -0.008,-0.0548 0.0206,0.0212 0.0195,0.0555 0.0274,0.0839 0.0214,0.076 0.0235,0.11276 0.0329,0.15164 0.0638,0.0245 0.13025,0.0725 0.19087,0.158 0.0406,0.0574 0.0842,0.11169 0.13696,0.15977 0.0159,0.0331 0.0321,0.0656 0.0485,0.0986 -0.005,-1.5e-4 -0.0159,-0.003 -0.0141,0 0.0106,0.0239 0.0313,0.0428 0.0458,0.0649 0.0425,0.0656 0.0887,0.13219 0.0986,0.21188 0.0219,0.0244 0.0464,0.047 0.0649,0.074 0.0928,0.13732 0.0795,0.16684 0.13148,0.3023 0.0239,0.13555 -0.02,-0.0797 0.0839,0.17993 0.0704,0.17603 0.0251,0.37476 0.0365,0.55802 -0.005,0.14704 -0.0279,0.27293 0.0245,0.41554 4.6e-4,0.0268 -4.7e-4,0.0535 0.002,0.0805 0.0141,0.0714 0.0235,0.13926 0.0183,0.21828 0,0.14421 9.4e-4,0.28867 0,0.43289 -4.7e-4,0.0323 0.002,0.0645 0.002,0.0969 0.0159,0.0212 0.0368,0.0396 0.0456,0.0649 0.0203,0.0571 -0.007,0.12496 -0.0464,0.19362 -0.005,0.0766 -0.0141,0.15163 -0.0227,0.22834 -0.003,0.0422 -0.001,0.0853 -0.0106,0.12689 -0.008,0.0415 -0.0281,0.0805 -0.042,0.12053 -0.0764,0.14068 -0.15887,0.26717 -0.28038,0.37444 -0.0282,0.025 -0.0875,0.001 -0.0941,0.062 -0.003,-0.002 -0.008,4.7e-4 -0.0106,-0.003 -0.005,-0.007 -0.005,-0.0325 -0.007,-0.0237 -0.003,0.0265 0.0159,0.0584 -0.002,0.0795 -0.1914,0.24776 -0.17956,0.23011 -0.39271,0.22834 -0.25693,-2.4e-4 -0.51388,3.2e-4 -0.77082,0 -0.22625,-0.002 -0.4525,-0.008 -0.67856,0.005 -0.12265,0.008 -0.24082,0.0123 -0.35893,-0.0338 -0.008,-0.003 -0.0248,-0.008 -0.0383,-0.0141 -0.11718,0.0123 -0.31978,0.0352 -0.38725,-9.4e-4 -0.0925,-0.0493 -0.1435,-0.15588 -0.23014,-0.21462 -4.7e-4,4.1e-4 3e-5,0.001 -9.3e-4,0.002 -0.0247,-0.0106 0.081,0.0954 0.11877,0.14068 -0.007,-0.003 -0.0141,-0.008 -0.0219,-0.0141 -0.0159,-0.007 -0.0313,-0.0193 -0.0493,-0.0228 -0.0409,-0.007 -0.12866,0.032 -0.12424,-0.008 0.003,-0.0295 0.0399,-0.0633 0.0767,-0.094 0.002,9.4e-4 -0.005,-0.008 -0.003,-0.007 0.002,9.3e-4 0.003,0.003 0.005,0.005 0.0532,-0.0445 0.10693,-0.0797 0.0649,-0.0703 -0.10131,0.0227 -0.14987,0.15216 -0.24658,0.18995 -0.0977,0.038 -0.29615,-0.088 -0.36167,-0.12142 -0.048,-0.0447 -0.0991,-0.0865 -0.14421,-0.13431 -0.0276,-0.0292 -0.0488,-0.064 -0.073,-0.0959 -0.007,-0.0123 -0.0123,-0.0269 -0.0211,-0.0375 -0.0191,-0.0223 -0.0505,-0.0347 -0.0631,-0.0612 -0.007,-0.0124 0.0399,0.003 0.042,-0.0124 -0.0393,-0.001 -0.28937,-0.0189 -0.31051,-0.0393 -0.0728,0.008 -0.10569,-0.0305 -0.23198,-0.0831 -0.0882,-0.10394 -0.0568,-0.0654 -0.11681,-0.16348 -0.0141,-0.0226 -0.13361,-0.14951 -0.0557,-0.12229 -0.0106,-0.0106 -0.13555,-0.10426 -0.14068,-0.14881 -0.008,-0.074 -0.005,-0.14915 -0.008,-0.22374 -0.002,0.007 -0.003,0.0302 -0.007,0.0228 -0.005,-0.0141 -0.002,-0.0294 -9.4e-4,-0.0438 -0.0265,-0.10352 -0.0698,-0.19378 -0.11593,-0.29135 -0.0159,-0.0344 -0.10834,-0.19118 -0.0859,-0.27032 -0.0276,-0.0237 -0.0544,-0.0497 -0.0639,-0.0732 -0.003,-0.007 0.0242,0.0206 0.0219,0.0124 -0.02,-0.0696 -0.0469,-0.13731 -0.0721,-0.2055 -0.0141,-0.008 -0.0196,-0.0124 -0.03,-0.0182 0.005,0.0928 0.0106,0.13784 -0.0401,0 -0.003,-0.008 -0.005,-0.0182 -0.007,-0.0274 -0.0364,-0.0234 -0.0587,-0.0474 -0.14333,-0.15535 -0.002,-0.003 0.007,0.008 0.007,0.005 -0.0106,-0.0594 -0.0221,-0.11824 -0.0346,-0.17718 0.003,0.0106 0.007,0.0228 0.0106,0.0177 -0.002,-0.008 -0.008,-0.0159 -0.0124,-0.0237 2.8e-4,0.002 1.9e-4,0.003 9.3e-4,0.005 -0.002,-0.007 -0.003,-0.003 -0.005,-0.0124 9.4e-4,0.002 0.003,0.003 0.005,0.005 -0.002,-0.008 -0.003,-0.0177 -0.005,-0.0256 -0.001,-0.007 -4.5e-4,0.007 9.4e-4,0.0193 -0.03,-0.0728 -0.0951,-0.14457 -0.14616,-0.22103 -0.007,-0.008 -0.0177,-0.03 -0.0211,-0.0375 -0.0256,-0.0445 -0.0415,-0.0912 -0.042,-0.14068 -0.007,-0.007 -0.0123,-0.0123 -0.0193,-0.0201 -0.0509,-0.0595 -0.15128,-0.22181 -0.18082,-0.26759 -0.008,-0.0414 -0.0195,-0.0823 -0.0247,-0.12424 -0.007,-0.0607 0.008,-0.0675 -0.007,-0.12336 -0.0106,-0.038 -0.0294,-0.0744 -0.0401,-0.1124 -0.0141,-0.0488 -0.0106,-0.10131 -0.0337,-0.14792 0.0286,-0.0177 0.003,4.5e-4 -0.042,-0.0712 -0.0221,-0.0352 -0.0445,-0.0711 -0.0576,-0.11046 -0.007,-0.0206 0.0245,0.037 0.0412,0.0511 0.0141,0.0124 0.0321,0.0177 0.0484,0.0256 -0.0537,-0.0631 -0.1154,-0.12069 -0.16082,-0.18996 -0.0106,-0.0141 -0.003,-0.10569 -0.002,-0.12336 0.0106,-0.14758 0.0269,-0.295 0.0329,-0.44295 -0.0237,-0.0141 -0.0482,-0.0289 -0.0675,-0.0484 -0.19149,-0.19458 -0.1124,-0.21252 -0.0401,-0.16064 0.0589,-0.0106 -4.9e-4,0.003 -0.10236,-0.0923 -0.0124,-0.0123 -0.019,-0.0271 -0.0282,-0.0412 -0.0732,-0.11134 -0.13113,-0.19375 -0.11964,-0.33425 -2.4e-4,-0.16189 0.002,-0.32308 0.002,-0.48497 -0.003,-0.13998 -0.0205,-0.28279 0.0177,-0.42011 0.0232,0.0866 -0.007,-0.0321 0.0329,-0.14792 -0.0365,-0.10622 4.8e-4,-0.20008 0.0839,-0.24384 -0.007,-0.0239 -0.0179,-0.0464 -0.0201,-0.0712 -0.003,-0.0442 0.0652,-0.0615 0.10405,-0.0831 0.15976,-0.0887 0.25046,-0.0887 0.43563,-0.12512 0.002,-4.2e-4 0.003,3.8e-4 0.005,0 0.008,-0.14687 0.17002,-0.19931 0.33609,-0.20914 0.0206,-0.002 0.0373,-0.008 0.0602,-0.008 h 0.0201 c 0.02,-0.005 0.0235,-0.005 0.0438,-0.0106 0.007,-0.003 0.0185,-0.0106 0.0239,-0.0141 0.049,-0.0362 0.10781,-0.0562 0.1626,-0.0813 0.10131,-0.0359 0.21387,-0.0675 0.32239,-0.0548 z m -0.0493,5.90075 c 0.002,0.007 0.005,0.0124 0.007,0.0193 -3.9e-4,-0.0123 -9.4e-4,-0.0256 -0.002,-0.0383 -3.4e-4,-0.007 -0.005,0.0106 -0.005,0.0193 z m 4.63674,-2.4056 c -0.008,-0.0141 -0.0159,-0.0305 -0.0274,-0.043 -0.007,-0.008 0.008,0.0203 0.0141,0.0292 0.003,0.005 0.008,0.008 0.0124,0.0141 z m -1.58819,-2.44487 c -0.005,-0.005 -0.0106,-0.0106 -0.0159,-0.0159 0.0159,0.0552 0.0302,0.11116 0.0539,0.16348 0.0208,0.0463 -0.0227,-0.0912 -0.0383,-0.14792 z m -1.81653,-0.89684 c -0.0124,0.003 -0.0516,0.007 -0.0383,0.007 0.008,1.6e-4 0.0391,-0.002 0.0539,-0.003 -0.007,-0.002 -0.0106,-0.003 -0.0159,-0.005 z m -1.19275,0.75072 c -4.7e-4,0.003 -1.5e-4,0.005 -9.4e-4,0.008 0.0106,0 0.0226,3e-5 0.0337,0 -0.0106,-0.003 -0.026,-0.005 -0.0329,-0.008 z m 1.0311,0.14067 c -0.007,-0.007 -0.008,-0.003 -0.0282,0.005 0.0141,0.003 0.0288,0.007 0.0438,0.008 -0.003,-0.003 -0.0141,-0.0123 -0.0159,-0.0141 z m 0.0124,0.0338 c -0.0308,0.002 -0.0615,9.2e-4 -0.0923,0.002 0.005,0.003 0.0123,0.007 0.0177,0.0106 0.002,0.002 0.0219,0.02 0.0366,0.0338 0.008,-0.0106 0.0316,-0.0433 0.0383,-0.0464 z m 0.27032,0.17531 c -0.002,0.0124 -0.007,0.0409 -0.007,0.0412 9.4e-4,0.001 0.003,0.002 0.003,0.003 0.003,-0.0179 0.003,-0.0214 0.007,-0.043 -1.7e-4,-2.6e-4 -0.002,-0.001 -0.003,-0.002 z m 1.89964,0.48039 c -0.003,0.008 -0.003,0.0232 -0.0124,0.0237 -0.0106,9.4e-4 -0.0159,-0.0299 -0.0211,-0.0211 -0.008,0.0123 0.0177,0.0359 0.005,0.0447 -3.7e-4,2.9e-4 -0.005,-0.002 -0.005,-0.002 0.007,0.0106 0.0159,0.0196 0.0219,0.032 0.003,-0.026 0.007,-0.0518 0.0106,-0.0776 z m -3.3682,0.32513 c -9.2e-4,4.7e-4 -0.002,0.001 -0.003,0.002 -0.005,0.003 -0.007,0.008 -0.0106,0.0141 l 9.3e-4,9.3e-4 c 0.005,-0.005 0.0106,-0.0106 0.0159,-0.0159 -9.4e-4,-3e-5 -0.002,5e-5 -0.003,0 z m -0.10956,0.19272 c -0.003,0.003 -0.005,0.008 -0.008,0.0141 1.9e-4,9.3e-4 -2.1e-4,0.002 0,0.003 0.003,-0.005 0.005,-0.0106 0.008,-0.0159 z m 2.7015,0.19634 c 4.6e-4,0.007 0.002,0.0124 0.003,0.0193 0.003,-4e-5 0.007,-5e-5 0.0123,-9.4e-4 -0.001,-0.003 -0.0123,-0.0159 -0.0141,-0.0184 z m -2.77547,0.17809 c -0.002,0.003 -0.007,0.0141 -0.008,0.0177 0.003,-0.003 0.007,-0.005 0.0106,-0.008 -3.4e-4,-0.003 -1e-4,-0.005 -9.3e-4,-0.008 z m 3.57642,0.34248 c 0.007,0.0258 0.0123,0.0498 0.0183,0.0758 0.003,0.0123 0.0141,0.0206 0.0159,0.0329 0.0123,0.0661 0.0159,0.10798 0.0245,0.15711 0.002,-1.2e-4 0.005,-9.3e-4 0.007,-9.3e-4 -0.0124,-0.0659 -0.0228,-0.13238 -0.0346,-0.19819 -0.0106,-0.0226 -0.0206,-0.044 -0.032,-0.0667 z m -1.33705,0.34889 c -4.6e-4,1e-5 -0.001,9.2e-4 -0.002,9.2e-4 -1.2e-4,0.0209 0.003,0.0535 0.005,0.0649 0.003,0.005 0.007,0.0124 0.0106,0.0182 0.007,0.007 0.007,0.007 0.0141,0.0124 -0.0159,-0.0647 -0.0256,-0.10268 -0.0282,-0.0958 z m 1.99463,0.34612 c 3.4e-4,0.0198 0.0185,0.0325 0.0502,0.0393 -9.4e-4,-0.002 -0.001,-0.003 -0.002,-0.005 -0.003,-0.007 -0.005,-0.0123 -0.0106,-0.0193 -9.3e-4,-0.002 -0.002,-0.003 -0.003,-0.007 -0.003,-1.1e-4 -0.0198,-0.005 -0.0346,-0.008 z m -23.45413,0.49501 c -1.12193,0.0589 -2.62786,0.72368 -5.20208,2.03024 -2.59809,1.31867 -6.03866,3.15714 -7.64604,4.08604 -2.66232,1.53855 -2.92252,1.82737 -2.92252,3.24674 0,0.85694 0.41849,2.37794 0.92973,3.38006 0.89875,1.76187 0.90029,1.83159 0.0612,2.09784 -0.47728,0.15145 -1.42181,0.0647 -2.09873,-0.19271 -0.67691,-0.25738 -1.23019,-0.34189 -1.23019,-0.18813 0,0.15375 -0.26301,0.0707 -0.58451,-0.1845 -0.70844,-0.56225 -8.14516,0.002 -10.87176,0.82563 -2.73172,0.82471 -5.92636,2.54115 -7.126395,3.82848 -1.47558,1.58283 -3.394676,6.54509 -3.394676,8.77852 0,2.24748 -0.463038,2.33257 -2.768167,0.50688 -3.045801,-2.41234 -4.056651,-2.68339 -5.640465,-1.51241 -0.755205,0.55834 -1.593333,1.01559 -1.862195,1.01559 -0.268852,0 -1.579696,0.52605 -2.912476,1.169 -1.33277,0.64294 -2.833871,1.16899 -3.336231,1.16899 -1.608541,0 -4.945741,1.9811 -6.03683,3.58375 -0.581566,0.85425 -1.268002,1.54869 -1.525185,1.54161 -0.975687,-0.0244 -2.10374,-1.30648 -3.010195,-3.42115 -1.107486,-2.58371 -1.721446,-2.92065 -3.567301,-1.95809 -0.754627,0.39351 -1.643711,0.71645 -1.975437,0.71784 -1.094482,0.005 -4.048654,1.7635 -5.459629,3.24857 -1.375405,1.44765 -1.386824,1.50274 -1.302347,6.49255 0.117033,6.90806 1.644073,10.24088 4.994766,10.90007 0.746975,0.14705 10.445959,13.67713 11.395992,15.89759 0.179811,0.42027 1.379076,2.25832 2.664971,4.08422 1.285916,1.8258 2.548442,3.32357 2.805615,3.32711 0.865257,0.0141 5.19312,-2.54713 7.834184,-4.63585 l 2.619297,-2.07134 -0.965346,-1.90328 c -0.875166,-1.72495 -3.991221,-6.71526 -9.5822,-15.34779 -1.124914,-1.73689 -2.466004,-4.14136 -2.980971,-5.34273 -0.837422,-1.95363 -0.861686,-2.25902 -0.226495,-2.89421 0.635192,-0.6352 0.825365,-0.6026 1.797355,0.31052 0.597721,0.56152 4.33652,5.96328 8.30908,12.00334 3.972549,6.04005 7.57956,11.10237 8.015005,11.24986 0.966335,0.32763 3.908225,-1.1164 7.525496,-3.69425 2.5334,-1.80543 2.69093,-2.02814 2.47592,-3.49788 -0.13184,-0.90148 -1.78177,-3.88761 -3.875095,-7.01405 -3.646173,-5.44574 -6.684329,-10.92798 -6.684329,-12.06087 0,-0.33103 1.172695,-1.46874 2.606501,-2.52797 3.116638,-2.30237 2.904538,-2.4131 6.997623,3.63854 5.07266,7.49989 8.0755,10.86126 9.71554,10.87542 0.46698,0.003 1.20346,0.19571 1.63661,0.42558 1.27667,0.67753 6.15004,-0.28896 9.2242,-1.8293 4.59241,-2.30108 7.35683,-5.0524 9.39133,-9.34751 0.97359,-2.05541 1.98917,-3.72579 2.25765,-3.71342 0.26847,0.0124 1.33029,1.06216 2.359,2.33162 2.02544,2.49941 2.6566,2.76332 3.59745,1.50328 0.33606,-0.45008 1.24226,-1.12325 2.01379,-1.49596 0.77154,-0.37273 2.03408,-1.13095 2.80562,-1.68411 0.77154,-0.5532 2.34972,-1.45319 3.50703,-2.00009 5.15394,-2.43556 7.01404,-3.99649 7.01404,-5.88614 0,-1.18841 -2.55237,-5.41671 -3.26957,-5.41671 -0.49308,0 -0.97031,0.2084 -3.58283,1.56903 -2.04514,1.06514 -2.2004,1.01674 -3.71068,-1.16262 -1.13257,-1.63429 -1.43011,-2.73009 -1.93617,-7.13093 -0.32886,-2.85994 -0.67039,-6.25146 -0.75894,-7.53737 -0.17302,-2.5133 -1.99652,-6.84835 -3.6084,-8.5785 -1.04043,-1.11679 -1.77866,-1.66354 -2.9006,-1.60464 z m 38.2448,0.57993 c -0.007,0.0106 -0.0141,0.0201 -0.0201,0.0302 0.002,9.3e-4 0.005,0.002 0.007,0.003 0.003,-0.0124 0.008,-0.0253 0.0123,-0.0329 z m -1.9042,0.0375 c -0.005,0.002 -0.0106,0.003 -0.0159,0.007 0.005,-9.3e-4 0.0106,-0.002 0.0141,-0.003 9.4e-4,-10e-4 9.4e-4,-0.002 0.002,-0.003 z m -16.96339,0.61191 c 0.002,0.003 0.005,0.008 0.007,0.0123 0.002,0.002 0.0123,0.003 0.0106,0.002 -0.003,-0.003 -0.0123,-0.0106 -0.0177,-0.0141 z m 3.23395,0.15535 c -0.007,0.007 -0.0124,0.0123 -0.0193,0.0201 0.0201,-0.002 0.0399,-0.005 0.0602,-0.007 -0.003,-3.9e-4 -0.005,4.5e-4 -0.008,0 -0.0106,-0.002 -0.0211,-0.008 -0.032,-0.0124 z m -2.59192,0.65116 c 0.008,4.8e-4 0.0182,0.001 0.0274,0.002 -4.8e-4,-3.3e-4 -10e-4,-1.1e-4 -0.002,-9.4e-4 -0.008,-2.5e-4 -0.0341,-10e-4 -0.0256,-9.4e-4 z m 3.72987,0.48861 c -9.3e-4,0.002 -9.3e-4,0.005 -0.002,0.007 0.002,-0.002 0.008,-0.005 0.0106,-0.007 -0.002,-3e-4 -0.005,3.4e-4 -0.008,0 z m -0.0986,0.12795 c -0.008,0.007 -0.0106,0.0141 -0.0211,0.0211 -0.002,0.001 -0.005,0.001 -0.008,0.003 h 0.0141 c 0.005,-0.008 0.0106,-0.0159 0.0159,-0.0239 z m -2.80835,0.003 c -0.0315,0.0195 -0.0651,0.0396 -0.0338,0.0274 0.0141,-0.005 0.0265,-0.0159 0.0401,-0.0227 -0.002,-10e-4 -0.003,-0.003 -0.007,-0.005 z m 13.29745,0.12513 c -0.008,0.007 -0.0106,0.008 -0.0193,0.0141 0.003,0.018 0.002,0.0359 0.008,0.0539 0.0124,-0.002 0.018,-0.001 0.0292,-0.003 -0.007,-0.036 -0.0123,-0.037 -0.0182,-0.0649 z m -12.49469,0.0328 c 0.005,0.007 0.005,0.007 0.0106,0.0141 0.003,0.005 -0.0106,-0.0159 -0.008,-0.0141 -9.3e-4,7e-5 -0.002,-3e-5 -0.003,0 z m 12.26545,0.11789 c -0.0124,0.0177 -0.0214,0.0271 -0.032,0.0412 0.0141,-0.008 0.0292,-0.0183 0.043,-0.0265 -0.003,-0.005 -0.007,-0.0106 -0.0106,-0.0141 z m -1.25669,0.41188 c -0.007,0.005 -0.0159,0.0159 -0.0228,0.0247 0.0159,-0.007 0.0323,-0.0141 0.0485,-0.0211 -0.005,-0.0124 -0.0141,-0.008 -0.0256,-0.003 z m 0.60368,0.0694 c -0.0268,0.0159 -0.0535,0.0331 -0.0804,0.0493 0.003,9.2e-4 0.005,0.001 0.008,0.003 0.002,9.3e-4 0.005,0.002 0.008,0.003 0.024,-0.0217 0.0391,-0.0339 0.0631,-0.0548 z m -41.31252,10.27629 c 0.72562,9.4e-4 3.07208,3.16023 3.52803,4.75001 0.22505,0.7847 0.5341,2.72013 0.68679,4.30068 0.15271,1.58056 0.47555,4.13661 0.71692,5.67971 0.24138,1.54308 0.44028,2.96344 0.44204,3.15633 0.005,0.57646 -1.71454,0.39658 -2.23573,-0.2338 -0.82562,-0.99861 -6.09127,-9.11628 -6.80946,-10.49732 -0.37476,-0.72063 -1.1092,-1.80064 -1.63204,-2.40011 -0.52285,-0.59949 -0.85379,-1.33597 -0.73521,-1.63662 0.21937,-0.55582 5.18443,-3.12027 6.03866,-3.11888 z m -17.23648,12.41888 c 0.21338,0.0414 0.65578,0.49508 1.29871,1.46675 0.70923,1.07173 1.21815,2.28516 1.13158,2.69692 -0.10268,0.48798 -0.61241,-0.007 -1.46401,-1.4238 -1.04214,-1.73268 -1.32184,-2.80882 -0.96628,-2.73987 z m 3.04583,5.53361 c 0.13784,2.3e-4 0.46054,0.14139 0.83383,0.37445 0.49771,0.31082 0.8087,0.72065 0.69135,0.91055 -0.11735,0.1899 0.0816,0.51554 0.44203,0.72423 0.82431,0.47748 3.57279,4.79703 3.57279,5.61489 0,0.99313 -0.86024,0.69744 -1.62565,-0.55893 -0.39171,-0.64295 -1.07598,-1.74767 -1.51971,-2.45491 -1.12259,-1.78925 -2.46587,-4.27502 -2.46587,-4.56187 0,-0.0329 0.0253,-0.0484 0.0712,-0.0484 z m 22.70066,14.78062 c -1.06359,0 -2.19737,0.77183 -2.19737,1.49598 0,0.44151 1.48077,0.49436 2.53346,0.0905 1.13138,-0.43414 0.8872,-1.58638 -0.33609,-1.58638 z m -32.38514,3.27324 c -1.13638,0 2.73877,7.62121 5.05046,9.93291 0.45179,0.45169 0.82196,1.31244 0.82196,1.91242 0,0.84302 -0.23899,1.07233 -1.0521,1.01101 -0.57866,-0.0437 -1.93458,0.57054 -3.01294,1.36443 -1.59395,1.17349 -2.00727,1.79373 -2.20924,3.31433 -0.13662,1.02872 -0.20107,16.07077 -0.14332,33.42721 l 0.10499,31.55681 -1.40281,1.25484 c -1.48322,1.32683 -4.263455,2.33516 -8.884469,3.22209 -1.543079,0.29617 -4.785424,1.35966 -7.204912,2.36267 -2.419498,1.003 -4.774524,1.82384 -5.233138,1.82384 -0.458614,0 -0.977077,0.23205 -1.15257,0.516 -0.175492,0.28397 -1.156929,0.89137 -2.180934,1.34983 -2.094915,0.93793 -8.309995,5.94266 -8.309995,6.69166 0,0.26776 -0.350543,0.87455 -0.779027,1.34801 -0.539916,0.59661 -0.845964,2.00426 -0.995486,4.58745 -0.196945,3.4021 -0.09889,3.95796 1.120607,6.36835 1.726575,3.41251 5.007064,6.88534 7.667949,8.11819 2.367274,1.09682 3.317212,1.6484 5.470596,3.17276 0.822942,0.58256 3.032374,1.37867 4.909829,1.76905 4.752893,0.98823 4.96872,1.03944 7.856089,1.87133 1.414492,0.40748 4.851026,0.81493 7.636911,0.90505 2.78589,0.0901 5.18264,0.281 5.32628,0.42467 0.31487,0.31487 11.77422,-0.0991 12.33486,-0.44568 0.21671,-0.13397 2.23258,-0.45245 4.47967,-0.70779 2.56374,-0.29131 4.39817,-0.74681 4.92536,-1.22379 0.46208,-0.41823 0.97754,-0.62346 1.14525,-0.45574 0.16772,0.16771 0.53475,0.11769 0.81557,-0.11047 0.28086,-0.22823 1.24702,-0.51575 2.14715,-0.63928 2.54634,-0.34936 6.55797,-1.78717 9.02143,-3.23305 1.23292,-0.72363 2.39025,-1.31711 2.57183,-1.31877 0.18154,-0.002 1.34489,-0.8718 2.5846,-1.93435 6.2818,-5.38406 8.58417,-11.91171 6.58115,-18.65663 -0.60795,-2.04716 -1.32703,-3.07833 -3.78466,-5.42949 -1.66869,-1.59636 -3.80319,-3.2692 -4.74363,-3.71708 -4.24012,-2.01933 -13.25266,-4.92697 -14.7788,-4.76826 -0.86277,0.0898 -2.1083,-0.0568 -7.18117,-0.84206 -0.96032,-0.14862 -2.28908,-0.95975 -3.50702,-2.14165 l -1.96082,-1.90329 -0.10037,-36.00359 c -0.1101,-39.3857 -0.0263,-38.22745 -2.7563,-38.22745 -0.90265,0 -1.33018,0.34658 -1.72886,1.4028 -0.5852,1.55036 -1.02051,1.76427 -1.42839,0.70141 -0.1481,-0.38577 -0.56616,-0.70141 -0.9288,-0.70141 -0.36265,0 -0.92934,-0.6525 -1.25942,-1.44937 -0.55206,-1.33277 -5.20532,-6.49987 -5.85326,-6.49987 z m 8.40405,88.86828 c 0.38008,0.0106 0.85862,0.25558 1.25213,0.72972 0.344,0.41454 0.98731,0.88792 1.42928,1.0521 1.72259,0.63963 9.73711,7.8788 10.68637,9.65253 0.59708,1.11566 0.52424,1.30325 -1.20188,3.086 -1.82322,1.88302 -4.2963,3.51364 -5.02217,3.31159 -0.20772,-0.0578 -1.78586,0.1359 -3.50701,0.43014 -1.72114,0.29429 -3.45628,0.70439 -3.8559,0.91147 -0.39965,0.20702 -1.0309,0.18416 -1.40281,-0.0511 -0.37191,-0.23533 -1.98326,-0.43212 -3.58101,-0.43565 -4.0988,-0.0106 -7.536665,-1.3913 -9.479915,-3.80932 l -1.542532,-1.91972 5.877907,-5.78934 c 5.58154,-5.49716 5.9741,-5.78932 7.78212,-5.78932 1.38079,0 1.90419,-0.19278 1.90419,-0.70141 0,-0.46338 0.28115,-0.68804 0.66123,-0.67767 z m 11.5065,1.99463 c 1.30001,0.007 3.74369,0.48641 6.06879,1.2658 3.09274,1.03682 6.42464,1.94239 7.74925,2.10604 1.42609,0.17638 7.29169,4.06427 8.75476,5.80303 0.69567,0.82675 1.28473,1.85562 1.30965,2.28595 0.13768,2.37627 -0.22798,4.68593 -0.97448,6.14918 -1.35128,2.64873 -5.72569,6.43218 -9.51826,8.23327 -3.92768,1.86525 -12.17531,4.30821 -16.67297,4.93814 -4.62418,0.64765 -14.49812,0.85861 -16.57981,0.35437 -1.01775,-0.24653 -2.14837,-0.33343 -2.51246,-0.19363 -0.36409,0.13979 -1.951365,-0.0589 -3.527125,-0.44111 -1.575742,-0.3822 -4.299013,-1.01659 -6.051421,-1.41012 -2.790155,-0.62659 -5.738701,-1.78728 -10.841641,-4.2678 -1.978208,-0.96161 -4.955756,-3.82947 -6.26423,-6.03316 -2.255601,-3.79893 -1.071732,-6.18189 5.095232,-10.25164 3.988009,-2.63183 5.995925,-3.57427 11.024284,-5.17651 2.294903,-0.73127 4.504713,-1.61026 4.910745,-1.95261 0.97138,-0.8191 2.301481,-0.79547 2.301481,0.0401 0,0.36433 0.25713,0.74821 0.57171,0.85301 0.33138,0.11046 -0.45998,1.22259 -1.881359,2.64399 -4.418716,4.41869 -4.777578,5.72472 -2.63026,9.56666 1.44835,2.59142 2.684906,3.69698 4.293339,3.83854 0.7055,0.062 2.335285,0.3704 3.621205,0.68496 1.2859,0.31457 4.75785,0.65016 7.71544,0.74525 2.95758,0.0951 5.69306,0.22594 6.07883,0.29134 0.38577,0.0654 2.42579,-0.28637 4.53356,-0.78177 5.334,-1.25365 8.09715,-3.80251 8.79039,-8.10907 0.40851,-2.53771 -0.61805,-4.62351 -3.918,-7.95838 -1.31568,-1.32951 -2.39191,-2.64498 -2.39191,-2.92345 0,-0.20883 0.35435,-0.30346 0.94526,-0.30046 z" />
  </g>
</svg>
