<?xml version="1.0" encoding="UTF-8" standalone="no"?>
<svg
   xmlns:dc="http://purl.org/dc/elements/1.1/"
   xmlns:cc="http://creativecommons.org/ns#"
   xmlns:rdf="http://www.w3.org/1999/02/22-rdf-syntax-ns#"
   xmlns:svg="http://www.w3.org/2000/svg"
   xmlns="http://www.w3.org/2000/svg"
   xmlns:sodipodi="http://sodipodi.sourceforge.net/DTD/sodipodi-0.dtd"
   xmlns:inkscape="http://www.inkscape.org/namespaces/inkscape"
   width="210mm"
   height="297mm"
   viewBox="0 0 210 297.00001"
   version="1.1"
   id="svg8"
   inkscape:version="1.0 (4035a4fb49, 2020-05-01)"
   sodipodi:docname="09.svg">
  <defs
     id="defs2" />
  <sodipodi:namedview
     id="base"
     pagecolor="#ffffff"
     bordercolor="#666666"
     borderopacity="1.0"
     inkscape:pageopacity="0.0"
     inkscape:pageshadow="2"
     inkscape:zoom="0.58"
     inkscape:cx="457.89971"
     inkscape:cy="622.54664"
     inkscape:document-units="mm"
     inkscape:current-layer="layer1"
     inkscape:document-rotation="0"
     showgrid="false"
     inkscape:window-width="1920"
     inkscape:window-height="1001"
     inkscape:window-x="-9"
     inkscape:window-y="-9"
     inkscape:window-maximized="1" />
  <metadata
     id="metadata5">
    <rdf:RDF>
      <cc:Work
         rdf:about="">
        <dc:format>image/svg+xml</dc:format>
        <dc:type
           rdf:resource="http://purl.org/dc/dcmitype/StillImage" />
        <dc:title></dc:title>
      </cc:Work>
    </rdf:RDF>
  </metadata>
  <g
     inkscape:label="Ebene 1"
     inkscape:groupmode="layer"
     id="layer1"
     transform="translate(-97.27086,-81.886709)">
    <path
       style="fill:#000000;stroke-width:0.73688"
       d="m 180.7355,373.10333 c -13.88769,-0.93494 -18.62184,-4.99863 -20.17158,-17.31467 -0.85911,-6.82751 -0.68875,-30.9939 0.31522,-44.71671 0.2824,-3.86019 0.62421,-13.98832 0.75956,-22.50698 0.40956,-25.77897 2.46136,-36.68561 11.83444,-62.90726 8.14947,-22.7986 9.83211,-27.874 13.60889,-41.04932 6.01701,-20.99024 7.43103,-33.14107 7.05896,-60.65811 -0.46766,-34.589899 -0.73101,-33.6991 10.40027,-35.197096 8.9182,-1.200202 16.6395,-0.646171 18.32524,1.314689 1.60969,1.872488 2.94032,13.679267 2.05486,18.232777 -1.15096,5.91888 -1.21281,32.25562 -0.1108,47.18405 1.52353,20.63841 3.08902,26.7161 19.97682,77.55541 6.61484,19.91342 7.90768,36.55509 7.22817,93.04314 -0.41326,34.35444 -1.88363,39.39902 -12.678,43.49616 -6.67213,2.5325 -41.88019,4.64966 -58.60205,3.52392 z m 49.54763,-4.34485 c 13.37966,-1.93849 17.08348,-7.11585 17.78918,-24.86641 1.22011,-30.69042 0.85098,-72.02573 -0.76014,-85.12425 -1.06867,-8.68828 -5.76205,-27.8377 -7.45029,-30.39777 -1.39625,-2.11729 -13.40188,-41.44672 -15.82836,-51.85228 -3.41769,-14.65637 -5.10077,-49.29764 -3.16531,-65.14907 0.91756,-7.51509 0.25114,-17.625295 -1.23852,-18.789367 -3.15737,-2.467236 -18.90943,-1.055096 -20.69635,1.85541 -1.13959,1.85606 -1.50906,46.063057 -0.40809,48.824547 1.0475,2.62742 2.21808,-2.93863 2.04335,-9.71618 -0.21741,-8.42945 -0.57643,-8.11786 9.29155,-8.06123 6.18622,0.0356 6.18622,0.0356 7.117,20.28109 1.13532,24.69402 1.28375,26.83341 2.1185,30.53147 0.36364,1.61115 1.21758,5.40105 1.89763,8.42196 2.32669,10.33606 5.19546,19.39386 11.98639,37.84594 10.52739,28.60476 12.88725,40.54447 11.94147,60.41812 -0.16909,3.5522 -0.09,7.19902 0.17572,8.10404 0.26569,0.90502 0.34621,5.96215 0.17908,11.23804 -0.16728,5.2759 -0.26282,16.98987 -0.21233,26.03108 0.0504,9.04121 -0.2237,17.07216 -0.6093,17.84656 -0.38559,0.77441 -0.67558,2.27491 -0.6444,3.33444 0.11817,4.01625 -2.90794,7.94746 -8.39699,10.90861 -4.7672,2.5717 -14.24379,3.59195 -35.4019,3.81134 -33.96745,0.3522 -33.92727,0.40749 -33.18997,-45.61687 0.1365,-8.51868 0.20073,-16.6482 0.14276,-18.06559 -0.0584,-1.41738 0.22761,-4.37381 0.63467,-6.5698 0.40702,-2.19596 0.69377,-5.68769 0.63725,-7.75934 -0.23656,-8.70311 2.02025,-29.45885 3.78135,-34.76153 4.21564,-12.69336 5.3215,-15.89088 6.4682,-18.70213 11.73851,-28.77872 19.11278,-55.30613 19.5258,-70.23989 0.0505,-1.82607 0.18842,-3.65469 0.30654,-4.06362 0.11808,-0.40893 0.1529,-1.50769 0.0775,-2.44169 -0.23038,-2.8488 -1.37613,-1.08602 -1.72854,2.6592 -0.82485,8.76604 -1.13715,10.97098 -1.65352,11.67491 -0.304,0.4144 -1.01181,2.75741 -1.57298,5.20669 -2.04383,8.92083 -6.34121,22.5967 -14.26253,45.38884 -12.83314,36.925 -13.42209,40.1072 -13.99237,75.60608 -0.0457,2.83959 -0.29152,9.97921 -0.54649,15.86588 -1.912,44.14746 -1.62642,49.36127 2.89497,52.85273 2.9889,2.30802 9.04651,4.27851 14.58603,4.74464 8.08865,0.68063 40.60821,-0.17995 48.16356,-1.27474 z M 199.24944,148.04666 c -0.73711,-1.76389 -1.92459,-0.36053 -1.84966,2.18589 0.0686,2.33009 0.0686,2.33009 1.18995,0.6245 0.61675,-0.93809 0.91361,-2.20276 0.65971,-2.81039 z"
       id="path26" />
  </g>
</svg>
