<?xml version="1.0" encoding="UTF-8" standalone="no"?>
<svg
   xmlns:dc="http://purl.org/dc/elements/1.1/"
   xmlns:cc="http://creativecommons.org/ns#"
   xmlns:rdf="http://www.w3.org/1999/02/22-rdf-syntax-ns#"
   xmlns:svg="http://www.w3.org/2000/svg"
   xmlns="http://www.w3.org/2000/svg"
   xmlns:sodipodi="http://sodipodi.sourceforge.net/DTD/sodipodi-0.dtd"
   xmlns:inkscape="http://www.inkscape.org/namespaces/inkscape"
   sodipodi:docname="14.svg"
   inkscape:version="1.0 (4035a4fb49, 2020-05-01)"
   id="svg8"
   version="1.1"
   viewBox="0 0 137.33584 88.125801"
   height="88.125801mm"
   width="137.33585mm">
  <defs
     id="defs2" />
  <sodipodi:namedview
     inkscape:window-maximized="1"
     inkscape:window-y="-9"
     inkscape:window-x="-9"
     inkscape:window-height="1001"
     inkscape:window-width="1920"
     showgrid="false"
     inkscape:document-rotation="0"
     inkscape:current-layer="layer1"
     inkscape:document-units="mm"
     inkscape:cy="197.64241"
     inkscape:cx="220.0409"
     inkscape:zoom="1.23"
     inkscape:pageshadow="2"
     inkscape:pageopacity="0.0"
     borderopacity="1.0"
     bordercolor="#666666"
     pagecolor="#ffffff"
     id="base" />
  <metadata
     id="metadata5">
    <rdf:RDF>
      <cc:Work
         rdf:about="">
        <dc:format>image/svg+xml</dc:format>
        <dc:type
           rdf:resource="http://purl.org/dc/dcmitype/StillImage" />
        <dc:title></dc:title>
      </cc:Work>
    </rdf:RDF>
  </metadata>
  <g
     transform="translate(-52.294297,-95.847818)"
     id="layer1"
     inkscape:groupmode="layer"
     inkscape:label="Ebene 1">
    <path
       d="m 167.0574,95.84833 c -0.38613,0.0072 -0.84945,0.09705 -1.4397,0.262517 -0.62183,0.174367 -1.22086,0.261471 -1.33118,0.193269 -0.23543,-0.145492 -3.30009,0.469068 -4.37287,0.876949 -0.49666,0.188799 -0.90269,0.195014 -1.23144,0.01912 -0.32568,-0.173889 -0.52008,-0.172903 -0.57878,0.0031 -0.0962,0.288541 -0.64036,0.443287 -2.86494,0.816487 -0.80036,0.134271 -1.69334,0.352555 -1.98438,0.484725 -0.90567,0.4113 -3.23122,0.882998 -4.29948,0.872298 -0.32742,-0.0033 -0.59531,0.100864 -0.59531,0.230994 0,0.130121 -0.37283,0.236161 -0.82889,0.236161 -0.80908,0 -1.42646,0.13481 -4.50928,0.98237 -0.826,0.22707 -1.74836,0.34814 -2.05001,0.26924 -0.30165,-0.0789 -0.6151,-0.0358 -0.6966,0.0961 -0.0815,0.13187 -0.55002,0.23978 -1.04128,0.23978 -0.49125,0 -1.22848,0.12879 -1.63814,0.28629 -0.40966,0.1575 -1.40001,0.40696 -2.20038,0.55397 -0.80036,0.14701 -1.99099,0.37616 -2.64583,0.50901 -0.65484,0.13284 -1.78825,0.2824 -2.51871,0.3328 -0.73046,0.0504 -1.7425,0.22134 -2.24896,0.37931 -1.58709,0.49498 -7.81485,1.65002 -9.51983,1.76578 -0.50932,0.0346 -1.10463,0.13333 -1.32292,0.21962 -0.32471,0.1284 -2.83713,0.60954 -5.68854,1.08883 -0.29104,0.0489 -0.58866,0.12101 -0.66146,0.16071 -0.0728,0.0397 -0.54901,0.0985 -1.05833,0.13023 -0.97125,0.0605 -5.2015,0.55428 -7.01146,0.81855 -0.58208,0.085 -1.53459,0.20128 -2.11667,0.25838 -0.58209,0.0571 -1.653648,0.21425 -2.381249,0.34933 -5.232464,0.97157 -7.650777,1.30904 -9.468155,1.32034 -0.841864,0.005 -1.633307,0.0732 -1.759066,0.15089 -0.125759,0.0777 -1.567609,0.20596 -3.20394,0.28526 -1.636342,0.0793 -3.171608,0.24927 -3.411678,0.37775 -0.240048,0.12848 -2.395685,0.24005 -4.790405,0.24805 -9.33184,0.0304 -12.968113,0.46966 -14.721065,1.77818 -0.46323,0.34579 -0.965524,0.62839 -1.115694,0.62839 -0.42141,0 -2.12698,1.58431 -2.534729,2.35438 -0.200462,0.37858 -0.708769,1.05918 -1.129647,1.51257 -0.420881,0.45337 -0.973215,1.52494 -1.227315,2.38125 -0.254089,0.85631 -0.761016,2.53565 -1.126546,3.73155 -0.365519,1.19589 -0.594061,2.28919 -0.507463,2.42931 0.0866,0.14012 0.0368,0.32925 -0.111104,0.42065 -0.147888,0.0914 -0.269234,0.39761 -0.269234,0.68006 0,0.28245 -0.08929,0.51324 -0.198438,0.51315 -0.109148,-9e-5 -0.198988,0.74404 -0.199988,1.65364 -0.0011,0.90959 -0.0551,2.78475 -0.120406,4.16719 -0.17921,3.79143 0.441688,13.78483 0.902788,14.5309 0.08569,0.13865 0.265635,1.06305 0.399975,2.05465 0.134332,0.9916 0.496049,3.23174 0.803569,4.97799 0.30753,1.74625 0.517653,3.55355 0.467155,4.01629 -0.05046,0.46273 0.0021,0.7832 0.117305,0.7121 0.115088,-0.0711 0.20929,-0.0118 0.20929,0.13178 0,0.86578 0.616544,4.46621 0.834574,4.8736 0.14346,0.26806 0.283691,0.98577 0.311092,1.59474 0.02743,0.60897 0.149185,1.26245 0.270785,1.45262 0.1216,0.19017 0.148112,0.63665 0.05891,0.99219 -0.09256,0.36875 -0.04632,0.64647 0.107487,0.64647 0.148288,0 0.269234,0.1791 0.269234,0.39791 0,0.21881 0.238128,0.84243 0.529167,1.38545 0.291041,0.54301 0.529166,1.12287 0.529166,1.28881 0,2.28897 3.089614,5.86397 5.820834,6.7355 h 5.29e-4 c 0.742839,0.23705 10.303803,0.0203 10.715625,-0.24288 0.145518,-0.093 1.990993,-0.25867 4.10104,-0.36793 4.679778,-0.24234 6.894322,-0.41557 9.657292,-0.75655 1.164169,-0.14367 3.604942,-0.40994 5.423958,-0.59169 1.81901,-0.18174 3.485885,-0.40058 3.704167,-0.48628 0.218278,-0.0857 1.468445,-0.28373 2.77813,-0.43976 1.30969,-0.15602 3.98859,-0.52022 5.95312,-0.80926 1.96453,-0.28904 4.10765,-0.59377 4.7625,-0.67747 0.65484,-0.0837 2.8575,-0.39227 4.89479,-0.68575 7.10549,-1.02358 8.06979,-1.2124 8.06979,-1.57923 0,-0.1161 0.21874,-0.15374 0.48628,-0.0837 0.26752,0.07 1.36887,-0.009 2.4474,-0.17466 1.07852,-0.16582 2.25877,-0.34686 2.62257,-0.40256 0.36381,-0.0557 1.4949,-0.29324 2.51355,-0.52814 1.01864,-0.2349 2.0902,-0.46024 2.38125,-0.50074 0.29103,-0.0405 0.94589,-0.17426 1.4552,-0.29714 0.50932,-0.1229 1.13129,-0.19456 1.38235,-0.15916 0.25106,0.0354 0.84638,-0.11151 1.32291,-0.3266 0.47656,-0.21509 1.66182,-0.46879 2.63395,-0.56379 0.97212,-0.095 2.40087,-0.34119 3.175,-0.54725 0.77412,-0.20606 1.73509,-0.37576 2.13527,-0.37776 0.50732,-0.002 0.73378,-0.14327 0.74828,-0.46612 0.0115,-0.25464 0.0753,-0.3318 0.14159,-0.17105 0.13314,0.32256 1.37448,0.17842 1.87689,-0.21807 0.17552,-0.1385 0.44057,-0.1766 0.58911,-0.0848 0.14854,0.0918 0.7786,0.0246 1.40043,-0.14883 1.13992,-0.31792 1.80976,-0.43957 2.64274,-0.48007 0.2496,-0.0121 0.87405,-0.39098 1.38751,-0.84181 0.77903,-0.68398 0.96067,-0.74969 1.09606,-0.39688 0.18222,0.4749 1.04095,0.57101 1.30379,0.14573 0.1173,-0.18977 0.28889,-0.17998 0.54312,0.031 0.28665,0.2379 0.57909,0.20993 1.27848,-0.12195 0.49865,-0.23663 1.30292,-0.49816 1.78748,-0.58136 0.48456,-0.0832 1.11921,-0.2584 1.41025,-0.38912 0.29104,-0.13072 0.85992,-0.35744 1.26401,-0.50385 0.40409,-0.14641 0.83062,-0.52637 0.94826,-0.84439 0.14157,-0.38271 0.27893,-0.47376 0.40566,-0.26872 0.28522,0.4615 0.79624,0.37773 1.61282,-0.26458 0.63419,-0.49885 0.67643,-0.61375 0.32143,-0.87333 -0.34648,-0.25335 -0.19602,-0.46364 0.98598,-1.37822 1.45561,-1.12626 2.11449,-2.25015 1.17513,-2.00452 -0.79405,0.20765 -0.57142,-0.29843 0.30127,-0.68472 1.11477,-0.49345 1.54051,-1.34205 0.90589,-1.80609 -0.45577,-0.33327 -0.45191,-0.3514 0.078,-0.3514 0.53531,0 1.40142,-1.66867 1.04903,-2.02106 -0.0733,-0.0733 0.03,-0.44766 0.22944,-0.83199 0.27362,-0.52736 0.28654,-0.74574 0.0517,-0.8909 -0.22801,-0.14092 -0.19627,-0.32081 0.11782,-0.6718 0.78169,-0.87357 1.61065,-4.60854 1.17823,-5.3082 -0.13158,-0.21291 -0.0503,-0.33021 0.22841,-0.33021 0.32355,0 0.41819,-0.21705 0.37569,-0.8599 -0.0313,-0.47294 0.038,-1.08546 0.15451,-1.36116 0.15035,-0.35562 0.0699,-0.60548 -0.27802,-0.85989 -0.43658,-0.31931 -0.44109,-0.35864 -0.0434,-0.35864 0.50551,0 1.28948,-1.59166 0.9617,-1.95233 -0.11617,-0.1278 -0.0707,-0.46241 0.10077,-0.74363 0.25531,-0.41874 0.22638,-0.57475 -0.15917,-0.86093 -0.37013,-0.27475 -0.39326,-0.37939 -0.108,-0.48886 0.38677,-0.14842 0.50635,-5.50794 0.13126,-5.88284 -0.10058,-0.10052 -0.0441,-0.40524 0.12557,-0.67696 0.23692,-0.37941 0.23342,-0.56914 -0.0155,-0.81804 -0.44066,-0.44069 -0.40785,-0.74724 0.0806,-0.74724 0.63513,0 0.77963,-0.77396 0.22324,-1.19528 -0.28707,-0.21739 -0.35671,-0.37895 -0.16536,-0.38395 0.43035,-0.011 0.43035,-0.98084 0,-1.16169 -0.23685,-0.0995 -0.19929,-0.22211 0.13229,-0.43201 0.25466,-0.16119 0.46302,-0.45306 0.46302,-0.64854 0,-0.19549 -0.20836,-0.43572 -0.46302,-0.53382 -0.44098,-0.16989 -0.44098,-0.19066 0,-0.43822 0.56189,-0.31544 0.60674,-0.98916 0.0791,-1.19165 -0.30748,-0.118 -0.3226,-0.24735 -0.0734,-0.64648 0.2401,-0.38473 0.23851,-0.57249 -0.009,-0.81959 -0.25098,-0.25092 -0.23854,-0.41054 0.0563,-0.73638 0.56308,-0.62221 0.23054,-2.50263 -0.58705,-3.32022 -0.52011,-0.52011 -0.56966,-0.663 -0.22996,-0.663 0.23812,0 0.43305,-0.0497 0.43305,-0.11059 0,-0.0609 0.0717,-0.29831 0.15968,-0.52762 0.1069,-0.27858 -0.0467,-0.49985 -0.46302,-0.66662 -0.41061,-0.16446 -0.47462,-0.25504 -0.1881,-0.26614 0.83441,-0.0322 0.91115,-1.33945 0.0786,-1.33945 -0.45997,0 -0.49205,-0.31258 -0.0749,-0.72967 0.23195,-0.23199 0.21885,-0.41151 -0.0537,-0.74001 -0.30763,-0.37069 -0.29407,-0.47024 0.0909,-0.68574 0.65655,-0.36743 0.55582,-0.80909 -0.36897,-1.62058 -0.66925,-0.58725 -0.74191,-0.74868 -0.39687,-0.88108 0.60617,-0.23261 0.52038,-0.88034 -0.14935,-1.1281 -0.48923,-0.18097 -0.50829,-0.23553 -0.13229,-0.37982 0.48996,-0.18802 0.59521,-1.11621 0.1571,-1.38699 -0.15548,-0.0961 -0.21724,-0.34569 -0.13694,-0.55501 0.16374,-0.42668 -0.32282,-1.43376 -0.8568,-1.77302 -0.28145,-0.17881 -0.25957,-0.32216 0.11111,-0.73174 0.43867,-0.48479 0.43779,-0.52619 -0.0207,-0.86144 -0.33441,-0.24453 -0.38872,-0.40985 -0.17725,-0.54054 0.54811,-0.33876 0.32005,-1.1884 -0.47697,-1.77767 -0.61048,-0.45138 -0.72715,-0.67841 -0.53433,-1.038696 0.24367,-0.455318 -1.38297,-2.632397 -1.96681,-2.632397 -0.12564,0 -0.50513,-0.298586 -0.84336,-0.663526 -0.44518,-0.480361 -0.8742,-0.698278 -1.51774,-0.686263 z m 13.08396,11.66802 -5.3e-4,5.2e-4 c -0.64136,0 -1.04845,1.13207 -0.601,1.67121 0.15571,0.18758 0.21402,0.60337 0.13023,0.92398 -0.0839,0.32063 -0.0383,0.73096 0.10129,0.91209 0.13953,0.18112 0.27517,1.28168 0.30127,2.44584 0.0261,1.16417 0.18158,2.45099 0.3452,2.85926 0.20996,0.52393 0.21442,0.82481 0.016,1.02319 -0.25971,0.25971 -0.19534,1.6652 0.11886,2.59984 0.11734,0.34905 0.36208,5.56281 0.31058,6.61459 -0.0107,0.21828 -0.0457,1.17981 -0.078,2.13682 -0.0323,0.95701 -0.12488,1.84997 -0.20568,1.98437 -0.0808,0.13439 -0.12962,1.53388 -0.10852,3.10989 0.0245,1.83637 -0.068,2.95388 -0.25786,3.11144 -0.37645,0.31245 -0.39285,2.43107 -0.0207,2.66805 0.19052,0.1213 0.19391,0.29041 0.0114,0.52917 -0.14761,0.19299 -0.28242,0.85848 -0.29972,1.47846 -0.0173,0.61998 -0.12046,1.27113 -0.22945,1.44746 -0.10899,0.17633 -0.16525,0.7766 -0.12505,1.33377 0.0402,0.55718 -0.0761,1.19273 -0.25839,1.41231 -0.18224,0.21959 -0.34957,0.97714 -0.37207,1.68311 -0.0227,0.71241 -0.24698,1.59753 -0.50384,1.98954 -0.25452,0.38846 -0.39223,0.89072 -0.30592,1.11569 0.0863,0.22496 0.0227,0.57097 -0.1416,0.76895 -0.16454,0.19798 -0.23531,0.5252 -0.15761,0.7276 0.0777,0.2024 0.0257,0.48379 -0.11524,0.62477 -0.14098,0.14098 -0.28294,0.67589 -0.31574,1.18908 -0.0328,0.51318 -0.2206,1.12706 -0.41703,1.36374 -0.25991,0.31312 -0.2791,0.52414 -0.0708,0.77514 0.21436,0.25829 0.11869,0.52531 -0.38034,1.0635 -0.36657,0.39533 -0.63064,0.92939 -0.58704,1.18649 0.0436,0.25712 -0.18981,0.80917 -0.51831,1.2268 -0.36093,0.45883 -0.53585,0.95232 -0.44236,1.24696 0.0851,0.26816 0.0437,0.4873 -0.092,0.4873 -0.13566,0 -1.33545,1.08895 -2.66599,2.41949 -1.59278,1.59278 -2.98321,2.71208 -4.07055,3.27681 -0.90832,0.47175 -2.00877,1.04901 -2.44533,1.28312 -0.43657,0.2341 -1.05728,0.42658 -1.37976,0.42737 -0.32248,7.9e-4 -0.97733,0.16714 -1.45521,0.36948 -0.47788,0.20234 -1.58358,0.50628 -2.45669,0.67541 -0.87314,0.16915 -1.82563,0.3649 -2.11667,0.4346 -1.21839,0.29196 -3.29186,0.67193 -5.00641,0.91726 -1.00739,0.14414 -1.95989,0.35971 -2.11667,0.47956 -0.15676,0.11985 -1.35681,0.36621 -2.6665,0.54725 -1.30969,0.18106 -3.03609,0.50601 -3.83646,0.72192 -0.80036,0.21589 -2.11005,0.44696 -2.91042,0.51366 -0.80036,0.0667 -1.75287,0.2341 -2.11667,0.37207 -1.11538,0.42297 -13.59358,2.79567 -16.00729,3.04375 -0.87313,0.0897 -2.18281,0.27566 -2.91041,0.41341 -0.7276,0.13775 -1.8587,0.30193 -2.51355,0.36483 -1.17621,0.11298 -3.25352,0.43417 -6.08541,0.94103 -0.80036,0.14325 -2.82442,0.43557 -4.49792,0.64957 -1.67347,0.214 -4.23333,0.56328 -5.68854,0.77567 -1.45521,0.2124 -4.37224,0.57618 -6.482292,0.80873 -2.110052,0.23254 -4.705901,0.54827 -5.768639,0.70177 -1.062731,0.15352 -3.801179,0.39358 -6.085417,0.5333 -2.284251,0.13972 -5.701048,0.37701 -7.592819,0.5271 -1.891768,0.15008 -5.034038,0.32102 -6.983036,0.37982 -3.836471,0.11568 -3.989514,0.15161 -3.441134,0.81235 h -5.29e-4 c 0.325911,0.3927 0.850048,0.4231 4.734078,0.27492 2.40217,-0.0916 8.892069,-0.28476 14.421858,-0.42943 5.529792,-0.14469 11.524348,-0.31118 13.321668,-0.36948 1.131403,-0.0367 1.948876,-0.0501 2.568832,-0.0393 -0.003,-0.0236 -0.003,-0.04 -0.009,-0.0729 -0.003,-0.0175 0.0357,-0.003 0.0537,-0.004 0.0456,-0.002 0.0913,-1.5e-4 0.13694,-0.002 0.0459,-0.0481 0.10915,-0.0355 0.17829,-0.002 0.10661,-0.002 0.21331,-0.006 0.31988,-0.005 0.0131,0.0347 0.0188,0.0775 0.0269,0.11782 0.0552,0.005 0.12368,0.007 0.1726,0.0129 -0.008,-0.026 -0.0223,-0.0596 -0.0269,-0.0816 -0.007,-1.9e-4 -0.0134,2.2e-4 -0.0202,0 -0.006,-2.1e-4 0.0163,-0.0138 0.0176,-0.008 5.3e-4,0.002 0.002,0.006 0.003,0.008 0.45772,0.0132 0.91525,-0.0389 1.36581,-0.11524 v -0.002 c 0.0492,-0.008 0.096,-0.0127 0.14004,-0.014 0.27026,-0.008 0.43809,0.10944 0.49609,0.25683 1.39075,-0.18777 5.24888,-0.23933 15.51843,-0.34416 8.07642,-0.0824 17.78,-0.21432 21.56355,-0.29353 3.78355,-0.0792 12.71322,-0.19741 19.84375,-0.26251 16.58155,-0.15135 16.63644,-0.15473 18.69343,-1.19579 1.32768,-0.67196 3.66386,-2.99884 3.66386,-3.64939 0,-0.29326 0.16303,-0.62828 0.36225,-0.74466 0.62593,-0.36563 0.81097,-1.40253 0.25063,-1.40353 -0.33508,-7.9e-4 -0.21565,-0.16247 0.39429,-0.53433 1.44182,-0.87932 2.36454,-3.403 1.44022,-3.94137 -0.43112,-0.25133 -0.43188,-0.2705 -0.009,-0.2775 0.47553,-0.008 1.02902,-0.82208 1.17357,-1.72548 0.25076,-1.56707 0.57986,-2.80856 0.82372,-3.10627 0.38478,-0.46975 0.85351,-3.72337 0.57826,-4.01422 -0.12572,-0.13284 -0.10591,-0.46365 0.0444,-0.74466 0.19106,-0.35704 0.17852,-0.61598 -0.0424,-0.88212 -0.24664,-0.29715 -0.22278,-0.4113 0.11265,-0.54001 0.32889,-0.12621 0.38925,-0.38825 0.26665,-1.15497 -0.1225,-0.76605 -0.0618,-1.02861 0.26614,-1.15445 0.51476,-0.19753 0.59526,-2.28414 0.10697,-2.77245 -0.24694,-0.24689 -0.21754,-0.31781 0.13229,-0.31781 0.32442,0 0.45874,-0.23966 0.48214,-0.85989 0.0179,-0.47294 0.0624,-1.43458 0.0992,-2.13734 0.0487,-0.93136 -0.0397,-1.31897 -0.32608,-1.42885 -0.341,-0.13085 -0.33759,-0.18097 0.0233,-0.38292 0.33994,-0.19021 0.4123,-0.7562 0.39739,-3.10266 -0.01,-1.57832 0.064,-3.12843 0.16433,-3.44475 0.10097,-0.31813 0.0488,-0.73638 -0.11679,-0.93586 -0.19113,-0.23032 -0.20526,-0.41846 -0.0388,-0.52141 0.33984,-0.21 0.31561,-2.30288 -0.0315,-2.73059 -0.18476,-0.22759 -0.17538,-0.33073 0.0289,-0.33073 0.44774,0 0.35619,-1.05216 -0.10697,-1.22989 -0.29798,-0.11435 -0.3289,-0.24445 -0.11834,-0.49817 0.59869,-0.72137 0.19906,-3.39 -0.5364,-3.5822 -0.56673,-0.14811 -0.59515,-0.20121 -0.19844,-0.37001 0.57009,-0.24256 0.59601,-0.75904 0.0605,-1.20354 -0.35464,-0.29433 -0.33428,-0.38177 0.17054,-0.73536 0.50075,-0.35073 0.52222,-0.43896 0.16846,-0.69763 -0.32928,-0.24078 -0.36275,-0.56334 -0.1788,-1.72703 0.15994,-1.01149 0.13412,-1.54179 -0.0873,-1.80867 -0.1723,-0.20765 -0.27943,-0.76862 -0.23823,-1.24695 0.0412,-0.47835 -0.0593,-0.95288 -0.22324,-1.0542 -0.17581,-0.10868 -0.23054,-0.48981 -0.13384,-0.93018 0.11981,-0.5455 0.0435,-0.81402 -0.28319,-0.99684 -0.30347,-0.16984 -0.351,-0.30933 -0.14831,-0.4346 0.46954,-0.29018 0.35042,-1.05585 -0.26717,-1.71875 -0.40686,-0.43672 -0.47688,-0.66207 -0.2496,-0.80254 0.68986,-0.42635 -0.2819,-3.97019 -2.14405,-7.81864 -0.25558,-0.52819 -1.88438,-1.71979 -2.35076,-1.71979 -0.13543,0 -0.2465,-0.10655 -0.2465,-0.23668 0,-0.48009 -1.55259,-1.87999 -2.08515,-1.87999 z m -23.93911,2.91352 h 5.3e-4 c 0.12342,-0.002 0.24089,0.073 0.34469,0.24029 0.24147,0.38915 1.62827,0.44399 3.50986,0.1385 0.91427,-0.14844 0.99269,-0.10798 1.14618,0.58963 0.0907,0.412 0.20742,0.88913 0.25942,1.0604 0.052,0.17125 -0.0821,0.45783 -0.29817,0.63717 -0.26578,0.22059 -0.33939,0.57134 -0.22686,1.08365 0.13061,0.59468 0.0339,0.86595 -0.45114,1.26349 -0.52432,0.42978 -0.56975,0.58526 -0.29972,1.02888 0.26735,0.43922 0.23358,0.5789 -0.21239,0.87695 -0.49839,0.33308 -0.73056,0.9629 -1.30225,3.5295 -0.19578,0.87896 -0.15609,1.12414 0.23513,1.44694 0.44302,0.36554 0.42255,0.4214 -0.3421,0.93534 -0.94359,0.6342 -1.25818,1.71689 -0.50074,1.72289 0.35948,0.003 0.39324,0.06 0.13332,0.22479 -0.52432,0.33248 -1.10408,1.58786 -0.93586,2.02624 0.083,0.21624 -0.0385,0.45822 -0.27595,0.54932 -0.54584,0.20935 -0.55033,1.05963 -0.007,1.26814 0.33717,0.12938 0.26073,0.29208 -0.39688,0.84542 -0.81769,0.68805 -1.10172,1.68963 -0.48369,1.70533 0.23043,0.006 0.21028,0.10621 -0.0661,0.33073 -0.68923,0.55976 -1.73674,3.1739 -1.45469,3.63026 0.10103,0.16347 0.008,0.49814 -0.20567,0.74363 -0.21413,0.2455 -0.5412,0.91901 -0.72708,1.49706 -0.1859,0.57807 -0.50811,1.22124 -0.71572,1.42886 -0.20764,0.20761 -0.31613,0.61151 -0.24133,0.89762 0.15326,0.58606 -0.33011,1.51722 -0.78755,1.51722 -0.16545,0 -0.44303,0.17175 -0.61702,0.38137 -0.17397,0.20962 -0.46177,0.32545 -0.63924,0.25735 -0.17748,-0.0681 -0.79355,-0.0214 -1.36942,0.10387 -0.85179,0.1852 -1.31228,0.11253 -2.4691,-0.38964 -1.46758,-0.63706 -3.83413,-0.83918 -4.13463,-0.35295 -0.0899,0.14552 -0.37544,0.26458 -0.63459,0.26458 -0.31541,0 -0.58701,0.3515 -0.82165,1.06247 -0.1928,0.58416 -0.50691,1.19158 -0.69815,1.3503 -0.25976,0.21556 -0.27632,0.42238 -0.0651,0.81701 0.23222,0.43391 0.15589,0.66043 -0.42633,1.26814 -0.58896,0.61474 -0.65973,0.83135 -0.41961,1.28002 0.15899,0.29701 0.19263,0.59961 0.0749,0.67231 -0.26972,0.1667 -0.23397,2.03732 0.0476,2.49288 0.11744,0.19005 0.0703,0.50951 -0.10646,0.72243 -0.17771,0.2141 -0.23154,0.58709 -0.12299,0.84853 0.28765,0.69287 0.32882,1.99154 0.0796,2.50372 -0.15928,0.32728 -0.0204,0.63412 0.5085,1.12448 0.40006,0.37092 0.57935,0.67438 0.39894,0.67438 -0.40455,0 -0.43209,0.84845 -0.0403,1.24023 0.20712,0.20713 0.20712,0.3376 0,0.46561 -0.15821,0.0978 -0.28785,0.47542 -0.28785,0.83922 0,0.3736 0.11515,0.59005 0.26459,0.49765 0.14552,-0.0899 0.26458,-0.0373 0.26458,0.11678 0,0.15411 -0.11059,0.28009 -0.24598,0.28009 -0.1354,0 -0.28423,0.25695 -0.33073,0.57051 -0.0563,0.37935 -0.39474,0.67555 -1.01079,0.88625 -4.13803,1.41471 -4.71353,0.87252 -4.77593,-4.49947 -0.022,-1.89177 -0.14383,-4.09444 -0.27079,-4.89479 -0.22054,-1.39036 -0.34002,-5.61699 -0.27492,-9.72344 0.0304,-1.91823 0.0306,-1.91822 0.80874,-1.91822 0.42797,0 0.83914,-0.0986 0.91364,-0.21911 0.51757,-0.83746 3.59978,-0.0671 3.59978,0.89968 0,0.58787 0.38675,0.4549 1.5813,-0.54312 1.05518,-0.88157 1.97651,-1.25287 3.95273,-1.59266 0.49708,-0.0855 1.03285,-0.23553 1.19062,-0.33383 0.15777,-0.0981 0.53321,-0.14691 0.83458,-0.10801 1.78893,0.23086 4.27973,-2.751 3.22099,-3.85609 -0.6516,-0.68012 -0.67283,-0.76623 -0.25528,-1.0387 0.36582,-0.23871 0.39034,-0.36462 0.12454,-0.64182 -0.1819,-0.18969 -0.33393,-0.6485 -0.33693,-1.01958 -0.003,-0.37108 -0.23249,-0.97046 -0.51005,-1.3317 -0.36192,-0.47105 -0.42713,-0.75036 -0.22944,-0.98857 0.20261,-0.24413 0.0337,-0.57453 -0.63821,-1.24643 -0.77445,-0.77446 -0.85876,-0.96955 -0.55138,-1.27693 0.30738,-0.30738 0.28306,-0.45463 -0.15762,-0.96273 -0.2861,-0.32986 -0.45488,-0.76863 -0.37568,-0.97513 0.0792,-0.2065 -5.3e-4,-0.37569 -0.17725,-0.37569 -0.17666,0 -0.25592,-0.1696 -0.17622,-0.37724 0.0797,-0.20764 -0.0102,-0.50644 -0.19947,-0.66353 -0.18931,-0.15708 -0.29254,-0.55564 -0.22944,-0.88573 0.074,-0.38682 -0.11611,-0.84891 -0.53434,-1.30018 -0.42359,-0.4571 -0.55886,-0.78989 -0.38964,-0.95911 0.27357,-0.27356 -0.26452,-2.16421 -0.61598,-2.16421 -0.1026,0 -0.12432,-0.23839 -0.0481,-0.5302 0.0763,-0.29181 0.0222,-0.67878 -0.12041,-0.8599 -0.14264,-0.18112 -0.34506,-0.68614 -0.44958,-1.12189 -0.10453,-0.43575 -0.31941,-0.94797 -0.47749,-1.13843 -0.32518,-0.39183 -0.38582,-1.91806 -0.0951,-2.38849 0.10559,-0.17087 0.69406,-0.31109 1.30793,-0.31109 0.61389,0 1.39084,-0.19224 1.72651,-0.42737 0.44911,-0.31455 0.68816,-0.3495 0.90537,-0.13229 0.16236,0.16236 0.51399,0.29508 0.78083,0.29508 0.56674,0 1.68924,1.74773 1.57097,2.44584 -0.0438,0.25857 0.16424,0.78045 0.4625,1.15962 0.34834,0.44285 0.46518,0.82723 0.3266,1.07487 -0.2297,0.41044 -0.0792,1.46813 0.63355,4.44779 0.57434,2.40093 0.93838,3.30762 1.11466,2.77812 0.0727,-0.21827 0.30683,-0.59735 0.52038,-0.84284 0.21356,-0.2455 0.31503,-0.56464 0.22583,-0.709 -0.17754,-0.28726 0.28173,-2.45793 0.72244,-3.41426 0.19763,-0.42886 0.19106,-0.68629 -0.0227,-0.9002 -0.22308,-0.22308 -0.16434,-0.47144 0.22944,-0.97204 0.29085,-0.36977 0.49697,-0.91721 0.45837,-1.21646 -0.0386,-0.29925 0.0336,-0.71057 0.1602,-0.91416 0.12664,-0.20358 0.26174,-0.73936 0.30024,-1.19062 0.15693,-1.83783 0.80655,-3.31892 1.34204,-3.33158 z m -20.684,4.44882 h 0.001 c 0.81705,-0.0128 1.54805,0.1578 2.12029,0.51263 1.58176,0.98081 2.79782,2.44982 2.49546,3.01481 -0.14417,0.26881 -0.14641,0.51626 -0.006,0.60306 0.13127,0.081 0.18809,0.88255 0.1266,1.7818 -0.0754,1.10187 -0.008,1.70001 0.20826,1.83348 0.2482,0.15337 0.24265,0.29201 -0.0253,0.61495 -0.27809,0.33508 -0.28092,0.49536 -0.0145,0.81649 0.22762,0.27423 0.31368,1.25009 0.27388,3.10885 -0.0314,1.49004 -0.0447,2.85823 -0.0284,3.04013 0.0374,0.41282 0.038,1.24399 0.003,1.85208 -0.0149,0.25466 -0.15806,0.73313 -0.31833,1.0635 -0.21422,0.4415 -0.21126,0.6807 0.0103,0.90227 0.30292,0.30292 -1.50638,2.80189 -2.17144,2.9993 -0.1563,0.0464 -0.96823,0.28895 -1.80454,0.53899 -1.43377,0.42886 -1.6263,0.42953 -3.37137,0.005 -2.27815,-0.55374 -2.45459,-0.46015 -2.26912,1.20561 0.10211,0.91699 0.0477,1.3376 -0.18293,1.4087 l -5.3e-4,-5.3e-4 c -0.1808,0.0558 -1.42998,0.16344 -2.77605,0.23874 -2.831,0.15838 -2.50331,0.70628 -2.50631,-4.19457 -10e-4,-1.60073 -0.10325,-3.03681 -0.22686,-3.19102 -0.12361,-0.15419 -0.25551,-2.80334 -0.29301,-5.88698 -0.0375,-3.08364 -0.13212,-5.60638 -0.21032,-5.60638 -0.37938,0 -0.81389,-1.11805 -0.55552,-1.42937 0.34984,-0.4215 0.30053,-2.2958 -0.0729,-2.7683 -0.45289,-0.57315 0.76809,-1.42706 1.73632,-1.2144 0.41861,0.0919 0.90922,0.0444 1.09038,-0.10594 0.18115,-0.15037 1.45617,-0.26291 2.83341,-0.25011 1.4444,0.0134 2.84014,-0.11565 3.29799,-0.30489 0.91567,-0.37848 1.81882,-0.57495 2.63602,-0.58808 z m -18.82159,1.20303 c 0.29033,-0.008 0.48785,0.0267 0.54415,0.11782 0.0861,0.13929 0.54502,0.33005 1.01958,0.42375 3.76457,0.74334 4.12951,19.15176 0.43201,21.79143 -0.91283,0.6517 -4.46033,0.70152 -5.64462,0.0796 -0.57648,-0.30273 -1.18721,-0.55035 -1.35702,-0.55035 -0.38454,0 -0.93947,2.06225 -0.60978,2.26601 0.49667,0.30696 0.22643,1.19081 -0.44184,1.44488 -1.2429,0.47255 -4.55677,0.3282 -4.71185,-0.20516 -0.18874,-0.64907 -0.52074,-11.83112 -0.54364,-18.31929 -0.0216,-6.11773 -0.20061,-5.78624 3.34347,-6.18516 1.32988,-0.14969 1.57342,-0.10164 2.04122,0.4005 0.39504,0.42402 0.61918,0.49703 0.87436,0.28525 0.79601,-0.66062 3.79589,-1.51326 5.05396,-1.54926 z m -45.945003,0.76223 c 1.831668,0.0215 1.989876,0.4828 1.842781,2.28926 -0.238651,2.9307 0.262484,4.05081 1.208195,2.70061 1.455359,-2.07782 7.112054,-2.18607 7.885825,-0.15089 0.136057,0.35785 0.359243,0.6506 0.495575,0.6506 0.352959,0 0.540618,1.48056 0.687298,5.42396 0.07037,1.89177 0.205456,4.8088 0.300757,6.48229 0.09529,1.6735 0.18637,5.02738 0.20257,7.45278 0.0335,5.02787 0.039,5.04312 1.400948,3.99149 3.25566,-2.51386 7.866771,-1.38739 8.586041,2.09754 0.706654,3.42378 0.502219,17.61151 -0.258384,17.92656 -3.400891,1.40869 -4.670674,0.27489 -4.721675,-4.21628 -0.1207,-10.63888 -0.421442,-12.17083 -2.392101,-12.17083 -1.765432,0 -2.225759,1.01216 -2.16576,4.7625 0.02011,1.23693 0.02656,2.9038 0.01498,3.70416 -0.01119,0.80036 -0.02101,3.02394 -0.02119,4.94078 -2.09e-4,2.36923 -0.09923,3.5461 -0.309026,3.67575 -0.881232,0.54466 -4.691882,0.56694 -4.868952,0.0284 -0.205409,-0.62466 -0.423651,-6.59845 -0.536401,-14.68334 -0.06357,-4.55812 -0.186354,-8.4017 -0.272854,-8.5416 -0.08641,-0.1399 -0.153861,-3.65829 -0.14986,-7.81864 0.0083,-8.74737 -0.178616,-9.6979 -1.973006,-10.03453 -2.617531,-0.49105 -3.18513,2.31726 -2.631881,13.02246 0.263051,5.08995 0.369049,4.92559 -3.101619,4.80332 -2.18032,-0.0768 -2.180002,-0.077 -2.213302,-2.32595 -0.132479,-8.9405 -0.365409,-18.52666 -0.501778,-20.65611 -0.189521,-2.95948 -0.04201,-3.21159 1.94045,-3.31039 0.617765,-0.0308 1.129667,-0.0489 1.55236,-0.0439 z m 25.089424,1.73478 c 0.948632,0.013 1.7517,0.16003 2.247408,0.46198 0.509331,0.31025 1.062082,0.6125 1.227833,0.6718 1.889668,0.67555 2.395268,2.65126 2.737298,10.69082 0.37983,8.92821 0.26796,9.77662 -1.3193,10.00714 -0.50932,0.074 -1.308526,0.21816 -1.776117,0.32039 -1.071959,0.23439 -2.192631,-0.0349 -2.192631,-0.5271 0,-0.67683 -0.55585,-0.73946 -1.199409,-0.13487 -0.34707,0.32606 -1.201407,0.74431 -1.898592,0.92914 -0.697179,0.18483 -1.452054,0.41026 -1.677934,0.50126 -0.22588,0.0909 -0.463966,0.11509 -0.529167,0.0537 -0.06516,-0.0614 -0.59921,-0.16561 -1.186489,-0.23151 -2.798541,-0.31422 -3.961765,-2.00898 -3.953764,-5.75882 0.01132,-5.13971 3.116524,-7.86454 8.774657,-7.7003 1.10409,0.032 1.77143,-0.63116 1.545643,-1.53583 -0.09416,-0.37722 -0.235159,-0.99913 -0.313161,-1.38234 -0.34916,-1.71608 -2.798112,-1.68925 -4.324284,0.0475 -0.492818,0.56083 -0.965012,0.78352 -1.852083,0.87282 -0.654849,0.0659 -1.753889,0.20733 -2.442229,0.31419 -2.54486,0.39507 -1.379844,-4.28486 1.486215,-5.97018 1.768224,-1.03978 4.559118,-1.65858 6.646106,-1.62987 z m 36.886639,1.54667 c -0.0576,-0.002 -0.11567,-8.2e-4 -0.17364,0.002 -0.30921,0.0156 -0.62055,0.097 -0.89762,0.25839 -1.93456,1.12664 -2.42759,9.83701 -0.69814,12.33309 0.50693,0.73163 2.14987,0.83196 2.9838,0.18242 0.87781,-0.68371 1.28751,-9.34319 0.50177,-10.60607 -0.12264,-0.19714 -0.19124,-0.6046 -0.15244,-0.90537 0.0923,-0.71558 -0.69996,-1.24037 -1.56373,-1.26452 z m -19.16007,1.26711 c -0.25548,-0.0111 -0.49058,0.0724 -0.66249,0.27957 -0.18116,0.21828 -0.5235,0.39687 -0.7612,0.39687 -0.95162,0 -1.34569,2.5151 -1.36219,8.69818 -0.004,1.65752 0.66674,3.03343 1.54151,3.16053 0.32005,0.0465 0.58188,0.19533 0.58188,0.33073 0,0.40399 1.49586,0.27864 1.85621,-0.15555 0.76846,-0.92597 1.41821,-9.66091 0.74931,-10.07432 -0.12315,-0.0761 -0.22427,-0.41172 -0.22427,-0.74569 0,-0.9702 -0.95234,-1.85706 -1.71876,-1.89032 z m 49.87706,1.84846 c 1.14853,-0.0364 2.2663,0.50107 1.93269,1.37046 -0.0904,0.2357 -0.17628,0.73879 -0.19068,1.11828 -0.0173,0.45445 -0.25214,0.80401 -0.68782,1.02423 -2.08852,1.05571 -4.26621,-1.06709 -2.84788,-2.77606 0.40415,-0.48698 1.10456,-0.71508 1.79369,-0.73691 z m 0.46353,5.92367 c 0.0398,0.007 0.0615,0.0311 0.0615,0.0734 0,0.19972 0.28076,0.24936 0.80925,0.14366 0.44483,-0.089 0.95086,-0.0444 1.12448,0.0992 0.17364,0.14359 0.60695,0.48399 0.96325,0.75603 0.64775,0.49464 0.64827,0.49459 -0.0656,1.34307 -0.7732,0.9189 -0.90538,1.49362 -0.38344,1.66863 0.1819,0.061 -0.29435,0.19393 -1.05833,0.29559 -0.76399,0.10167 -1.38907,0.29977 -1.38907,0.44028 0,0.14051 -0.17859,0.25528 -0.39687,0.25528 -0.21828,0 -0.39688,-0.17858 -0.39688,-0.39687 0,-0.21827 -0.13257,-0.39688 -0.29507,-0.39688 -0.17407,0 -0.23327,-0.23877 -0.14366,-0.58136 0.0836,-0.31985 0.0234,-0.73656 -0.13384,-0.92604 -0.20677,-0.24917 -0.19428,-0.45448 0.0439,-0.74155 0.24177,-0.29134 0.25117,-0.48995 0.0372,-0.74776 -0.22395,-0.26984 -0.10904,-0.48654 0.49661,-0.93431 0.32699,-0.24179 0.60707,-0.37174 0.72657,-0.35037 z m -68.596842,2.50993 c -0.390966,0.0157 -0.891291,0.16743 -1.519803,0.44545 -2.257624,0.99865 -2.856995,3.63902 -1.049033,4.62039 1.983292,1.07655 3.746812,-0.3687 3.75481,-3.07682 0.0041,-1.39797 -0.325848,-2.02355 -1.185974,-1.98902 z m 67.519392,4.53925 c 0.6987,-0.0299 1.50263,0.22534 2.28772,0.80874 0.87803,0.65248 1.4136,1.18598 1.1901,1.18598 -0.2235,0 -0.6156,0.464 -0.87126,1.03094 -0.35123,0.77889 -0.65973,1.06987 -1.26349,1.19062 -0.43948,0.0879 -0.8739,0.13964 -0.9648,0.11524 -0.0909,-0.0244 -0.61184,-0.0912 -1.15755,-0.14831 -0.5457,-0.0571 -0.99219,-0.21569 -0.99219,-0.35243 0,-0.13673 -0.2022,-0.24856 -0.44958,-0.24856 -0.34983,0 -0.37923,-0.0704 -0.1323,-0.3173 0.17463,-0.17463 0.3173,-0.59934 0.3173,-0.94361 0,-1.43017 0.87155,-2.2714 2.03605,-2.32131 z m -32.39647,4.74235 h 5.3e-4 c 0.37634,0.0256 0.34463,1.53679 0.52709,16.10444 0.0784,6.25833 0.48185,5.56252 -3.41632,5.88801 -1.75174,0.14628 -1.90886,0.11721 -2.06809,-0.38447 -0.21205,-0.66815 -0.41916,-0.6777 -1.22577,-0.0579 -0.34705,0.26669 -1.24854,0.68341 -2.0035,0.92604 -1.36256,0.43791 -1.59796,0.45725 -3.12539,0.25838 -3.44047,-0.44793 -3.75337,-1.97436 -3.87211,-18.86758 -0.022,-3.13237 -0.15079,-2.90033 1.55701,-2.81533 0.83675,0.0416 1.92487,-0.0322 2.41794,-0.16433 1.17824,-0.31577 1.34324,-0.0258 1.34824,2.36884 0.002,1.04644 0.12384,1.97634 0.26975,2.06654 0.17735,0.10961 0.17735,0.32855 0,0.65991 -0.34858,0.65147 -0.34093,2.30478 0.0119,2.52285 0.17685,0.10931 0.18706,0.28267 0.0274,0.47852 -0.13779,0.16893 -0.20753,1.02133 -0.15503,1.89446 0.0525,0.87312 0.14926,2.51487 0.21446,3.64835 0.12784,2.22321 0.62675,3.36311 1.47277,3.36311 0.2758,0 0.68979,0.0724 0.91984,0.16071 0.26362,0.10116 0.68749,-0.12756 1.14619,-0.61857 0.8166,-0.87412 0.74832,0.47565 0.57516,-11.33109 -0.0914,-6.23039 -0.60101,-5.62199 5.04465,-6.0234 0.13789,-0.01 0.24642,-0.0828 0.33331,-0.0775 z m 29.11037,1.21905 c 0.32872,0.0255 0.56017,0.54083 0.4749,1.25263 -0.0214,0.17848 0.15833,0.62498 0.39894,0.99219 0.24056,0.36723 0.32652,0.66766 0.19121,0.66766 -0.1353,0 -0.44832,0.42462 -0.69557,0.9431 -0.34218,0.71751 -0.56659,0.90555 -0.93999,0.78703 v -5.3e-4 c -0.2698,-0.0856 -0.79984,-0.0382 -1.17771,0.10542 -0.43838,0.16693 -0.74404,0.16991 -0.84439,0.007 -0.0865,-0.13996 -0.36768,-0.25476 -0.62477,-0.25476 -0.49287,0 -1.4616,-0.91643 -1.67845,-1.5875 -0.34643,-1.0721 1.94165,-2.79775 3.31091,-2.49701 0.51343,0.11277 0.90663,0.0278 1.23197,-0.26665 0.12293,-0.11127 0.24338,-0.15732 0.35295,-0.14883 z m -55.04057,1.05781 v 5.3e-4 c 0.55759,0.0111 1.13863,0.0636 1.74253,0.15968 4.35206,0.69235 4.9535,1.83039 5.16299,9.76427 0.21594,8.17827 -0.2444,9.56908 -3.65456,11.03653 -4.80281,2.06672 -10.063837,0.56492 -11.038083,-3.15123 -2.762564,-10.53738 0.254773,-17.5933 7.237283,-17.80666 0.18058,-0.006 0.36398,-0.006 0.54984,-0.003 z m 45.791,2.48254 c 0.83372,-0.001 1.50222,0.31423 1.50999,1.05833 0.003,0.3096 0.22245,0.84469 0.48731,1.18908 0.47507,0.61775 0.47011,0.63865 -0.35606,1.54047 -0.88646,0.96765 -2.78649,1.51244 -3.16104,0.90641 -0.10022,-0.16215 -0.38964,-0.29507 -0.64286,-0.29507 -0.47421,0 -1.10095,-1.30407 -1.08985,-2.26757 0.0144,-1.24633 1.86297,-2.12926 3.25251,-2.13165 z m -46.29743,2.10323 c -1.54204,-0.0501 -2.57598,1.85453 -2.35386,4.54184 0.0723,0.87483 0.15646,2.76215 0.18707,4.19406 0.0448,2.09832 0.15281,2.72721 0.55707,3.24115 1.06706,1.35653 2.88213,0.77962 3.53673,-1.12448 0.3425,-0.99626 0.18998,-8.31841 -0.17828,-8.55865 -0.11348,-0.074 -0.24585,-0.54661 -0.29404,-1.05007 -0.0746,-0.7791 -0.21777,-0.95253 -0.96066,-1.16427 -0.16957,-0.0483 -0.33451,-0.0744 -0.49403,-0.0796 z m 70.95226,34.83974 c -0.005,0 -0.009,0.001 -0.0134,0.002 0.0844,0.008 0.16002,0.0181 0.15089,0.0289 -0.005,0.006 -0.0185,0.007 -0.03,0.007 0.0728,0.005 0.0669,0.003 0.0935,0.003 -0.0563,-0.0232 -0.12057,-0.0398 -0.20102,-0.0398 z m -73.75571,0.34313 c -0.0101,-0.002 -0.0181,-0.002 -0.0253,5.2e-4 -0.0178,0.007 -0.026,0.0313 -0.0294,0.063 0.005,0.003 0.009,0.004 0.0139,0.007 0.0493,0.003 0.0929,0.007 0.13797,0.0103 -0.0143,-0.0252 -0.0335,-0.0478 -0.062,-0.0651 -0.0134,-0.008 -0.0251,-0.0135 -0.0351,-0.016 z m 1.51619,0.59634 c -0.002,-0.009 -1.9e-4,0.006 0.002,0.0202 5.3e-4,5e-5 0.003,-6e-5 0.004,0 -7.9e-4,-0.004 -0.004,-0.018 -0.005,-0.0202 z m 0.0289,0.13023 c -0.006,7.9e-4 -0.0121,0.002 -0.0181,0.003 0.005,0.0473 0.0104,0.10275 0.0155,0.16278 0.012,-0.0125 0.0214,-0.0268 0.0294,-0.0419 -0.008,-0.0359 -0.0222,-0.10172 -0.0269,-0.1235 z m 0.0491,0.0532 c -0.004,0.0176 -0.008,0.0348 -0.0129,0.0532 0.007,-0.0164 0.0106,-0.0343 0.0129,-0.0532 z m -0.14676,0.10077 c -0.0259,0.0342 -0.0463,0.0579 -0.0703,0.0884 0.0278,-0.005 0.0533,-0.011 0.076,-0.0196 -0.002,-0.0232 -0.003,-0.0469 -0.006,-0.0687 z"
       style="fill:#000000;stroke-width:0.264583"
       id="path26" />
  </g>
</svg>
