<?xml version="1.0" encoding="UTF-8" standalone="no"?>
<svg
   xmlns:dc="http://purl.org/dc/elements/1.1/"
   xmlns:cc="http://creativecommons.org/ns#"
   xmlns:rdf="http://www.w3.org/1999/02/22-rdf-syntax-ns#"
   xmlns:svg="http://www.w3.org/2000/svg"
   xmlns="http://www.w3.org/2000/svg"
   xmlns:sodipodi="http://sodipodi.sourceforge.net/DTD/sodipodi-0.dtd"
   xmlns:inkscape="http://www.inkscape.org/namespaces/inkscape"
   version="1.1"
   id="svg10"
   width="210mm"
   height="297mm"
   viewBox="0 0 793.70078 1122.5197"
   sodipodi:docname="02.svg"
   inkscape:version="1.0 (4035a4fb49, 2020-05-01)">
  <metadata
     id="metadata16">
    <rdf:RDF>
      <cc:Work
         rdf:about="">
        <dc:format>image/svg+xml</dc:format>
        <dc:type
           rdf:resource="http://purl.org/dc/dcmitype/StillImage" />
        <dc:title></dc:title>
      </cc:Work>
    </rdf:RDF>
  </metadata>
  <defs
     id="defs14" />
  <sodipodi:namedview
     units="mm"
     inkscape:document-rotation="0"
     pagecolor="#ffffff"
     bordercolor="#666666"
     borderopacity="1"
     objecttolerance="10"
     gridtolerance="10"
     guidetolerance="10"
     inkscape:pageopacity="0"
     inkscape:pageshadow="2"
     inkscape:window-width="958"
     inkscape:window-height="991"
     id="namedview12"
     showgrid="false"
     inkscape:zoom="0.62"
     inkscape:cx="413.71611"
     inkscape:cy="590.33845"
     inkscape:window-x="-8"
     inkscape:window-y="0"
     inkscape:window-maximized="0"
     inkscape:current-layer="g18" />
  <g
     inkscape:groupmode="layer"
     inkscape:label="Image"
     id="g18">
    <path
       style="fill:#000000;stroke-width:4.12779"
       d="m 273.16358,1071.5486 c -41.61135,-8.3541 -53.62983,-15.0841 -85.71434,-47.9979 -22.36522,-22.9433 -27.79001,-39.91673 -24.59596,-76.9574 1.39122,-16.13371 2.72981,-58.0039 2.97463,-93.04484 0.38566,-55.19938 1.86156,-68.66149 11.0476,-100.76848 11.6371,-40.67398 10.99375,-49.92657 -6.78886,-97.6358 -14.61283,-39.205 -12.32047,-84.11549 9.69191,-189.87867 5.4339,-26.10832 12.19414,-59.54346 15.02277,-74.30035 3.26271,-17.02142 5.62316,-77.25653 6.45643,-164.75724 1.03006,-108.16561 2.53468,-139.784467 6.97318,-146.536826 8.71804,-13.262783 71.97163,-33.86588 120.29994,-39.184347 64.39003,-7.086026 90.15823,-7.466647 143.98643,-2.126757 70.27206,6.971139 108.98844,15.763561 145.30987,32.999563 27.76192,13.174155 32.31688,16.962591 39.25593,32.649367 7.0829,16.01207 7.46638,22.32698 3.92549,64.63539 -2.15834,25.78922 -8.41776,67.3221 -13.90976,92.29528 -15.3512,69.80479 -16.74597,86.73729 -17.00116,206.38984 -0.18364,86.21984 -1.90185,121.72968 -7.58879,156.85627 -4.04314,24.97318 -9.09014,56.55081 -11.2156,70.17254 -2.12543,13.62174 -2.73013,50.79958 -1.34363,82.61735 2.72029,62.42849 -1.53207,99.95853 -14.79552,130.58121 -4.77725,11.02976 -8.91526,33.8429 -10.72566,59.13153 -3.28705,45.91467 -6.4958,57.34807 -19.76166,70.41397 -10.84773,10.6841 -62.24861,28.2389 -108.17423,36.9439 -45.89467,8.6995 -133.50156,7.5061 -183.32901,-2.4976 z m 199.8402,-25.8661 c 39.21183,-8.5718 74.12122,-23.5401 79.58836,-34.1252 2.16296,-4.1879 4.93301,-22.93884 6.15562,-41.66865 1.82022,-27.88456 1.14843,-34.0543 -3.70795,-34.0543 -3.26201,0 -7.04128,3.25064 -8.39848,7.22364 -4.33839,12.70049 -34.28531,37.14291 -50.57283,41.27707 -43.54062,11.05188 -176.31125,1.05663 -223.89912,-16.85535 -37.72357,-14.19912 -53.55415,-22.86958 -64.54681,-35.35263 -9.23659,-10.48879 -9.59865,-10.55261 -15.47925,-2.72741 -3.39345,4.51559 -6.02143,16.96252 -6.02143,28.5195 0,17.48068 2.40328,23.68995 16.28535,42.07671 22.11641,29.29292 37.28267,37.59632 83.05869,45.47452 21.41543,3.6857 39.62025,7.3684 40.4552,8.1838 4.60797,4.5002 118.19136,-1.656 147.08265,-7.9717 z m 28.89458,-75.36218 c 17.7536,-7.81943 23.54258,-13.2305 40.28226,-37.65207 30.18193,-44.03257 40.62617,-88.0027 41.89878,-176.39305 0.67176,-46.65791 7.38304,-110.93204 18.34275,-175.66809 1.75169,-10.34651 2.56124,-61.18292 1.79899,-112.96976 -1.46926,-99.82455 0.83469,-124.7063 21.43234,-231.46456 15.87911,-82.30179 14.67738,-86.50139 -21.43867,-74.92188 -36.02352,11.54982 -99.93651,18.71072 -153.91392,17.24467 -103.5977,-2.81375 -166.12873,-14.91801 -219.80519,-42.54821 -1.70273,-0.87648 -3.1904,35.24702 -3.30601,80.27441 -0.28351,110.43379 -7.92589,195.55751 -22.80018,253.95694 -19.76384,77.5965 -23.08304,136.75059 -9.82125,175.03169 11.37176,32.82542 39.48849,143.19431 43.01593,168.85394 1.56047,11.35144 5.01553,25.70556 7.67788,31.89808 l 4.84065,11.25911 91.4024,1.99497 c 103.43662,2.25766 162.27818,10.39416 176.25638,24.37238 10.95143,10.95138 3.1269,13.52868 -14.07165,4.63492 -16.74817,-8.66078 -49.70832,-13.3143 -115.1666,-16.25977 -28.45522,-1.28043 -64.93956,-3.35598 -81.07624,-4.61231 -16.13673,-1.25632 -36.22819,-0.99196 -44.64768,0.58754 l -15.30818,2.87184 2.84799,27.35189 c 3.18463,30.58495 7.0096,40.46305 19.85375,51.27315 18.7706,15.79806 54.68058,23.00067 136.76614,27.43218 55.20845,2.98042 76.66577,1.50041 94.93933,-6.54801 z m 5.70288,-166.78184 c -0.26874,-3.29192 -0.3286,-7.19914 -0.13301,-8.68266 0.19565,-1.48355 2.37877,-20.05864 4.85106,-41.278 5.27259,-45.25347 5.1361,-44.73458 38.1029,-144.87137 15.50825,-47.10632 27.55743,-77.3962 30.78802,-77.3962 6.79753,0 6.79357,0.0412 -2.75814,27.99286 -4.43632,12.98256 -16.56212,48.53053 -26.94628,78.99558 -10.38418,30.46497 -20.60799,66.6864 -22.7196,80.49203 -9.92917,64.91599 -13.49712,83.18091 -16.95813,86.81164 -2.3201,2.43384 -3.92361,1.65092 -4.227,-2.06388 z M 245.14508,584.22759 c -3.27826,-7.34404 -4.45252,-28.85384 -3.49284,-63.98085 1.25149,-45.80856 3.71838,-61.63766 18.36344,-117.83115 21.05844,-80.80169 22.62578,-120.70877 6.52917,-166.2428 -10.41907,-29.4734 -12.70165,-43.34186 -7.13354,-43.34186 4.53919,0 20.83169,43.95331 25.55791,68.94932 4.56333,24.13452 -0.51353,99.08037 -8.05553,118.91727 -14.90395,39.20041 -22.5162,85.11203 -24.62969,148.54885 -1.86072,55.84901 -2.96282,64.33679 -7.13892,54.98122 z m 336.54483,-74.58825 c -0.38514,-5.10814 -0.27493,-16.7497 0.24476,-25.87007 1.88681,-33.0968 -7.12213,-69.16676 -27.30294,-109.31529 -17.3119,-34.44105 -19.6675,-42.2442 -19.35342,-64.10901 0.41892,-29.16087 4.31189,-47.3415 10.13712,-47.3415 2.63505,0 3.23121,11.6571 1.63602,31.99042 l -2.50977,31.99043 20.99433,42.23417 c 23.46725,47.20903 30.43724,79.87569 26.35964,123.54153 -2.36084,25.28182 -8.77225,35.88564 -10.20574,16.87932 z M 241.25234,914.16341 c -2.87365,-29.27774 -6.47991,-35.69419 -15.74144,-28.00779 -9.20257,7.63742 -8.4251,-2.12746 1.13727,-14.28409 6.55939,-8.33889 6.99711,-12.83731 3.47729,-35.73735 -6.56569,-42.71661 -17.6111,-87.57268 -21.91748,-89.00817 -2.20789,-0.73593 -7.15174,8.61485 -10.98632,20.77955 -12.42578,39.41904 -7.67318,115.12816 9.20704,146.66916 4.59518,8.58613 27.2544,25.33607 34.32321,25.37199 1.66789,0.007 1.89309,-11.59398 0.50043,-25.7833 z M 550.68832,144.97866 c 58.70514,-8.22323 84.71642,-21.27192 73.94877,-37.09677 C 617.83056,97.878575 573.6296,81.052314 533.53965,73.203249 482.54938,63.220042 365.17483,60.454282 309.17988,67.916517 c -36.75825,4.898651 -67.90728,17.16306 -72.23518,28.441418 -7.28569,18.986195 49.11813,39.284435 141.11974,50.785235 42.77194,5.34681 126.49574,4.29698 172.62388,-2.16451 z"
       id="path28" />
  </g>
</svg>
