<?xml version="1.0" encoding="UTF-8" standalone="no"?>
<svg
   xmlns:dc="http://purl.org/dc/elements/1.1/"
   xmlns:cc="http://creativecommons.org/ns#"
   xmlns:rdf="http://www.w3.org/1999/02/22-rdf-syntax-ns#"
   xmlns:svg="http://www.w3.org/2000/svg"
   xmlns="http://www.w3.org/2000/svg"
   xmlns:sodipodi="http://sodipodi.sourceforge.net/DTD/sodipodi-0.dtd"
   xmlns:inkscape="http://www.inkscape.org/namespaces/inkscape"
   version="1.1"
   id="svg10"
   width="210mm"
   height="297mm"
   viewBox="0 0 793.70079 1122.5197"
   sodipodi:docname="04.svg"
   inkscape:version="1.0 (4035a4fb49, 2020-05-01)">
  <metadata
     id="metadata16">
    <rdf:RDF>
      <cc:Work
         rdf:about="">
        <dc:format>image/svg+xml</dc:format>
        <dc:type
           rdf:resource="http://purl.org/dc/dcmitype/StillImage" />
        <dc:title></dc:title>
      </cc:Work>
    </rdf:RDF>
  </metadata>
  <defs
     id="defs14" />
  <sodipodi:namedview
     units="mm"
     inkscape:document-rotation="0"
     pagecolor="#ffffff"
     bordercolor="#666666"
     borderopacity="1"
     objecttolerance="10"
     gridtolerance="10"
     guidetolerance="10"
     inkscape:pageopacity="0"
     inkscape:pageshadow="2"
     inkscape:window-width="958"
     inkscape:window-height="991"
     id="namedview12"
     showgrid="false"
     inkscape:zoom="0.61580177"
     inkscape:cx="321.02815"
     inkscape:cy="602.16584"
     inkscape:window-x="-8"
     inkscape:window-y="0"
     inkscape:window-maximized="0"
     inkscape:current-layer="g18" />
  <g
     inkscape:groupmode="layer"
     inkscape:label="Image"
     id="g18">
    <path
       style="fill:#000000;stroke-width:3.16206"
       d="m 350.63766,1055.6175 c -60.5118,-1.9219 -96.03883,-11.437 -114.81304,-30.7505 -19.36611,-19.9223 -21.12232,-32.95049 -23.14167,-171.67283 l -1.09278,-75.07111 -11.92812,-22.41788 c -11.82554,-22.22512 -11.93862,-22.76214 -13.15128,-62.44929 -0.67276,-22.01728 -0.45094,-52.66079 0.49295,-68.09669 0.94388,-15.4359 2.51105,-55.1538 3.48265,-88.26203 1.11848,-38.11454 3.12826,-61.50973 5.47866,-63.77602 4.89308,-4.71794 34.8829,-17.98691 48.70886,-21.55121 37.03792,-9.54826 130.49394,-12.4261 237.61181,-7.31686 23.67507,1.12923 35.03352,3.39212 49.76756,9.91494 28.11854,12.4482 28.42568,13.01832 30.79042,57.15456 2.43311,45.41379 0.84067,203.33745 -2.1432,212.53414 -1.14889,3.54106 -7.21271,16.47663 -13.47513,28.74573 -10.62229,20.81084 -11.45237,24.67651 -12.37208,57.61815 -0.54218,19.42088 -1.82777,45.32668 -2.85677,57.56849 -1.02904,12.24179 -1.93996,38.41274 -2.02421,58.15759 -0.19156,44.87374 -6.77057,72.61463 -21.50826,90.69092 -15.34835,18.8253 -31.32211,26.947 -65.61391,33.3608 -33.11251,6.1932 -47.16772,7.0497 -92.21246,5.6191 z m 38.31606,-29.3863 c 0.74601,-6.568 0.98462,-19.5762 0.5302,-28.90709 -0.45458,-9.33105 0.46793,-31.46158 2.0496,-49.17901 1.58168,-17.71745 2.94381,-47.88928 3.02699,-67.04854 0.0832,-19.15929 1.29313,-45.31146 2.6888,-58.11597 2.76147,-25.33512 0.2616,-33.11225 -11.00092,-34.22411 -3.47468,-0.34302 -7.68981,1.29567 -9.36694,3.64152 -1.67715,2.34585 -2.81215,28.47403 -2.52226,58.06257 1.52037,155.18793 2.01466,180.69143 3.57095,184.24553 3.45789,7.8965 9.71001,3.0901 11.02358,-8.4749 z m 35.97015,-38.23593 c 5.24392,-96.67692 6.34025,-134.69173 4.77791,-165.67247 -1.53061,-30.34249 -1.87288,-31.60581 -8.74417,-32.2285 -5.08888,-0.46118 -7.849,1.50975 -9.56969,6.83353 -3.03069,9.37684 -4.93621,160.53413 -2.59856,206.13377 1.58947,31.0053 2.25023,33.9217 7.62427,33.649 5.26116,-0.267 6.16202,-5.424 8.51024,-48.71533 z m 32.00153,17.93233 c 4.47656,-21.98213 4.85795,-55.79607 0.53334,-47.28713 -1.3627,2.6812 -4.26636,16.36376 -6.45257,30.40565 -2.18626,14.04188 -4.49884,28.90238 -5.13913,33.02348 -0.80332,5.1702 0.0813,7.0163 2.85356,5.9556 2.20977,-0.8453 5.90194,-10.7892 8.2048,-22.0976 z m -150.5685,-0.8333 c -9.64319,-75.7344 -31.53953,-209.28613 -34.8081,-212.30416 -14.21149,-13.12201 -10.46365,36.48246 11.04831,146.22985 4.5626,23.27691 10.20424,52.19807 12.53697,64.26921 5.14959,26.6474 6.31254,29.7578 11.03626,29.5181 2.69546,-0.1368 2.74581,-7.6138 0.18656,-27.713 z m -19.2493,8.8922 c -11.13776,-61.25085 -21.67729,-109.61083 -23.00352,-105.55038 -3.31908,10.16186 11.5975,110.39858 17.7562,119.31858 5.54095,8.0252 8.02501,1.5074 5.24732,-13.7682 z m 192.28332,-5.0097 c 15.11896,-17.89756 18.13029,-31.77708 24.83124,-114.4491 5.47781,-67.58145 2.41995,-84.77351 -5.58099,-31.378 -2.10345,14.03771 -6.50211,43.46844 -9.77483,65.40164 -3.2727,21.9332 -8.6019,47.13689 -11.84267,56.0082 -7.68425,21.03486 -10.58884,33.78176 -7.66401,33.63326 1.2907,-0.065 5.80478,-4.2126 10.03126,-9.216 z m -159.59796,6.7149 c -1.13595,-2.4681 -1.84628,-1.6819 -1.81111,2.0047 0.0319,3.336 0.87286,5.1634 1.86902,4.0607 0.9961,-1.1026 0.97002,-3.832 -0.058,-6.0654 z M 262.8206,990.16022 c -2.49593,-12.6468 -7.7805,-57.02373 -11.74352,-98.61544 -9.67924,-101.58362 -13.41162,-113.12009 -12.59727,-38.9372 1.00779,91.80463 8.36787,144.01223 22.46384,159.34382 6.25433,6.8026 6.63891,2.3376 1.87695,-21.79118 z m 97.5644,-96.24775 c 0.4409,-44.42726 0.49228,-86.81635 0.11412,-94.19798 -0.65517,-12.7866 -1.1325,-13.39856 -10.10125,-12.94337 -7.58385,0.38489 -9.7443,2.14935 -11.11397,9.07682 -1.93746,9.79939 8.90314,158.52695 13.98205,191.82648 l 3.35434,21.99258 1.4815,-17.48879 c 0.81486,-9.61891 1.84227,-53.83849 2.28315,-98.26574 z m -28.76147,105.34814 c -1.13595,-2.4681 -1.84628,-1.6818 -1.8111,2.00479 0.0319,3.336 0.87286,5.1633 1.86902,4.0607 0.9961,-1.1027 0.97003,-3.8322 -0.058,-6.06549 z m -0.62745,-101.06508 c -0.52786,-45.91341 -2.16336,-89.47308 -3.63449,-96.79923 -2.44527,-12.17765 -3.46567,-13.28014 -11.89503,-12.85234 -7.20044,0.36544 -9.56651,2.21892 -10.80062,8.46085 -1.64073,8.29864 7.56471,93.29712 16.0283,147.99698 9.67954,62.55851 11.4659,54.44212 10.30184,-46.80626 z m 122.73221,17.13649 c 11.38804,-71.27319 12.47772,-79.53235 13.06785,-99.04604 0.56719,-18.7542 0.12049,-20.20742 -7.08832,-23.06015 -13.12073,-5.19222 -16.13372,1.2882 -16.54704,35.58993 -0.78248,64.93637 0.59051,125.67521 2.78769,123.32155 1.26018,-1.34991 4.76107,-17.9123 7.77982,-36.80529 z m 28.64092,-21.27829 c 15.13179,-83.44991 17.19777,-108.52106 8.90783,-108.10031 -6.50805,0.33029 -16.10882,45.34599 -17.74884,83.22001 -3.13561,72.41347 -0.91255,78.6697 8.84101,24.8803 z m -219.75116,-5.46926 c -0.98625,-2.12665 -1.61288,-0.31391 -1.39251,4.02832 0.22039,4.34225 1.02732,6.08223 1.79321,3.86665 0.76586,-2.21559 0.58555,-5.76832 -0.4007,-7.89497 z m 41.28993,1.26844 c -1.13596,-2.46805 -1.84631,-1.68178 -1.81111,2.0048 0.0319,3.33598 0.87287,5.1633 1.869,4.06068 0.99611,-1.10266 0.97005,-3.83213 -0.058,-6.06546 z m -5.84161,-48.97633 c -5.85129,-59.21561 -6.04373,-58.85558 32.97985,-61.70006 16.43226,-1.19776 32.05133,-1.4421 34.70903,-0.54259 4.91505,1.6632 20.45475,2.44143 49.54439,2.48126 8.89642,0.0124 18.42612,1.70504 21.17714,3.76192 3.54349,2.64941 7.27632,2.74033 12.80275,0.31185 4.29051,-1.88537 8.32359,-3.0335 8.96248,-2.55137 0.63887,0.48211 5.0719,1.6068 9.85118,2.49932 7.39697,1.38139 9.34347,0.184 13.08492,-8.04908 4.02306,-8.85277 5.09606,-9.39453 12.67045,-6.39712 7.50996,2.97187 8.95779,2.30495 15.65669,-7.21179 4.05982,-5.76755 8.89821,-10.56346 10.75199,-10.65755 7.13974,-0.36235 20.19406,-25.27964 22.57886,-43.09708 1.92134,-14.35478 -1.75748,-15.49152 -6.55144,-2.02439 -4.46687,12.54808 -27.74975,31.16314 -45.67459,36.51759 -20.83002,6.22225 -64.87974,11.50154 -114.82169,13.76127 -46.55159,2.10615 -79.64994,-1.36548 -112.54406,-11.80505 -19.8247,-6.29173 -49.41862,-29.04905 -49.89147,-38.36581 -0.16425,-3.23612 -1.71971,-5.81172 -3.45659,-5.72357 -5.25792,0.26685 -2.2511,22.99843 4.86364,36.769 3.67448,7.11197 10.58148,15.98947 15.3489,19.72777 4.76745,3.73831 11.86283,13.07904 15.76754,20.7572 l 7.09945,13.96028 4.03528,-8.6277 c 2.98546,-6.38306 5.76645,-8.26761 10.68936,-7.24366 11.85144,2.46499 16.27187,13.6076 24.14867,60.87198 4.21982,25.32076 8.30807,46.00548 9.085,45.96605 0.77692,-0.0394 -0.51355,-19.56433 -2.86773,-43.38867 z M 460.44,741.55149 c 34.7693,-7.02287 59.92102,-19.69975 66.41814,-33.47581 4.72512,-10.01893 9.28024,-53.57351 10.81007,-103.36273 0.75023,-24.41722 1.66652,-52.03497 2.03617,-61.37276 0.7932,-20.03732 -2.21326,-24.04771 -14.10907,-18.82033 -16.53873,7.26762 -68.85384,16.57567 -109.73638,19.52458 -74.37954,5.36511 -138.02457,-0.0224 -176.52926,-14.9428 -11.42297,-4.42639 -21.78772,-6.90028 -23.03281,-5.49756 -3.07547,3.46491 0.74646,161.31876 4.25928,175.9163 6.54975,27.2175 41.09262,43.2336 105.6772,48.99816 29.37983,2.62233 106.56957,-1.3848 134.20666,-6.96709 z m 15.53318,-219.01878 c 31.54407,-6.0851 65.70154,-20.69257 65.3337,-27.94006 -0.39019,-7.68831 -10.65402,-17.7528 -24.37676,-23.90336 -21.08246,-9.44921 -103.57488,-13.61955 -191.03987,-9.65789 -54.25227,2.4573 -61.99671,3.49794 -80.61007,10.83171 -37.24207,14.67357 -39.19869,28.59047 -5.87446,41.78335 10.94499,4.33305 33.52261,9.60148 50.17251,11.70761 16.64989,2.10615 35.29695,4.57411 41.43792,5.48436 20.37175,3.0196 114.08274,-2.34982 144.95703,-8.30572 z"
       id="path22" />
  </g>
</svg>
