<?xml version="1.0" encoding="UTF-8" standalone="no"?>
<svg
   xmlns:dc="http://purl.org/dc/elements/1.1/"
   xmlns:cc="http://creativecommons.org/ns#"
   xmlns:rdf="http://www.w3.org/1999/02/22-rdf-syntax-ns#"
   xmlns:svg="http://www.w3.org/2000/svg"
   xmlns="http://www.w3.org/2000/svg"
   xmlns:sodipodi="http://sodipodi.sourceforge.net/DTD/sodipodi-0.dtd"
   xmlns:inkscape="http://www.inkscape.org/namespaces/inkscape"
   width="210mm"
   height="297mm"
   viewBox="0 0 210 297"
   version="1.1"
   id="svg8"
   inkscape:version="1.0 (4035a4fb49, 2020-05-01)"
   sodipodi:docname="05.svg">
  <defs
     id="defs2" />
  <sodipodi:namedview
     id="base"
     pagecolor="#ffffff"
     bordercolor="#666666"
     borderopacity="1.0"
     inkscape:pageopacity="0.0"
     inkscape:pageshadow="2"
     inkscape:zoom="0.62"
     inkscape:cx="578.96749"
     inkscape:cy="560"
     inkscape:document-units="mm"
     inkscape:current-layer="layer1"
     inkscape:document-rotation="0"
     showgrid="false"
     inkscape:window-width="958"
     inkscape:window-height="991"
     inkscape:window-x="-8"
     inkscape:window-y="0"
     inkscape:window-maximized="0" />
  <metadata
     id="metadata5">
    <rdf:RDF>
      <cc:Work
         rdf:about="">
        <dc:format>image/svg+xml</dc:format>
        <dc:type
           rdf:resource="http://purl.org/dc/dcmitype/StillImage" />
        <dc:title></dc:title>
      </cc:Work>
    </rdf:RDF>
  </metadata>
  <g
     inkscape:label="Ebene 1"
     inkscape:groupmode="layer"
     id="layer1">
    <path
       style="fill:#000000;stroke-width:1.03657"
       d="m 78.57148,280.07911 c -9.62402,-1.73913 -17.994574,-5.12507 -19.4658,-7.87406 -1.539877,-2.87732 0.691705,-8.75602 4.06798,-10.71626 1.526084,-0.88604 8.590065,-3.57439 15.69769,-5.97407 14.60129,-4.92971 16.52741,-6.64062 18.65748,-16.57283 1.32571,-6.18158 0.55032,-45.13913 -1.1496,-57.7585 -1.77078,-13.14551 -3.87825,-16.41262 -22.456311,-34.81321 -14.255438,-14.11923 -16.82588,-17.15204 -17.835103,-21.04312 -1.423667,-5.48889 -1.149239,-7.90337 4.726015,-41.580898 7.039286,-40.349953 9.708562,-52.936015 11.8708,-55.972601 2.29688,-3.225664 7.941409,-5.157854 14.672989,-5.022729 2.64159,0.05297 5.32396,-0.225638 5.96081,-0.619222 0.63686,-0.393603 10.74149,-0.931268 22.45474,-1.194814 20.60431,-0.463602 21.39986,-0.405815 24.46538,1.777033 1.7427,1.240927 3.81932,3.81368 4.61468,5.717227 2.24706,5.378039 13.85748,75.609874 13.85684,83.820684 -9.8e-4,12.65685 -0.522,13.5553 -18.19927,31.38275 -17.80642,17.95771 -18.12209,18.35355 -20.43739,25.62841 -2.89235,9.08807 -3.8999,19.06307 -4.55579,45.1038 -0.84523,33.55788 -0.85253,33.54329 19.88069,39.78289 15.57732,4.68797 20.12911,8.7521 17.49379,15.61963 -1.2326,3.21212 -11.57131,7.2347 -26.82289,10.43628 -9.28497,1.94909 -36.41187,1.87689 -47.49773,-0.12636 z m 49.57088,-7.15712 c 3.99078,-0.90468 9.50111,-2.37215 12.24522,-3.26103 4.8275,-1.56374 4.93087,-1.68062 3.18856,-3.60584 -0.99036,-1.09434 -5.80103,-3.19658 -10.69035,-4.67162 -4.88934,-1.47504 -11.58014,-4.10022 -14.86846,-5.83372 -5.63679,-2.97158 -8.84307,-3.25685 -6.13179,-0.54556 0.67462,0.67463 1.2266,1.83299 1.2266,2.57414 0,1.69461 -12.6097,1.88376 -15.68975,0.23536 -1.67504,-0.89644 -4.52692,-0.15949 -14.70293,3.79962 -6.943654,2.70148 -13.191015,5.41762 -13.883047,6.03586 -2.350564,2.09995 0.323605,3.71051 9.611787,5.78888 7.82264,1.75045 11.85464,2.00021 25.85313,1.60137 9.64028,-0.27468 19.6234,-1.16134 23.84103,-2.11746 z m -18.13993,-24.25823 c 0,-0.91965 -0.44389,-3.21985 -0.98643,-5.11156 -1.34843,-4.70169 -1.37604,-10.47642 -0.17683,-36.97291 1.08901,-24.06187 3.32567,-38.22013 7.23258,-45.78277 1.12869,-2.18484 4.18972,-6.05197 6.80227,-8.59365 2.61255,-2.54167 4.75009,-4.96194 4.75009,-5.37833 0,-0.41641 -2.78406,1.93348 -6.18682,5.22198 -7.38616,7.13817 -12.48858,9.24486 -17.99205,7.42855 -2.03865,-0.67283 -8.04426,-5.01177 -13.34577,-9.64209 l -9.63912,-8.41876 8.43481,8.75427 c 4.63916,4.81485 9.22323,10.61435 10.18681,12.88777 3.74201,8.82853 5.49976,21.31662 6.2719,44.55958 0.90195,27.14953 0.85542,29.04338 -0.85661,34.8762 -1.77799,6.05763 -1.29449,7.6002 2.42399,7.7334 2.18944,0.0784 3.08122,-0.37355 3.08122,-1.56168 z m 16.00085,-108.77881 c 17.28882,-17.45282 19.46362,-20.2321 21.36324,-27.30113 0.66188,-2.46309 1.71889,-4.79923 2.34892,-5.19143 0.63001,-0.39218 1.0324,-2.49123 0.89421,-4.66455 -0.37783,-5.94176 -10.50268,-65.376218 -11.65204,-68.399263 -0.77314,-2.033509 -1.52287,-2.500771 -3.31573,-2.066447 -12.67983,3.07174 -28.18329,3.883718 -47.55011,2.490369 C 77.132249,33.964021 77.061364,33.973825 76.462541,36.359735 73.241269,49.19428 64.07172,103.989 63.632273,113.0298 c -0.637675,13.11893 -0.02504,14.46104 10.505863,23.0161 3.477189,2.82478 5.715534,4.38119 4.974114,3.4587 -0.74144,-0.9225 -1.55502,-2.81865 -1.80799,-4.21366 -0.904552,-4.98827 4.21214,-1.83031 15.71994,9.70215 8.60281,8.62127 11.9216,11.30266 13.99483,11.30702 2.13696,0.004 6.19362,-3.5032 18.98425,-16.41516 z m 14.69681,-5.32296 c 7.49237,-7.57935 12.18308,-14.536 9.80127,-14.536 -0.53333,0 -1.23076,0.82254 -1.54984,1.82787 -0.62037,1.95463 -7.00633,9.37976 -14.25195,16.57117 -2.44123,2.42299 -3.92887,4.40542 -3.30583,4.40542 0.62301,0 4.81088,-3.7208 9.30635,-8.26846 z M 121.72066,31.33298 c 4.6908,-0.41822 6.91722,-1.033262 6.64632,-1.836013 -0.56897,-1.686076 -37.92058,-1.054913 -40.01843,0.676237 -1.17429,0.969023 0.56092,1.341688 8.26991,1.776089 9.93889,0.560048 12.65686,0.493304 25.1022,-0.616313 z"
       id="path24" />
  </g>
</svg>
