<?xml version="1.0" encoding="UTF-8" standalone="no"?>
<svg
   xmlns:dc="http://purl.org/dc/elements/1.1/"
   xmlns:cc="http://creativecommons.org/ns#"
   xmlns:rdf="http://www.w3.org/1999/02/22-rdf-syntax-ns#"
   xmlns:svg="http://www.w3.org/2000/svg"
   xmlns="http://www.w3.org/2000/svg"
   xmlns:sodipodi="http://sodipodi.sourceforge.net/DTD/sodipodi-0.dtd"
   xmlns:inkscape="http://www.inkscape.org/namespaces/inkscape"
   width="210mm"
   height="297mm"
   viewBox="0 0 210 297"
   version="1.1"
   id="svg8"
   inkscape:version="1.0 (4035a4fb49, 2020-05-01)"
   sodipodi:docname="06.svg">
  <defs
     id="defs2" />
  <sodipodi:namedview
     id="base"
     pagecolor="#ffffff"
     bordercolor="#666666"
     borderopacity="1.0"
     inkscape:pageopacity="0.0"
     inkscape:pageshadow="2"
     inkscape:zoom="0.61580177"
     inkscape:cx="400"
     inkscape:cy="560"
     inkscape:document-units="mm"
     inkscape:current-layer="layer1"
     inkscape:document-rotation="0"
     showgrid="false"
     inkscape:window-width="958"
     inkscape:window-height="991"
     inkscape:window-x="-8"
     inkscape:window-y="0"
     inkscape:window-maximized="0" />
  <metadata
     id="metadata5">
    <rdf:RDF>
      <cc:Work
         rdf:about="">
        <dc:format>image/svg+xml</dc:format>
        <dc:type
           rdf:resource="http://purl.org/dc/dcmitype/StillImage" />
        <dc:title />
      </cc:Work>
    </rdf:RDF>
  </metadata>
  <g
     inkscape:label="Ebene 1"
     inkscape:groupmode="layer"
     id="layer1">
    <path
       style="fill:#000000;stroke-width:1.0808"
       d="m 84.365693,275.31899 c -12.251953,-0.88378 -23.890669,-3.59436 -26.873714,-6.25876 -1.108479,-0.99008 -2.475481,-3.00372 -3.037754,-4.47477 -1.325869,-3.46871 -6.61117,-30.19363 -10.585805,-53.52669 -1.721385,-10.10543 -3.880923,-22.02119 -4.798945,-26.47948 -0.918044,-4.45828 -2.875114,-14.66283 -4.349042,-22.67677 -2.586225,-14.06143 -2.613519,-14.68488 -0.780688,-17.83312 2.180807,-3.74595 4.944655,-5.26599 15.076762,-8.29184 22.54024,-6.73141 74.429533,-8.76131 102.358443,-4.00424 9.56027,1.62838 19.19276,5.05201 21.3457,7.5868 2.28497,2.69022 2.37751,7.70108 0.31612,17.11852 -3.00833,13.74347 -5.92703,26.7067 -9.73374,43.23178 -2.12249,9.21379 -5.59157,24.53405 -7.70905,34.04503 -5.13141,23.04835 -7.61143,31.82227 -9.62314,34.04518 -2.7878,3.0805 -18.18997,6.32499 -33.5045,7.05777 -7.72768,0.36977 -14.779858,0.80007 -15.671536,0.95624 -0.89165,0.15625 -6.484747,-0.0669 -12.429111,-0.49565 z M 83.620339,263.7475 c -0.22621,-2.73304 -0.863417,-4.05296 -1.956636,-4.05296 -2.046981,0 -2.751713,4.47141 -1.031436,6.54425 2.214249,2.66798 3.337549,1.73142 2.988072,-2.49129 z m 22.361241,-0.8254 c 0,-3.64506 -0.37439,-4.36155 -2.43181,-4.65373 -2.05631,-0.29205 -2.43177,0.15323 -2.43177,2.88379 0,4.58636 1.07606,6.80773 3.10817,6.4164 1.2699,-0.24457 1.75541,-1.52969 1.75541,-4.64646 z m -31.391702,1.3658 c -1.016793,-3.36548 -1.889909,-4.11197 -3.584542,-3.06463 -1.132521,0.69993 -1.181801,1.40613 -0.223134,3.19739 1.715907,3.2062 4.784146,3.09923 3.807676,-0.13276 z m 22.551139,0.92692 c 0.854355,-2.22638 0.184375,-5.34341 -1.251219,-5.82197 -0.799038,-0.26635 -1.256579,0.99129 -1.256579,3.454 0,3.87034 1.417637,5.20894 2.507798,2.36797 z m 25.592873,-2.16227 c 0,-2.34694 -0.61547,-3.90333 -1.7096,-4.32317 -2.42877,-0.93202 -2.37088,-0.97911 -3.14819,2.55996 -0.849,3.86545 -0.0536,5.43036 2.75999,5.43036 1.66435,0 2.0978,-0.75772 2.0978,-3.66715 z m -10.05896,-1.44607 c -0.27403,-1.05158 -0.51627,-0.45288 -0.5383,1.33043 -0.0222,1.78332 0.20219,2.64368 0.49825,1.91197 0.29604,-0.73173 0.31406,-2.19082 0.0401,-3.2424 z m 19.24571,1.33043 c 0,-1.17259 -0.85113,-2.2959 -1.89139,-2.49623 -1.41666,-0.27282 -1.89138,0.35372 -1.89138,2.49623 0,2.14251 0.47472,2.76906 1.89138,2.49624 1.04026,-0.20024 1.89139,-1.32364 1.89139,-2.49624 z m -41.975593,-1.89137 c -0.299812,-0.74305 -0.545146,-0.13518 -0.545146,1.35096 0,1.48611 0.245334,2.09405 0.545146,1.351 0.29983,-0.74303 0.29983,-1.95894 0,-2.70196 z m -25.951171,-5.40841 c -0.336308,-1.33991 -3.310801,-18.72718 -6.61003,-38.63842 -8.383648,-50.59654 -9.480277,-56.298 -11.149464,-57.96718 -4.072867,-4.07286 -4.42749,-0.1179 -1.380819,15.39992 1.883323,9.59244 5.626148,29.50802 10.438147,55.54123 4.488546,24.28332 5.523257,28.10065 7.616901,28.10065 1.220763,0 1.52518,-0.68338 1.085265,-2.4362 z m 78.602104,0.48917 c 0.55693,-0.90113 4.19486,-15.98858 8.78197,-36.42117 1.46797,-6.53881 4.92327,-21.6159 7.67848,-33.50465 2.75521,-11.88874 5.24484,-23.43973 5.5325,-25.66887 0.50465,-3.91086 0.40756,-4.05297 -2.76913,-4.05297 -4.11516,0 -4.76001,1.01049 -6.20738,9.72715 -1.24125,7.47531 -4.47939,25.25657 -11.34788,62.31367 -2.33088,12.57557 -4.23794,24.12656 -4.23794,25.66887 0,2.68176 1.43892,3.76709 2.56938,1.93797 z m -69.994338,-1.771 c 0.553597,-1.44261 -0.375008,-8.92669 -4.567503,-36.81175 -1.336546,-8.88967 -3.88835,-26.59729 -7.385548,-51.25031 -0.581153,-4.09682 -2.032809,-5.45015 -5.8727,-5.47488 -2.373352,-0.0161 -2.517256,0.29343 -1.881334,4.03644 15.362695,90.42309 15.487782,91.05694 17.968367,91.05694 0.627809,0 1.410242,-0.70039 1.738718,-1.55644 z m 10.142852,-3.38038 c 0,-1.99362 -0.459848,-8.38581 -1.021905,-14.20489 -0.562049,-5.81907 -1.526485,-17.14596 -2.143189,-25.17087 -2.871875,-37.36954 -3.720444,-46.02268 -4.628789,-47.20029 -1.014749,-1.31554 -9.258172,-3.11721 -10.155768,-2.21959 -0.281193,0.28118 0.250128,5.55782 1.180722,11.72583 0.930594,6.16802 2.15133,14.37591 2.712711,18.23974 6.287818,43.27609 8.661934,58.28151 9.615489,60.77406 1.569828,4.1035 4.440729,2.84674 4.440729,-1.94399 z m 41.663256,2.69002 c 0.72085,-1.16633 7.97349,-42.97291 8.51637,-49.09094 0.53883,-6.0725 2.85959,-20.91985 4.42394,-28.30282 0.8581,-4.04988 1.56866,-8.94407 1.57898,-10.876 0.0181,-3.37392 -0.14982,-3.51258 -4.25545,-3.51258 -3.99385,0 -4.30865,0.23038 -4.79962,3.51258 -3.46363,23.15531 -10.38079,79.63061 -10.38061,84.75235 1.6e-4,3.94551 3.22561,6.25314 4.91639,3.51741 z m 12.1549,-9.37175 c 1.25509,-5.79576 3.30206,-16.13085 4.54878,-22.96687 1.24674,-6.83604 2.95765,-15.83364 3.80204,-19.99471 2.77104,-13.65556 7.00187,-37.59857 7.00187,-39.62493 0,-1.54139 -0.83009,-1.98567 -3.70994,-1.98567 -4.32686,0 -4.17458,-0.34033 -6.5281,14.59073 -0.93699,5.94437 -2.16372,13.72611 -2.72608,17.29271 -0.56235,3.56663 -1.80544,11.83472 -2.76238,18.37353 -0.95694,6.5388 -2.67355,17.40859 -3.81465,24.15508 -2.71025,16.02367 -2.72926,20.6979 -0.0842,20.6979 1.64147,0 2.39084,-1.84823 4.2726,-10.53777 z m -30.1225,7.93436 c 0.69501,-0.83743 1.7395,-7.52485 2.32112,-14.86093 0.58159,-7.33608 1.27485,-15.04057 1.54057,-17.1211 1.4813,-11.59813 4.87653,-54.61624 4.40716,-55.83937 -0.34615,-0.90207 -2.34419,-1.44275 -5.33149,-1.44275 h -4.77787 l -0.63673,23.50729 c -0.35021,12.92901 -1.16456,31.56728 -1.80966,41.41839 -1.46678,22.39864 -0.17755,29.71787 4.2869,24.33847 z m -8.172616,-31.1368 c 0.390735,-16.81188 1.010302,-36.44932 1.376839,-43.63868 0.604707,-11.86158 0.489567,-13.13948 -1.243826,-13.80467 -1.050636,-0.40317 -2.79032,-0.45369 -3.865935,-0.11227 -1.837749,0.58329 -1.923611,2.26322 -1.423712,27.85498 0.29258,14.97884 0.650283,34.28645 0.794861,42.90579 0.250033,14.90491 0.901771,19.06132 2.804494,17.88537 0.465786,-0.28788 1.166559,-14.2786 1.557279,-31.09048 z m 16.732136,25.90443 c 0.69157,-3.12078 3.22503,-21.93085 5.62993,-41.80013 2.40492,-19.86925 4.61423,-36.51695 4.90961,-36.99487 0.94162,-1.52359 -1.72699,-5.23678 -3.76361,-5.23678 -1.68087,0 -2.065,1.28159 -2.67253,8.91656 -0.39023,4.9041 -1.2198,14.2665 -1.84354,20.80531 -2.3948,25.10601 -4.83027,59.98408 -4.18861,59.98408 0.36925,0 1.23718,-2.55336 1.92875,-5.67417 z M 89.110557,208.98319 c -0.469349,-17.88042 -0.585329,-34.71956 -0.257725,-37.42031 0.654063,-5.39179 -0.233835,-6.72093 -5.297747,-7.93064 -3.521765,-0.84132 -3.504947,-1.01237 -1.899092,19.32587 3.484301,44.12825 4.537769,55.07301 6.18981,64.30729 l 0.676752,3.78277 0.720696,-4.77755 c 0.396356,-2.62769 0.336664,-19.40703 -0.13276,-37.28743 z M 77.793324,148.57896 c -0.04821,-4.01421 -0.534538,-7.74176 -1.080781,-8.28345 -0.546263,-0.54169 -3.104951,-0.69972 -5.685981,-0.35121 l -4.692741,0.63365 0.731707,4.87942 c 1.086148,7.243 2.313186,9.72017 5.082992,10.26165 5.394939,1.05467 5.737935,0.62082 5.644804,-7.14006 z m 17.49968,-1.01688 -0.1193,-8.91658 -4.386194,-0.32223 c -6.423402,-0.47187 -10.380241,1.29653 -9.750969,4.35794 0.276878,1.347 1.06612,5.00246 1.753922,8.12324 l 1.250516,5.67419 h 5.685756 5.685747 z m 13.510216,0.8106 c 0.36303,-4.16106 0.45154,-8.12418 0.19662,-8.80692 -0.46345,-1.24145 -7.70325,-2.64239 -9.232857,-1.7866 -1.190521,0.66609 -0.987972,12.68825 0.269507,15.99566 0.90641,2.38408 1.645,2.78641 4.59339,2.50214 l 3.51327,-0.33872 z m 14.12747,6.75496 c 1.95918,-1.56549 4.72751,-14.69212 3.3822,-16.03743 -0.49837,-0.49837 -3.69613,-1.23405 -7.10615,-1.63483 l -6.20001,-0.72869 v 9.15546 c 0,5.03548 0.32424,9.47966 0.72054,9.87596 1.22096,1.22097 7.41763,0.79647 9.20342,-0.63047 z m 13.15151,-0.74915 c 2.12867,-0.80931 2.95969,-2.26426 4.03319,-7.06126 1.58222,-7.07016 1.00411,-8.03972 -5.01465,-8.40977 l -4.26089,-0.26196 -0.67345,7.56559 c -0.37039,4.16106 -0.46326,7.93033 -0.20641,8.37615 0.63189,1.09673 2.89117,1.0197 6.12221,-0.20875 z m -72.357258,-0.97132 c 0.309276,-0.50041 -0.02692,-3.29698 -0.7468,-6.21457 -1.240012,-5.02459 -1.480358,-5.2849 -4.551531,-4.92942 -1.783304,0.20643 -3.350785,0.47696 -3.483278,0.60118 -0.224781,0.21074 1.424582,7.07431 2.427479,10.10168 0.500575,1.51102 5.479289,1.85666 6.35413,0.44113 z m 85.698438,-1.02467 c 0.70995,-0.45135 1.74419,-2.83849 2.29831,-5.30473 1.12676,-5.01483 0.16048,-6.81108 -3.66387,-6.81108 -1.86948,0 -2.48012,0.82108 -3.01434,4.053 -1.13649,6.87586 -0.86168,8.91803 1.19769,8.90001 1.04027,-0.009 2.47225,-0.38584 3.18221,-0.8372 z m -97.964853,-1.57805 c -0.03133,-0.44582 -0.05703,-1.78331 -0.05703,-2.97218 0,-1.58517 -0.720515,-2.16159 -2.701968,-2.16159 -2.940005,0 -3.331464,1.12753 -1.548281,4.45943 1.066243,1.9923 4.437332,2.52004 4.307349,0.67434 z m 109.972243,-4.18509 c 0.21825,-1.88207 -0.28754,-3.0706 -1.50568,-3.53805 -2.29445,-0.88047 -2.42696,-0.73646 -3.28909,3.57417 -0.65186,3.25928 -0.50809,3.50118 1.88013,3.16355 1.86758,-0.26401 2.67728,-1.15289 2.91464,-3.19967 z"
       id="path24" />
  </g>
</svg>
