<?xml version="1.0" encoding="UTF-8" standalone="no"?>
<svg
   xmlns:dc="http://purl.org/dc/elements/1.1/"
   xmlns:cc="http://creativecommons.org/ns#"
   xmlns:rdf="http://www.w3.org/1999/02/22-rdf-syntax-ns#"
   xmlns:svg="http://www.w3.org/2000/svg"
   xmlns="http://www.w3.org/2000/svg"
   xmlns:sodipodi="http://sodipodi.sourceforge.net/DTD/sodipodi-0.dtd"
   xmlns:inkscape="http://www.inkscape.org/namespaces/inkscape"
   width="210mm"
   height="297mm"
   viewBox="0 0 210 297"
   version="1.1"
   id="svg8"
   inkscape:version="1.0 (4035a4fb49, 2020-05-01)"
   sodipodi:docname="07.svg">
  <defs
     id="defs2" />
  <sodipodi:namedview
     id="base"
     pagecolor="#ffffff"
     bordercolor="#666666"
     borderopacity="1.0"
     inkscape:pageopacity="0.0"
     inkscape:pageshadow="2"
     inkscape:zoom="0.54115914"
     inkscape:cx="441.54099"
     inkscape:cy="560"
     inkscape:document-units="mm"
     inkscape:current-layer="layer1"
     inkscape:document-rotation="0"
     showgrid="false"
     inkscape:window-width="958"
     inkscape:window-height="991"
     inkscape:window-x="-8"
     inkscape:window-y="0"
     inkscape:window-maximized="0" />
  <metadata
     id="metadata5">
    <rdf:RDF>
      <cc:Work
         rdf:about="">
        <dc:format>image/svg+xml</dc:format>
        <dc:type
           rdf:resource="http://purl.org/dc/dcmitype/StillImage" />
        <dc:title></dc:title>
      </cc:Work>
    </rdf:RDF>
  </metadata>
  <g
     inkscape:label="Ebene 1"
     inkscape:groupmode="layer"
     id="layer1">
    <path
       style="fill:#000000;stroke-width:1.2038"
       d="m 88.184843,285.7717 c -29.66101,-0.33947 -44.465304,-7.66314 -35.582403,-17.6026 1.561077,-1.74675 8.593917,-5.30057 17.421881,-8.80359 15.66175,-6.2147 18.40026,-8.30333 21.172665,-16.14819 1.896909,-5.36751 2.799509,-37.27929 1.595229,-56.39967 C 91.532593,166.81858 89.508064,162.95316 70.707859,144.6522 53.898972,128.28965 54.676545,129.52444 54.218552,118.46736 c -0.297179,-7.17451 0.377904,-12.61468 2.638866,-21.265495 1.671009,-6.393557 4.197517,-17.115359 5.614461,-23.826248 1.416944,-6.710865 3.567845,-16.326456 4.779777,-21.367994 1.211933,-5.041516 2.773477,-12.178549 3.470078,-15.860068 0.912905,-4.824506 2.530982,-8.160231 5.794547,-11.945702 4.279217,-4.963489 5.020443,-5.328609 13.49242,-6.646462 4.930434,-0.766928 18.548599,-1.912689 30.262529,-2.546137 19.72413,-1.066617 21.57268,-0.978502 25.01381,1.191889 2.04364,1.288951 4.04201,3.260628 4.44082,4.381515 2.22669,6.258167 11.94901,86.355882 11.2081,92.338202 -0.66226,5.3472 -3.92918,13.14332 -6.11248,14.58676 -1.57699,1.04258 -14.76063,14.12515 -26.77417,26.56887 -3.37499,3.49585 -7.25918,8.59696 -8.63157,11.33579 -4.05894,8.1005 -6.74836,23.54169 -7.74355,44.4595 -0.30049,6.31661 -0.98825,13.40499 -1.52828,15.75186 -0.54006,2.34691 -0.80929,7.34212 -0.59832,11.10043 0.34043,6.06496 0.84875,7.27094 4.52051,10.72466 2.84973,2.68052 6.80283,4.59981 12.70465,6.16823 10.88771,2.89344 15.1157,4.70389 19.45738,8.33179 3.99161,3.33538 4.42934,5.54283 1.90618,9.61303 -5.06596,8.17195 -31.89381,14.53099 -59.949467,14.20992 z m 39.061577,-12.38827 c 4.88705,-1.23583 9.36203,-2.7801 9.94439,-3.43172 1.65547,-1.8524 -1.31271,-4.22566 -7.7585,-6.2034 -3.19551,-0.98047 -9.00395,-2.97284 -12.90765,-4.42754 -6.61415,-2.46468 -7.23868,-2.50202 -9.16842,-0.54803 -2.39666,2.42674 -14.383525,3.58506 -16.600136,1.60407 -0.990275,-0.88502 -2.317998,-0.69291 -4.724127,0.68353 -1.840692,1.053 -7.972018,3.62294 -13.625145,5.711 -11.153188,4.11957 -12.86988,5.49666 -9.060694,7.26822 10.313441,4.79656 43.692852,4.45381 63.900282,-0.65613 z m -24.65267,-22.93112 c 1.4031,-1.06004 0.24539,-9.9423 -1.28468,-9.85642 -1.03205,0.058 -3.224025,6.75361 -3.075745,9.3953 0.0989,1.75923 2.329915,1.9952 4.360425,0.46112 z m 1.74957,-42.06493 c 0.77002,-16.38706 1.96747,-24.94704 5.00275,-35.76161 3.6355,-12.95328 6.08592,-16.61049 21.1293,-31.53506 17.80528,-17.6647 21.8868,-22.33038 21.71665,-24.82495 -0.0977,-1.42377 -2.24025,0.34957 -6.64308,5.49712 -9.69692,11.33704 -26.21281,27.54737 -33.01994,32.40909 -5.69491,4.06731 -6.1911,4.2081 -9.54114,2.70735 -5.644615,-2.52869 -37.12162,-32.43664 -37.289698,-35.43089 -0.04738,-0.84399 -0.935219,-2.16227 -1.972987,-2.92953 -1.600197,-1.18313 -1.85838,-0.88778 -1.69943,1.94389 0.193366,3.44455 5.094455,10.10748 10.004256,13.60053 6.679065,4.75185 21.964864,22.52662 24.103304,28.02806 3.26266,8.39364 5.188445,22.89937 5.219705,39.31694 0.0246,12.94686 0.83175,20.76472 2.00785,19.44875 0.23018,-0.25759 0.6723,-5.86893 0.98246,-12.46969 z m 5.94626,-99.28309 c 34.15118,-1.27078 41.35684,-1.82479 42.41906,-3.26145 0.70372,-0.95186 0.98751,-2.46124 0.63058,-3.35416 -0.35692,-0.89293 -2.19523,-14.015672 -4.0851,-29.161672 -4.95519,-39.711832 -5.62091,-44.185779 -6.72685,-45.206784 -0.54682,-0.504776 -6.84956,0.0528 -14.00615,1.239044 -12.12173,2.009304 -27.40018,2.57251 -42.14335,1.553541 l -6.213384,-0.429434 -3.014239,12.076028 c -1.657821,6.641811 -4.554082,19.487071 -6.436111,28.545026 -1.882039,9.05791 -4.257574,19.771257 -5.278966,23.807384 -1.021395,4.036149 -2.064013,10.303737 -2.316928,13.928027 l -0.459851,6.5896 3.245905,-2.39718 c 3.049175,-2.25188 5.739323,-2.48996 44.385384,-3.92797 z m 18.01755,-84.792645 c 0.62056,-0.637004 -5.69136,-0.731427 -14.7822,-0.221014 -9.16242,0.514305 -15.838265,1.370511 -15.801435,2.026619 0.12974,2.312841 28.185045,0.6566 30.583635,-1.805493 z"
       id="path24" />
  </g>
</svg>
