<?xml version="1.0" encoding="UTF-8" standalone="no"?>
<svg
   xmlns:dc="http://purl.org/dc/elements/1.1/"
   xmlns:cc="http://creativecommons.org/ns#"
   xmlns:rdf="http://www.w3.org/1999/02/22-rdf-syntax-ns#"
   xmlns:svg="http://www.w3.org/2000/svg"
   xmlns="http://www.w3.org/2000/svg"
   xmlns:sodipodi="http://sodipodi.sourceforge.net/DTD/sodipodi-0.dtd"
   xmlns:inkscape="http://www.inkscape.org/namespaces/inkscape"
   version="1.1"
   id="svg22"
   width="455.59323"
   height="650.84747"
   viewBox="0 0 455.59323 650.84747"
   sodipodi:docname="03.svg"
   inkscape:version="1.0 (4035a4fb49, 2020-05-01)">
  <metadata
     id="metadata28">
    <rdf:RDF>
      <cc:Work
         rdf:about="">
        <dc:format>image/svg+xml</dc:format>
        <dc:type
           rdf:resource="http://purl.org/dc/dcmitype/StillImage" />
        <dc:title />
      </cc:Work>
    </rdf:RDF>
  </metadata>
  <defs
     id="defs26" />
  <sodipodi:namedview
     inkscape:document-rotation="0"
     pagecolor="#ffffff"
     bordercolor="#666666"
     borderopacity="1"
     objecttolerance="10"
     gridtolerance="10"
     guidetolerance="10"
     inkscape:pageopacity="0"
     inkscape:pageshadow="2"
     inkscape:window-width="958"
     inkscape:window-height="991"
     id="namedview24"
     showgrid="false"
     inkscape:zoom="1.0356666"
     inkscape:cx="227.79662"
     inkscape:cy="345.7102"
     inkscape:window-x="-8"
     inkscape:window-y="0"
     inkscape:window-maximized="0"
     inkscape:current-layer="g30" />
  <g
     inkscape:groupmode="layer"
     inkscape:label="Image"
     id="g30">
    <path
       style="fill:#000000;stroke-width:2.36066"
       d="m 222.63415,626.76472 c -20.38799,-1.35351 -38.83804,-3.95052 -45.30297,-6.37678 -3.98948,-1.49721 -13.7813,-5.16331 -21.7596,-8.14687 -17.36907,-6.49531 -27.09706,-14.13889 -33.72192,-26.49635 -6.4055,-11.94826 -7.07543,-24.72594 -1.91357,-36.49809 8.55004,-19.49927 30.78648,-31.84912 73.98357,-41.08957 6.25289,-1.33755 9.34631,-3.45391 10.50284,-7.18541 0.90165,-2.90919 1.38722,-31.34555 1.07906,-63.19193 -0.30817,-31.84638 -0.41313,-70.90254 -0.23323,-86.79146 0.4281,-37.81268 -3.59477,-53.24028 -20.10191,-77.09038 -18.964,-27.39983 -55.30523,-81.75292 -67.23907,-100.56484 C 102.40225,148.85999 83.350235,121.02525 64.239369,94.895588 43.006069,65.864012 41.231002,62.745381 42.684382,57.025322 44.444804,50.096845 53.787018,45.470421 78.465535,39.305868 c 18.29459,-4.569883 34.343665,-6.170187 96.571505,-9.629457 44.23743,-2.459177 79.33387,-3.378731 86.17955,-2.257976 6.35193,1.03992 19.00558,2.02383 28.11923,2.186464 21.47172,0.383161 57.38072,3.781221 66.5809,6.30053 3.96536,1.085849 13.55955,3.45319 21.32043,5.260758 28.13224,6.552221 30.43286,16.029032 10.45302,43.058612 -14.46692,19.571421 -35.5444,50.414231 -46.06227,67.403221 -7.33231,11.84351 -46.88718,72.5195 -55.58617,85.26757 -44.30094,64.92135 -46.43921,70.84385 -45.77788,126.79474 0.23,19.45657 0.48808,58.78211 0.57357,87.39006 0.0854,28.60795 1.00355,52.88292 2.04018,53.94437 1.03663,1.06144 6.82796,2.55695 12.86963,3.32337 13.61446,1.72705 43.23233,12.4239 53.83572,19.44342 27.50012,18.20534 31.42782,45.61936 9.7561,68.09418 -10.50389,10.89309 -24.82263,17.97334 -49.77775,24.61377 -14.35784,3.82054 -37.40412,6.89744 -46.92715,6.26522 z m 52.99953,-23.7076 c 39.23802,-13.19784 52.42985,-33.87782 34.73789,-54.45637 -8.31507,-9.67172 -42.36187,-24.6238 -54.45665,-23.9153 -8.76263,0.5133 -9.03068,2.73935 -1.17975,9.79666 6.71139,6.03298 14.40412,18.26083 14.7035,23.37177 0.11096,1.89335 -2.73523,6.22276 -6.32476,9.62092 -14.03729,13.28892 -61.96707,13.11507 -77.02843,-0.27939 -9.25398,-8.2298 -8.4744,-15.09913 3.32443,-29.29311 5.65114,-6.7983 9.51261,-13.0384 8.58106,-13.86685 -2.85188,-2.53625 -29.86769,5.6893 -44.63732,13.59081 -25.72323,13.76147 -29.93891,34.34441 -10.37711,50.6659 10.06417,8.39707 43.68362,20.71827 55.46247,20.32642 3.61153,-0.12006 8.74482,0.63795 11.40733,1.68468 6.50473,2.55724 51.31526,-2.37841 65.78734,-7.24614 z m -23.13652,-38.17477 c 14.32527,-5.52232 11.72402,-13.89694 -10.72135,-34.51707 l -15.60327,-14.33443 -0.37329,-33.20619 c -1.06681,-94.8965 -0.16546,-157.2737 2.45038,-169.57599 1.56785,-7.37363 2.34794,-15.82359 1.73351,-18.77772 -1.213,-5.83218 -8.4168,-11.0726 -11.0896,-8.06715 -0.91072,1.02405 -0.59583,22.78239 0.69977,48.35188 2.4451,48.25604 2.73525,173.70509 0.41729,180.41971 -0.7281,2.10917 -7.35548,9.86191 -14.72751,17.22831 -7.37202,7.36641 -14.68006,16.0797 -16.24011,19.36284 -2.50472,5.27125 -2.26756,6.47525 2.02805,10.29544 10.26605,9.12988 41.35579,10.55734 61.42613,2.82037 z m -8.0871,-292.49966 c 2.95439,-5.34958 5.34616,-10.16168 5.315,-10.69354 -0.0311,-0.53191 -5.36754,0.93352 -11.85863,3.25643 -9.78899,3.50316 -13.61194,3.82926 -22.41364,1.91199 -5.8364,-1.27136 -11.23075,-3.19345 -11.98744,-4.27129 -0.75669,-1.07788 -2.97178,-1.86627 -4.92243,-1.752 -2.88476,0.16899 -2.48866,1.85637 2.12245,9.04173 5.25752,8.19265 6.72863,8.94091 20.26392,10.30729 8.02717,0.81034 15.38554,1.57517 16.35197,1.69964 0.96643,0.12452 4.17437,-4.15068 7.1288,-9.50025 z m -4.51007,-16.84603 c 7.27517,-3.18354 29.95744,-22.77089 28.18951,-24.34315 -0.72634,-0.64596 -3.57372,1.16356 -6.32753,4.02111 -7.84507,8.14068 -21.29686,15.8829 -31.5092,18.13523 -11.70323,2.58116 -28.84529,-2.43573 -36.02987,-10.54468 -5.97661,-6.74557 -4.91013,-9.95762 1.57534,-4.74463 8.48875,6.82322 22.41601,10.20734 32.6159,7.92516 16.66369,-3.72845 38.12619,-21.26218 52.45053,-42.84935 4.61502,-6.95493 15.55032,-22.64178 24.30064,-34.85967 8.75036,-12.21788 18.68891,-26.10154 22.08566,-30.85259 18.27531,-25.56155 37.29585,-55.113355 37.14379,-57.709446 -0.13296,-2.269585 -2.76427,-2.300238 -11.24003,-0.130922 -15.67831,4.012767 -148.05915,11.5409 -158.48302,9.012499 -4.60897,-1.117958 -14.62755,-1.666659 -22.2635,-1.219353 -16.05337,0.940377 -48.22114,-1.931915 -81.996015,-7.321524 -11.68486,-1.864609 -14.26314,-0.69058 -9.55493,4.35082 1.75527,1.8795 2.51373,3.456962 1.68546,3.505477 -0.82827,0.04852 2.25828,5.00795 6.85899,11.020948 4.60072,6.013001 11.275905,15.211931 14.833755,20.442081 3.55784,5.23014 16.40071,23.01424 28.5397,39.5202 12.13898,16.50595 23.73474,32.80166 25.76835,36.21271 2.03361,3.41103 9.65714,13.30336 16.94117,21.98293 7.28405,8.67959 12.34104,16.41477 11.23776,17.1893 -1.10327,0.77452 -4.51437,-1.71095 -7.5802,-5.52333 -6.99386,-8.69681 -9.56372,-6.71953 -3.03684,2.33661 8.4143,11.67495 29.21379,25.91869 42.80325,29.31214 3.89754,0.97327 11.86344,-0.87419 20.99133,-4.86857 z M 347.27016,69.956167 c 13.53066,-2.142992 27.03154,-4.57088 30.00197,-5.395319 14.36268,-3.98628 -7.03984,-11.831688 -44.2746,-16.229486 -75.78969,-8.951507 -212.71922,-4.319865 -263.733485,8.920787 -8.264927,2.145152 -7.937061,7.742193 0.534573,9.125756 3.611167,0.589742 10.336727,1.867023 14.945687,2.838354 20.379195,4.294935 65.529085,7.606884 121.120535,8.884757 33.00415,0.758653 115.01479,-3.965087 141.40532,-8.144837 z"
       id="path34" />
  </g>
</svg>
