<?xml version="1.0" encoding="UTF-8" standalone="no"?>
<svg
   xmlns:dc="http://purl.org/dc/elements/1.1/"
   xmlns:cc="http://creativecommons.org/ns#"
   xmlns:rdf="http://www.w3.org/1999/02/22-rdf-syntax-ns#"
   xmlns:svg="http://www.w3.org/2000/svg"
   xmlns="http://www.w3.org/2000/svg"
   xmlns:sodipodi="http://sodipodi.sourceforge.net/DTD/sodipodi-0.dtd"
   xmlns:inkscape="http://www.inkscape.org/namespaces/inkscape"
   width="210mm"
   height="297mm"
   viewBox="0 0 210 297"
   version="1.1"
   id="svg8"
   inkscape:version="1.0 (4035a4fb49, 2020-05-01)"
   sodipodi:docname="08.svg">
  <defs
     id="defs2" />
  <sodipodi:namedview
     id="base"
     pagecolor="#ffffff"
     bordercolor="#666666"
     borderopacity="1.0"
     inkscape:pageopacity="0.0"
     inkscape:pageshadow="2"
     inkscape:zoom="0.66449955"
     inkscape:cx="92.272763"
     inkscape:cy="511.88565"
     inkscape:document-units="mm"
     inkscape:current-layer="layer1"
     inkscape:document-rotation="0"
     showgrid="false"
     inkscape:window-width="1920"
     inkscape:window-height="1001"
     inkscape:window-x="-9"
     inkscape:window-y="-9"
     inkscape:window-maximized="1" />
  <metadata
     id="metadata5">
    <rdf:RDF>
      <cc:Work
         rdf:about="">
        <dc:format>image/svg+xml</dc:format>
        <dc:type
           rdf:resource="http://purl.org/dc/dcmitype/StillImage" />
        <dc:title></dc:title>
      </cc:Work>
    </rdf:RDF>
  </metadata>
  <g
     inkscape:label="Ebene 1"
     inkscape:groupmode="layer"
     id="layer1"
     transform="translate(-81.419498,-74.494271)">
    <path
       style="fill:#000000;stroke-width:1.21184"
       d="m 165.57233,363.96912 c -27.41421,-2.49601 -37.56702,-7.08486 -37.56702,-16.9794 0,-3.37419 5.84748,-6.5497 21.20718,-11.51671 24.10922,-7.79643 24.02018,-7.62607 26.03666,-49.81396 1.27689,-26.71402 0.37204,-39.50746 -3.3968,-48.02659 -1.39419,-3.15145 -7.17034,-9.87184 -15.28974,-17.78922 -7.17699,-6.99836 -14.7661,-15.17827 -16.86471,-18.17758 -3.52496,-5.03787 -3.79987,-6.14563 -3.60868,-14.54208 0.12588,-5.52969 1.38409,-13.12242 3.21297,-19.38943 1.65329,-5.66534 6.36209,-23.61046 10.46394,-39.87805 4.10188,-16.26757 8.28185,-31.170728 9.28889,-33.118077 3.45471,-6.68071 7.41724,-7.393849 41.66065,-7.497572 16.99606,-0.05157 32.38581,0.321844 34.19949,0.829585 1.81367,0.507764 3.90042,2.049632 4.63725,3.426412 0.73682,1.376758 3.49842,21.411122 6.13691,44.520792 6.32822,55.42674 5.85349,60.4892 -6.63801,70.78665 -3.42202,2.82101 -6.49455,5.40926 -6.82781,5.75166 -0.33326,0.34243 -6.33186,5.89195 -13.33023,12.33229 -7.83619,7.21138 -13.7254,13.72889 -15.33021,16.96578 -4.52053,9.11783 -7.44764,25.17795 -10.17591,55.83213 -1.52737,17.16136 -0.91278,23.60352 2.68865,28.18202 2.01669,2.56381 8.39193,6.90189 10.69907,7.28028 5.00616,0.82103 21.7578,7.71367 23.86267,9.81856 7.28612,7.28612 1.08944,13.86775 -17.1737,18.24057 -5.89452,1.41137 -34.72754,4.41341 -36.98496,3.85084 -0.33326,-0.0831 -5.24119,-0.57305 -10.90655,-1.0889 z m 38.92096,-9.10479 c 5.55749,-1.05424 12.02533,-2.72021 14.37298,-3.70218 l 4.26843,-1.78537 -3.02562,-2.2848 c -1.66408,-1.25664 -6.57203,-3.17539 -10.90655,-4.26388 -13.60465,-3.41644 -19.28985,-8.26938 -23.64059,-20.17979 l -2.80382,-7.67563 -1.3846,3.6355 c -5.29222,13.89549 -11.2806,19.24481 -26.26736,23.46422 -10.66565,3.0028 -14.54933,4.54465 -15.55788,6.1765 -1.09806,1.7767 5.7678,4.50903 15.11159,6.01381 4.17885,0.67296 7.88923,1.51493 8.2453,1.87101 1.47136,1.47136 32.06228,0.53762 41.58812,-1.26939 z m -19.37687,-54.13078 c 0.0851,-2.83267 0.32675,-6.24096 0.53711,-7.57398 0.21033,-1.33303 0.94569,-7.05897 1.63408,-12.72433 3.12159,-25.68988 5.51924,-35.82612 10.52168,-44.48145 1.62012,-2.80315 9.07176,-10.48892 16.55922,-17.07944 22.43959,-19.75149 26.33785,-23.84076 26.33785,-27.62827 v -3.36766 l -2.42368,2.60151 c -1.333,1.43083 -2.42365,2.97335 -2.42365,3.42781 0,0.45449 -3.22473,3.88558 -7.16605,7.62467 -25.9489,24.6175 -33.5941,30.42926 -40.02888,30.42926 -2.23776,0 -7.24221,-4.23485 -19.69097,-16.66281 -17.431,-17.40186 -19.64108,-20.77292 -20.85532,-31.81078 -0.32995,-2.99932 -0.62761,-5.62181 -0.66148,-5.82778 -0.034,-0.20605 -0.55584,-0.0691 -1.15992,0.30433 -1.72533,1.06631 -2.81317,11.91587 -1.52838,15.24353 1.04807,2.71454 7.07223,9.48721 24.23037,27.24101 3.22074,3.33255 7.08592,7.84468 8.58928,10.02693 4.6663,6.77349 6.28151,20.61698 5.79375,49.65619 -0.23792,14.16337 0.0203,25.75158 0.57388,25.75158 0.55354,0 1.07606,-2.31763 1.16111,-5.15032 z m 51.25154,-177.66734 c -1.39648,-13.3729 -2.79502,-21.67247 -3.82561,-22.70307 -0.91095,-0.910943 -3.06763,-1.378397 -4.91013,-1.064232 -14.28307,2.435412 -28.71494,2.988662 -43.48219,1.666892 -8.77788,-0.78567 -16.70224,-1.143568 -17.60974,-0.79533 -0.9075,0.34824 -2.37238,3.55901 -3.25531,7.13501 -0.88291,3.57601 -2.86021,11.13713 -4.39402,16.80247 -1.53378,5.66537 -3.17471,13.24815 -3.64649,16.85066 l -0.8578,6.55001 39.82729,-0.81526 c 25.68822,-0.52585 40.4726,-0.38877 41.64507,0.38613 2.85165,1.88475 2.91266,-0.99449 0.50893,-24.01328 z M 217.68142,96.376656 c 1.61578,-0.15831 1.61578,-0.308648 0,-1.352842 -1.9725,-1.274745 -27.97957,-1.637192 -32.40306,-0.4516 -6.37438,1.708465 -0.39301,2.670261 14.54417,2.338666 8.82263,-0.195917 16.85913,-0.436265 17.85889,-0.534224 z"
       id="path24"
       clip-path="none" />
  </g>
</svg>
