<?xml version="1.0" encoding="UTF-8" standalone="no"?>
<svg
   xmlns:dc="http://purl.org/dc/elements/1.1/"
   xmlns:cc="http://creativecommons.org/ns#"
   xmlns:rdf="http://www.w3.org/1999/02/22-rdf-syntax-ns#"
   xmlns:svg="http://www.w3.org/2000/svg"
   xmlns="http://www.w3.org/2000/svg"
   xmlns:sodipodi="http://sodipodi.sourceforge.net/DTD/sodipodi-0.dtd"
   xmlns:inkscape="http://www.inkscape.org/namespaces/inkscape"
   width="210mm"
   height="297mm"
   viewBox="0 0 210 297.00001"
   version="1.1"
   id="svg8"
   inkscape:version="1.0 (4035a4fb49, 2020-05-01)"
   sodipodi:docname="13.svg">
  <defs
     id="defs2" />
  <sodipodi:namedview
     id="base"
     pagecolor="#ffffff"
     bordercolor="#666666"
     borderopacity="1.0"
     inkscape:pageopacity="0.0"
     inkscape:pageshadow="2"
     inkscape:zoom="0.62"
     inkscape:cx="383.71855"
     inkscape:cy="576.83163"
     inkscape:document-units="mm"
     inkscape:current-layer="layer1"
     inkscape:document-rotation="0"
     showgrid="false"
     inkscape:window-width="958"
     inkscape:window-height="991"
     inkscape:window-x="-8"
     inkscape:window-y="0"
     inkscape:window-maximized="0" />
  <metadata
     id="metadata5">
    <rdf:RDF>
      <cc:Work
         rdf:about="">
        <dc:format>image/svg+xml</dc:format>
        <dc:type
           rdf:resource="http://purl.org/dc/dcmitype/StillImage" />
        <dc:title></dc:title>
      </cc:Work>
    </rdf:RDF>
  </metadata>
  <g
     inkscape:label="Ebene 1"
     inkscape:groupmode="layer"
     id="layer1"
     transform="translate(-46.383336,-38.511764)">
    <path
       id="path24"
       style="fill:#000000;stroke-width:0.455372"
       d="m 197.21341,45.344384 c -0.72479,0.0191 -1.67555,0.09759 -2.96615,0.231229 -2.35284,0.243638 -9.2985,0.663929 -15.43464,0.933882 -6.13615,0.269954 -17.09924,0.783322 -24.36244,1.140208 -7.26319,0.356885 -16.58695,0.770602 -20.71945,0.919631 -4.1325,0.149047 -11.09971,0.475022 -15.48266,0.724873 -4.38296,0.249834 -10.58101,0.472199 -13.77326,0.494505 -3.51877,0.02461 -6.05308,0.240505 -6.43747,0.547858 -0.34875,0.278834 -2.68675,4.529298 -5.19499,9.445429 -6.49876,12.737502 -9.72016,22.958628 -11.39231,36.143424 -0.2541,2.003643 -0.46805,4.257727 -0.47493,5.009107 -0.0962,10.72024 0.0155,12.212 1.54932,20.71945 0.80611,4.47109 1.8323,7.80143 4.55906,14.79961 3.82621,9.81994 8.04021,16.19869 16.32316,24.7084 8.50421,8.73704 17.50434,14.70555 27.31258,18.11352 2.4961,0.8673 5.00351,1.88209 5.57209,2.25464 2.36447,1.54926 5.80645,11.29815 6.88038,19.48673 0.22271,1.6981 0.45568,12.04643 0.51764,22.99632 0.062,10.94987 0.29929,21.25137 0.52741,22.89314 0.22811,1.64179 0.42373,14.08132 0.43492,27.64343 l 0.0205,24.6586 -1.21048,3.02486 c -1.27483,3.18448 -4.26229,6.66677 -6.79945,7.92544 -0.73551,0.36489 -1.64504,0.9113 -2.02072,1.21403 -0.37568,0.30272 -2.01502,0.89054 -3.64299,1.30653 -1.62795,0.41599 -6.85334,1.9578 -11.61199,3.42596 -4.75864,1.46818 -10.49635,3.21798 -12.75043,3.88846 -2.2541,0.67047 -4.3545,1.5416 -4.66757,1.93622 -0.81032,1.0214 -0.70449,3.73814 0.18411,4.72004 0.68492,0.75692 1.62942,0.83236 10.35972,0.82892 5.28336,-0.002 19.85228,-0.19549 32.37504,-0.43135 12.52274,-0.23587 30.33917,-0.55407 39.59251,-0.70707 16.54716,-0.27362 16.83966,-0.29536 17.75953,-1.2763 0.56903,-0.6068 0.93564,-1.61077 0.93564,-2.56413 0,-1.59995 -0.48332,-1.99568 -4.55372,-3.72658 -0.9324,-0.39649 -5.6508,-1.70614 -7.28595,-2.02251 -1.817,-0.35155 -8.24394,-2.06471 -10.18096,-2.71355 -1.09152,-0.36561 -2.17682,-0.54603 -2.41117,-0.40111 -0.23434,0.14474 -0.7239,0.0155 -1.08862,-0.28729 -0.3647,-0.3026 -0.6635,-0.41979 -0.6635,-0.26059 0,0.1592 -0.70446,-0.005 -1.56533,-0.36465 -0.8609,-0.35967 -1.98795,-0.54335 -2.50456,-0.40824 -0.51662,0.13511 -0.93921,0.0554 -0.93921,-0.17788 0,-0.51231 -2.92208,-1.95934 -3.95694,-1.95934 -1.48255,0 -5.91293,-4.07021 -7.42737,-6.82348 -0.37568,-0.683 -0.90361,-1.16351 -1.17312,-1.06816 -0.56455,0.19983 -0.56787,0.1561 -0.78623,-11.57377 -0.0897,-4.82046 -0.30004,-8.90229 -0.46783,-9.07009 -0.41604,-0.41604 -0.38729,-1.97453 0.0365,-1.97625 0.30895,-0.001 0.54593,-14.23213 0.55678,-33.4681 0.007,-11.36844 -0.2534,-20.49893 -0.59858,-21.05743 -0.17318,-0.28019 -0.14561,-0.61439 0.0606,-0.74177 0.20608,-0.12736 0.2999,-4.08591 0.20811,-8.79704 -0.20038,-10.28532 -0.14698,-13.37999 0.24369,-14.01072 0.52442,-0.84658 0.56576,-6.74291 0.0516,-7.36244 -0.27183,-0.32764 -0.38883,-0.85874 -0.2597,-1.18024 0.14767,-0.36743 0.2487,-0.28837 0.27126,0.21258 0.0565,1.25218 0.90055,0.93107 1.19714,-0.45539 0.14733,-0.68876 0.45793,-1.72288 0.69106,-2.29821 0.23312,-0.57531 0.42425,-1.46763 0.42425,-1.98246 0,-0.51483 0.49348,-1.88759 1.09662,-3.05153 0.60313,-1.16396 1.46903,-2.88522 1.92467,-3.82442 0.45564,-0.93922 1.05814,-1.70766 1.33854,-1.70766 0.2804,0 0.97877,-0.40647 1.552,-0.90362 0.67183,-0.58266 1.40763,-0.81268 2.06963,-0.6466 0.56483,0.14182 1.16322,0.0368 1.33054,-0.23391 0.1673,-0.27075 0.80458,-0.49272 1.41593,-0.49272 0.61137,0 1.51639,-0.40464 2.01094,-0.89918 0.49454,-0.49454 1.46789,-1.03923 2.16302,-1.21048 1.91799,-0.47242 3.313,-1.53618 3.313,-2.52677 0,-0.70274 0.20499,-0.82386 0.97924,-0.57812 0.77249,0.24519 0.92169,0.15869 0.70351,-0.41001 -0.15214,-0.39656 -0.0812,-0.84279 0.15834,-0.9908 0.23953,-0.14802 0.4358,0.0506 0.4358,0.44115 0,0.85836 0.32252,0.89882 1.1153,0.14044 0.32732,-0.31307 1.24434,-1.0815 2.03762,-1.70765 0.79331,-0.62614 1.97515,-1.59948 2.62639,-2.16302 0.65126,-0.56352 1.46193,-1.02459 1.80104,-1.02459 0.33911,0 0.61636,-0.32475 0.61636,-0.72131 0,-0.3965 0.25424,-0.63618 0.56476,-0.53274 0.65577,0.21859 2.16747,-1.53756 2.16747,-2.51789 0,-0.36749 0.56351,-0.78928 1.25227,-0.93833 0.81738,-0.17682 1.63996,-0.90822 2.36848,-2.10608 0.61388,-1.00937 1.36894,-1.83574 1.67741,-1.83574 0.30844,0 0.69221,-0.41597 0.85382,-0.92496 0.38059,-1.19912 2.21443,-3.17339 2.94746,-3.17339 0.34573,0 0.47633,-0.35813 0.33176,-0.91073 -0.15559,-0.59523 -0.0138,-0.91076 0.40912,-0.91076 0.76194,0 2.45123,-2.59974 2.45295,-3.77638 9.1e-4,-0.51175 0.28526,-0.76687 0.76045,-0.68307 0.51308,0.0905 0.87769,-0.31327 1.12597,-1.24693 0.20191,-0.75919 0.78259,-1.82593 1.29053,-2.37114 0.96049,-1.03097 1.23454,-1.73124 0.49984,-1.27719 -0.55989,0.34608 -1.08029,-0.52675 -0.69017,-1.15798 0.22031,-0.35649 0.44397,-0.35649 0.80046,0 0.69687,0.69687 1.22382,0.61488 1.22382,-0.19034 0,-0.37692 0.51228,-1.74739 1.13841,-3.0453 0.62614,-1.29793 1.13844,-2.71442 1.13844,-3.14759 0,-0.43316 0.21223,-0.85813 0.47139,-0.94455 0.62193,-0.20729 1.58967,-3.01887 3.39838,-9.86966 0.81675,-3.09351 1.38313,-6.01493 1.25852,-6.49172 -0.12478,-0.4768 -0.0172,-1.12198 0.23925,-1.43371 1.33161,-1.62005 1.76806,-22.537858 0.56742,-27.202296 -0.22611,-0.878463 -0.65291,-3.109379 -0.94809,-4.957523 -0.71252,-4.46128 -5.02881,-17.556288 -7.24772,-21.989514 -2.68446,-5.363374 -9.22619,-15.907446 -10.30991,-16.617535 -0.4822,-0.315941 -1.06268,-0.449085 -2.27064,-0.417124 z m -7.24417,3.90535 c 0.8826,0 1.5938,0.230489 1.5938,0.515846 0,0.340639 0.63452,0.430033 1.8713,0.264154 4.0261,-0.540011 4.50859,-0.230214 7.54746,4.843673 4.82837,8.061773 8.02408,14.778339 10.13737,21.305568 5.70161,17.610296 5.31868,40.447095 -0.91698,54.654495 -0.73401,1.67235 -1.33498,3.18889 -1.33498,3.36993 0,0.18104 -0.40268,1.17112 -0.89473,2.20039 -0.49204,1.02924 -1.20435,2.5885 -1.58315,3.46509 -2.00221,4.63348 -8.01928,13.06878 -12.84291,18.00412 -5.50523,5.63272 -12.28945,10.71365 -18.60625,13.93423 -7.85606,4.00539 -8.92008,4.43785 -12.52097,5.09713 -2.29449,0.42011 -6.65214,0.72457 -10.70126,0.74711 -3.75682,0.021 -7.75271,0.11893 -8.87975,0.21789 -3.10375,0.27232 -6.38851,-0.39096 -10.09024,-2.03672 -1.83852,-0.81738 -4.6333,-2.06519 -6.21068,-2.77315 -11.80731,-5.29921 -22.66303,-14.84752 -30.22714,-26.5877 -1.12955,-1.7532 -2.32664,-3.90482 -2.66019,-4.78142 -0.33356,-0.87659 -1.00174,-2.16824 -1.4853,-2.8701 -0.48358,-0.70184 -1.28671,-2.34119 -1.78503,-3.64297 -0.49833,-1.30178 -1.41548,-3.69866 -2.0376,-5.32661 -1.80569,-4.72507 -4.17051,-17.86356 -4.22111,-23.45169 -0.0485,-5.3549 0.93809,-14.747361 2.12834,-20.264085 0.13511,-0.626134 0.28889,-1.548278 0.34241,-2.049185 0.0535,-0.500907 0.2656,-1.302971 0.47139,-1.782347 0.29381,-0.684393 0.23555,-0.788123 -0.27215,-0.482061 -0.53122,0.320209 -0.54528,0.265169 -0.0809,-0.308627 0.31081,-0.384182 0.41483,-0.84812 0.23124,-1.031692 -0.18357,-0.183589 0.0478,-0.547531 0.51408,-0.808466 0.68432,-0.382961 0.72681,-0.550819 0.22324,-0.869841 -0.51325,-0.325132 -0.50237,-0.395972 0.0596,-0.401996 0.50629,-0.0052 0.68998,-0.567083 0.71064,-2.170143 0.0224,-1.74154 0.1776,-2.150799 0.7969,-2.099872 0.89896,0.07384 0.98844,-0.344769 0.23391,-1.099297 -0.41067,-0.41067 -0.34372,-0.748847 0.28816,-1.44706 0.45332,-0.500907 1.05271,-0.773959 1.33232,-0.606565 0.27957,0.167462 0.2146,-0.05783 -0.14492,-0.500735 -0.50984,-0.627855 -0.52959,-0.881751 -0.0898,-1.153546 0.31023,-0.191712 0.50878,-0.534709 0.44114,-0.76222 -0.0676,-0.227495 0.27093,-1.289822 0.75242,-2.361358 0.58253,-1.296344 1.08944,-1.866715 1.51555,-1.703194 0.48665,0.186739 0.5709,-0.0296 0.3522,-0.900957 -0.15834,-0.630712 -0.12994,-1.120897 0.0632,-1.089521 0.90644,0.147325 1.09613,-0.110667 0.55765,-0.759553 -0.3234,-0.389811 -0.40012,-0.672604 -0.16987,-0.628802 1.46786,0.279196 2.02207,-0.07538 1.82415,-1.166884 -0.11359,-0.626151 -0.0224,-1.138434 0.20278,-1.138434 0.22505,0 0.64252,-0.435798 0.92765,-0.968563 0.39561,-0.739244 0.38523,-1.050951 -0.0427,-1.315414 -0.8082,-0.499496 -0.10671,-1.374551 0.82268,-1.026374 0.68086,0.255032 0.70208,0.194225 0.16367,-0.467828 -0.54266,-0.66725 -0.46846,-0.816899 0.59946,-1.222922 1.58542,-0.602779 2.5241,-0.587719 2.5241,0.04096 0,0.284186 0.33274,0.376489 0.76223,0.211677 0.68919,-0.264463 8.50855,-0.873214 10.16672,-0.791565 0.37568,0.01859 1.78894,0.174605 3.14048,0.346869 1.68178,0.214362 2.36383,0.161094 2.16035,-0.168151 -0.20275,-0.327989 0.93157,-0.429051 3.56738,-0.317507 2.78158,0.117722 3.83619,0.01377 3.76038,-0.369106 -0.058,-0.293119 0.40645,-0.598269 1.03259,-0.677715 0.89297,-0.113248 0.99116,-0.04509 0.45538,0.317507 -0.68613,0.464334 0.63365,0.381136 4.55372,-0.288162 1.34242,-0.229198 8.75135,-0.501114 12.75043,-0.467828 1.3134,0.01033 1.22602,0.01377 10.24589,-0.341534 6.00001,-0.236684 12.6543,-0.631882 22.4271,-1.330542 1.70175,-0.121682 2.84607,-0.02341 2.84607,0.244584 0,0.246581 0.20818,0.319934 0.46249,0.162816 0.25431,-0.157136 2.30348,-0.276597 4.55372,-0.265927 2.36456,0.01205 4.09125,-0.167806 4.09125,-0.424249 0,-0.243948 0.71721,-0.443801 1.5938,-0.443801 z m -52.63289,3.243641 c -0.15817,-0.0069 -0.33904,0.0222 -0.5034,0.08812 -0.36326,0.145433 -0.25565,0.253844 0.27484,0.275702 0.48003,0.01979 0.74899,-0.08795 0.59767,-0.239249 -0.0757,-0.07556 -0.21091,-0.118067 -0.36911,-0.124435 z m 12.6268,129.038545 c 4.29733,-0.0298 8.69903,0.0774 9.11813,0.34954 0.39224,0.25463 0.24135,1.27502 -0.57276,3.87065 -3.21463,10.2493 -3.09274,8.69166 -3.26588,41.54831 -0.36022,68.35842 -0.24846,73.00296 1.84283,76.75785 0.30377,0.54544 0.9953,1.78689 1.53688,2.75892 1.63478,2.93408 6.8936,7.14501 9.94438,7.96281 8.03034,2.1526 14.07496,3.7631 18.36965,4.89525 5.04795,1.33068 5.91299,1.6638 5.4725,2.10431 -0.1191,0.11927 -5.53215,0.34056 -12.02914,0.49184 -9.41966,0.2193 -11.91504,0.40575 -12.31819,0.92142 -0.64839,0.82886 -1.08863,0.82466 -1.08863,-0.0121 0,-0.5534 -1.10625,-0.62857 -6.94442,-0.47316 -21.0711,0.56101 -46.72297,0.69728 -46.99944,0.24992 -0.36061,-0.58347 0.34375,-0.8748 7.04049,-2.91011 2.88023,-0.87538 7.79826,-2.37008 10.92894,-3.32192 5.75513,-1.74973 9.16458,-3.58001 11.25535,-6.04257 3.29294,-3.87848 4.2643,-5.32323 4.72628,-7.02715 0.28365,-1.04625 0.63892,-2.2098 0.78977,-2.58548 0.27667,-0.68892 0.48842,-12.44492 0.40558,-22.54093 -0.0246,-3.00546 0.002,-6.64275 0.0587,-8.08288 0.0682,-1.7235 -0.0749,-2.61838 -0.41802,-2.61838 -0.32787,0 -0.39058,-0.29588 -0.16815,-0.7969 0.41742,-0.94007 0.2561,-21.0635 -0.17433,-21.73783 -0.16196,-0.25387 -0.3327,-6.40422 -0.37888,-13.6674 -0.14767,-23.23182 -0.28274,-28.13189 -0.90986,-33.01452 -0.57517,-4.47828 -1.59022,-8.88669 -2.4156,-10.48868 -0.19781,-0.38391 -0.51444,-1.40851 -0.70352,-2.27687 -0.18908,-0.86838 -0.62488,-1.98296 -0.96856,-2.47698 -0.34369,-0.49402 -0.62462,-1.10878 -0.62436,-1.36612 2.7e-4,-0.27496 4.19289,-0.44158 8.4902,-0.47137 z m 9.89013,7.21925 c 0.0415,0.007 0.0905,0.0764 0.14491,0.21257 0.13149,0.32873 0.1148,0.72122 -0.0365,0.87251 -0.15129,0.15128 -0.25812,-0.11773 -0.23836,-0.59769 0.0138,-0.33155 0.0608,-0.49784 0.12977,-0.48739 z m -2.44318,92.7386 c 0.25045,0 0.45538,0.20491 0.45538,0.45536 0,0.25046 -0.20493,0.45537 -0.45538,0.45537 -0.25045,0 -0.45537,-0.20491 -0.45537,-0.45537 0,-0.25045 0.20492,-0.45536 0.45537,-0.45536 z m 38.2513,37.34054 c 0.25045,0 0.45538,0.20492 0.45538,0.45537 0,0.25045 -0.20493,0.45539 -0.45538,0.45539 -0.25047,0 -0.45537,-0.20494 -0.45537,-0.45539 0,-0.25045 0.2049,-0.45537 0.45537,-0.45537 z" />
  </g>
</svg>
